<?xml version="1.0" encoding="UTF-8" standalone="no"?>
<!-- Created with Inkscape (http://www.inkscape.org/) -->

<svg
   version="1.1"
   id="svg1"
   width="50.0mm"
   height="19.0mm"
   viewBox="0 0 50.0 19.0"
   sodipodi:docname="mxsizecase.svg"
   inkscape:version="1.3.2 (091e20e, 2023-11-25)"
   xmlns:inkscape="http://www.inkscape.org/namespaces/inkscape"
   xmlns:sodipodi="http://sodipodi.sourceforge.net/DTD/sodipodi-0.dtd"
   xmlns="http://www.w3.org/2000/svg"
   xmlns:svg="http://www.w3.org/2000/svg">
  <sodipodi:namedview
     id="namedview1"
     pagecolor="#505050"
     bordercolor="#eeeeee"
     borderopacity="1"
     inkscape:showpageshadow="0"
     inkscape:pageopacity="0"
     inkscape:pagecheckerboard="0"
     inkscape:deskcolor="#d1d1d1"
     showgrid="false"
     inkscape:zoom="10.544703"
     inkscape:cx="47.559423"
     inkscape:cy="40.39943"
     inkscape:window-width="1980"
     inkscape:window-height="1211"
     inkscape:window-x="0"
     inkscape:window-y="48"
     inkscape:window-maximized="1"
     inkscape:current-layer="g3"
     inkscape:document-units="mm" />
  <defs
     id="defs1" />
  <g
     inkscape:label="F.SilkS"
     inkscape:groupmode="layer"
     id="g3">
    <path
       id="path4"
       style="fill:#000000;stroke-width:0.0283877"
       inkscape:label="path4"
       d="m 22.701513,0.94916542 -1.477429,0.008785 V 1.2685258 1.5785844 l 0.127641,0.020671 c 0.07023,0.011574 0.127641,0.00911 0.127641,-0.00568 0,-0.014795 -0.04972,-0.031774 -0.110588,-0.037724 L 21.25819,1.5449994 21.24786,1.2602622 21.23806,0.97552509 h 0.49506 0.495577 l -5.16e-4,0.90588781 c -5.6e-5,0.4984121 -0.01001,1.127798 -0.02222,1.3983643 l -0.02222,0.4919597 H 21.712427 21.241138 V 3.1846877 2.6007442 c -0.01872,0.024906 -0.02212,0.069179 -0.02739,0.1617472 l -0.01034,0.1808675 -8.605159,0.00827 c -4.7327762,0.00463 -7.4202823,0.012587 -5.9722456,0.01757 2.4851474,0.00855 2.6316875,0.012423 2.6158611,0.069246 -0.00922,0.03311 -0.026656,0.1300475 -0.038757,0.2154907 -0.012101,0.085443 -0.029499,0.1822627 -0.038757,0.2154906 -0.010895,0.0391 0.00215,0.060462 0.03669,0.060462 0.047956,0 0.053227,0.2470859 0.053227,2.4339601 0,2.1220303 -0.00633,2.4339599 -0.050126,2.4339599 -0.036255,0 -0.045464,0.026564 -0.033073,0.095085 0.00944,0.052215 0.02971,0.168709 0.045475,0.258899 l 0.028944,0.163812 H 6.6105058 3.9760412 V 5.9292232 2.9433589 H 1.7627396 -0.45107872 v 8.3886351 8.389152 H 22.892716 46.235993 v -1.916162 -1.915645 h 1.375112 1.374591 l 0.04341,-0.283187 c 0.03257,-0.212216 0.03409,-0.286673 0.0046,-0.296623 -0.05665,-0.01914 -0.05665,-11.7677345 0,-11.7868772 0.02944,-0.00995 0.02792,-0.084407 -0.0046,-0.2966227 L 48.985696,2.9433589 H 36.613842 24.241988 l -0.02222,0.1488282 c -0.01211,0.081893 -0.01714,0.2684743 -0.01085,0.4149618 l 0.01188,0.2666504 -0.476973,-0.00982 -0.476973,-0.0093 L 23.250312,2.3651 23.233262,0.97552079 h 0.485241 c 0.266888,9.23e-6 0.488023,0.004038 0.49196,0.008785 0.0039,0.004747 0.01618,0.44349511 0.02687,0.97513421 l 0.01964,0.9663493 0.0072,-0.9534301 c 0.006,-0.7708601 -0.0017,-0.9616035 -0.03927,-0.99322106 -0.03344,-0.0281312 -0.46103,-0.0364449 -1.523422,-0.0299723 z M 21.241137,2.6007442 c 8.6e-4,-0.00114 0.0027,-0.00152 0.0036,-0.00258 h -0.0036 z m 0.0036,-0.00258 h 0.09612 c 0.05508,0 0.108149,-0.013072 0.117822,-0.028939 0.0097,-0.015867 -0.03908,-0.019629 -0.108521,-0.00827 -0.05765,0.00943 -0.08738,0.016608 -0.105419,0.037207 z M 22.26278,0.97552033 h 0.457337 c 0.436335,0 0.458188,0.003474 0.480074,0.0733806 0.01262,0.040307 0.01753,0.669178 0.01085,1.3978475 l -0.01189,1.3249837 H 22.730969 22.26278 V 2.3733679 Z M 49.088018,2.9531774 c -0.04214,0.00823 -0.0078,0.014986 0.07648,0.014986 0.08428,0 0.118624,-0.00676 0.07648,-0.014986 -0.04214,-0.00823 -0.11082,-0.00823 -0.152961,0 z M -0.41697226,2.9774654 H 1.7627396 3.9419348 v 2.9863811 2.986381 H 3.3590247 2.7755977 l 0.019637,-0.098702 c 0.05295,-0.2684114 0.064286,-0.453719 0.027905,-0.453719 -0.026724,0 -0.040778,-0.287667 -0.047542,-0.9751343 l -0.00982,-0.975651 -0.00775,0.975651 c -0.00713,0.8739028 -0.01346,0.9751343 -0.063045,0.9751343 -0.04272,0 -0.051206,0.022487 -0.036173,0.098702 0.010712,0.0543 0.029761,0.1774894 0.042375,0.2738852 l 0.023254,0.1751831 -0.1488284,0.013436 -0.148828,0.013436 0.1617471,0.0062 0.1617474,0.0062 v 0.5519044 0.5524208 l -0.1617474,0.0062 -0.1617471,0.0062 0.148828,0.01344 0.1488284,0.01344 -0.023254,0.175183 c -0.012614,0.0964 -0.031662,0.219586 -0.042375,0.273885 -0.014863,0.07535 -0.00652,0.0987 0.034623,0.0987 0.043531,0 0.056256,0.0516 0.065629,0.267684 l 0.011369,0.267684 0.00672,-0.267684 c 0.0044,-0.171604 0.02082,-0.267684 0.045475,-0.267684 0.036965,0 0.025951,-0.18333 -0.027388,-0.453719 l -0.019637,-0.0987 h 0.583427 0.5829101 v 2.882512 2.883028 H 22.892716 41.842982 V 9.4334021 2.9774654 h 2.179712 2.179192 v 6.4383667 6.4383669 l -2.051552,0.0088 -2.052072,0.0093 2.052072,0.0083 2.051552,0.0088 v 1.898592 1.898592 H 22.892716 -0.41697226 v -8.354529 z m 9.70225026,0 h 5.96191 5.96191 l -0.0098,0.3886067 -0.0093,0.3886068 -0.169499,0.010852 c -0.184335,0.011795 -0.256315,0.051558 -0.256315,0.1421104 0,0.032094 -0.04307,0.099878 -0.0956,0.1508949 -0.0895,0.086926 -0.115345,0.093018 -0.40876,0.093018 H 19.947159 L 19.817968,4.0208126 C 19.746948,3.9488086 19.612647,3.8518359 19.519795,3.805322 19.373196,3.73188 19.303688,3.720284 18.993212,3.720056 c -0.322357,-2.572e-4 -0.376052,0.0096 -0.549837,0.096118 -0.211686,0.105386 -0.392267,0.2866812 -0.51263,0.515214 -0.07702,0.146234 -0.07848,0.1664339 -0.08837,1.4903483 l -0.0098,1.3425536 -0.340548,0.4960939 c -0.299668,0.4362216 -0.351948,0.4955769 -0.435116,0.4955769 -0.0548,0 -0.126068,0.033787 -0.168981,0.080099 -0.06428,0.069362 -0.0739,0.1192699 -0.0739,0.3793049 V 8.915088 l -3.762561,0.00878 -3.7630775,0.00879 0.01757,-0.1033529 c 0.00978,-0.056962 0.031163,-0.1774939 0.047026,-0.2676839 0.022883,-0.1301019 0.018951,-0.1638143 -0.018087,-0.1638143 -0.039101,0 -0.046509,-0.3954661 -0.046509,-2.4339599 0,-2.0384971 0.00741,-2.4339601 0.046509,-2.4339601 0.037038,0 0.040969,-0.033712 0.018087,-0.1638143 C 9.3371111,3.2758858 9.31506,3.1518291 9.3043981,3.09012 Z m 14.986165,0 h 8.768975 8.768457 v 2.9693279 2.9688109 h -6.572209 -6.57221 V 8.6324173 c 0,-0.2599946 -0.0074,-0.2903277 -0.09147,-0.3793049 -0.05347,-0.056579 -0.127804,-0.097037 -0.178801,-0.097152 C 28.310409,8.1557891 28.279973,8.0845491 27.628344,6.3612383 27.160094,5.1228967 26.919257,4.5289838 26.850613,4.4445592 26.738606,4.3068077 26.564054,4.2065483 26.374675,4.1717078 c -0.07842,-0.014427 -0.128159,-0.042541 -0.128159,-0.07338 0,-0.041784 -0.08845,-0.050643 -0.527616,-0.050643 -0.446471,0 -0.527616,0.00839 -0.527616,0.052193 0,0.038853 -0.04083,0.051676 -0.163815,0.051676 -0.135113,0 -0.18036,-0.01733 -0.255798,-0.097152 -0.05033,-0.053254 -0.09147,-0.128814 -0.09147,-0.1684653 0,-0.087397 -0.05994,-0.1142048 -0.257866,-0.1142048 H 24.27144 v -0.396875 z m 21.96455,0 h 1.363741 1.363742 L 48.943839,3.09012 c -0.01066,0.061709 -0.03219,0.1857658 -0.04806,0.2759521 -0.02288,0.1301019 -0.01947,0.1638143 0.01757,0.1638143 0.03936,0 0.04702,0.9234968 0.04702,5.8843953 0,4.2799653 -0.0107,5.8903943 -0.03824,5.9076503 -0.03594,0.02252 -0.02213,0.252425 0.02687,0.454752 l 0.0186,0.07803 H 47.601801 46.235993 V 9.4163488 Z m -27.18542,0.7596435 c 0.23501,0.011017 0.463179,0.090084 0.636137,0.2444297 0.08702,0.077647 0.15813,0.1549102 0.15813,0.1715656 0,0.029307 -0.475327,0.7429257 -1.424202,2.1388874 -0.251669,0.37025 -0.465938,0.6965392 -0.476457,0.7250204 -0.04753,0.1287097 0.109295,-0.065666 0.385506,-0.47749 0.161363,-0.2405893 0.374085,-0.5541968 0.472323,-0.6965984 0.410813,-0.595494 0.75508,-1.1035712 0.917256,-1.3539227 l 0.1726,-0.2671671 2.581754,-0.00103 2.581238,-0.00103 v 1.4469403 c 0,1.3457184 0.004,1.4479168 0.05943,1.4696776 0.03278,0.012865 0.6499,0.021031 1.370977,0.018087 1.51994,-0.00621 1.396297,-0.00951 1.396297,0.037207 0,0.020204 0.03793,0.1215363 0.08475,0.2253093 0.04682,0.1037765 0.08526,0.210914 0.08526,0.2377116 0,0.026798 0.01538,0.058032 0.03411,0.069763 0.01873,0.011735 0.03411,0.047475 0.03411,0.079582 0,0.032107 0.02014,0.097226 0.04444,0.144694 0.0243,0.047469 0.05421,0.1135331 0.06666,0.146761 0.02151,0.057383 -0.253831,0.060462 -5.49372,0.060462 -5.244764,0 -5.514996,-0.00302 -5.481319,-0.060462 0.01948,-0.033228 0.128235,-0.1920742 0.241846,-0.3534667 0.113607,-0.1613891 0.243106,-0.3505262 0.287837,-0.4201293 0.04474,-0.069606 0.101053,-0.1389559 0.125057,-0.1539958 0.024,-0.015041 0.566986,-0.022744 1.206645,-0.017053 0.81559,0.00726 1.184272,-0.00114 1.23455,-0.028422 0.07108,-0.038566 0.07183,-0.051159 0.07183,-1.434021 0,-0.7825158 -0.01341,-1.4031658 -0.03049,-1.4138671 -0.01761,-0.011036 -0.03536,0.543562 -0.04237,1.315682 -0.0093,1.0281602 -0.02199,1.3376751 -0.05478,1.3487549 -0.02341,0.00791 -0.04237,0.036663 -0.04237,0.063562 0,0.040954 -0.16225,0.049649 -0.996322,0.054261 -0.547823,0.00303 -1.083965,0.00926 -1.191658,0.013953 l -0.195854,0.00878 V 5.8656588 c 1.13e-4,-0.7636981 0.01397,-1.2649674 0.03721,-1.3518553 0.02031,-0.07595 0.08157,-0.2087362 0.135909,-0.2955892 0.205337,-0.3282002 0.616004,-0.49947 1.00769,-0.4811077 z m 3.64939,0.07028 c 1.010209,-0.00107 1.861194,0.0079 1.891357,0.019637 0.03016,0.011734 0.05478,0.045807 0.05478,0.075964 0,0.030158 0.04114,0.098158 0.09147,0.151412 l 0.09147,0.097152 H 22.722192 20.614827 L 20.718696,4.0394161 C 20.775846,3.9777071 20.83156,3.900732 20.84272,3.868367 20.86149,3.813936 21.001012,3.809192 22.699971,3.807389 Z M 25.7189,4.0823076 c 0.10301,0 0.187587,0.015639 0.187587,0.034623 0,0.018987 -0.08458,0.034623 -0.187587,0.034623 -0.10301,0 -0.187067,-0.015636 -0.187067,-0.034623 0,-0.018984 0.08406,-0.034623 0.187067,-0.034623 z m -0.527099,0.1441771 c 0.09121,-0.00609 0.264246,-0.00461 0.581878,0.00103 0.381773,0.00677 0.716338,0.01952 0.743105,0.028422 0.157526,0.052392 0.356181,0.2813339 0.445452,0.5126302 0.34531,0.8947664 0.826735,2.1766676 0.841292,2.2406902 0.0174,0.07651 0.01161,0.078765 -0.198955,0.069246 -0.119362,-0.0054 -0.635142,-0.014067 -1.146182,-0.01912 -0.7843,-0.00776 -0.932414,-0.017228 -0.948781,-0.060461 -0.01066,-0.028174 -0.0445,-0.05116 -0.07545,-0.05116 -0.03095,0 -0.07531,-0.031272 -0.0987,-0.069246 -0.02404,-0.039033 -0.07968,-0.06873 -0.127641,-0.06873 h -0.08475 V 5.5695563 c 0,-0.6819809 -0.0098,-1.2656152 -0.0217,-1.2970784 -0.0099,-0.026174 -7.73e-4,-0.039903 0.09043,-0.045992 z M 8.7261389,5.5287308 c -3.637e-4,1.43e-4 -6.71e-4,3.802e-4 -0.00103,5.174e-4 3.552e-4,0.0012 6.71e-4,0.0024 0.00103,0.00362 z m 0.2728515,0.4351157 v 0.012402 0.022221 c 0.00619,-0.00615 0.017053,-0.00756 0.017053,-0.017053 0,-0.00957 -0.010785,-0.011276 -0.017053,-0.01757 z m -0.00207,0.387573 c -0.00101,0.010313 -0.0028,0.020105 -0.00465,0.029456 0.014397,-0.0029 0.020847,-0.010661 0.016536,-0.023771 -5.328e-4,-0.00162 -0.010689,-0.00393 -0.011885,-0.00568 z M 2.126542,7.6448808 c -0.00249,0.00629 -0.00468,0.012252 -0.00775,0.016536 0.00706,0.00264 0.00624,-0.00972 0.00775,-0.016536 z m 19.260323,0.5803264 h 1.336353 1.336352 l 0.02015,0.077514 c 0.01129,0.042722 0.02093,0.1980503 0.02119,0.3451987 l 5.16e-4,0.2676839 h -1.379244 -1.379244 l 5.16e-4,-0.1638143 c 1.69e-4,-0.09019 0.0099,-0.2455149 0.0217,-0.3451986 z m -4.538741,0.1379759 h 0.732255 0.732255 v 0.2764691 0.275952 h -0.732255 -0.732255 v -0.275952 z m 1.600419,0 h 0.834574 0.834058 v 0.2764691 0.275952 h -0.834058 -0.834574 v -0.275952 z m 1.745113,0 c 0.01405,5.71e-5 0.02584,0.1245703 0.02584,0.2764691 0,0.1518953 -0.0065,0.275952 -0.01447,0.275952 -0.0079,0 -0.01973,-0.1245291 -0.02584,-0.2764688 -0.0061,-0.1519436 4.23e-4,-0.2760095 0.01447,-0.2759523 z m 5.167642,0 h 0.834576 0.834056 v 0.2764691 0.275952 h -0.834056 -0.834576 v -0.275952 z m 1.810226,0 h 0.661458 0.661458 v 0.2537313 0.2537313 l -0.281117,0.022221 c -0.154518,0.012194 -0.456961,0.022566 -0.67231,0.022738 h -0.391709 l 0.01085,-0.275952 z m 1.42472,0 c 0.01965,0 0.03411,0.1085926 0.03411,0.2568319 0,0.1412809 -0.01538,0.2668011 -0.03411,0.278536 -0.02163,0.01355 -0.03411,-0.080662 -0.03411,-0.2573488 0,-0.1624595 0.01422,-0.2780191 0.03411,-0.2780191 z m -8.292,0.017053 h 0.408761 0.40876 l 0.0098,0.267684 0.0098,0.2676839 H 20.712968 20.28457 l 0.0098,-0.2676839 z m 4.018359,0 h 0.408761 0.40876 l 0.0098,0.267684 0.0098,0.2676839 h -0.428397 -0.428398 l 0.0098,-0.2676839 z m 0.936377,0 c 0.02163,-0.01355 0.03411,0.080662 0.03411,0.2573488 0,0.1624595 -0.01422,0.2780191 -0.03411,0.2780191 -0.01965,0 -0.03359,-0.1085929 -0.03359,-0.2568319 0,-0.1412809 0.01486,-0.2668011 0.03359,-0.278536 z m 8.820133,0.5699912 h 3.86488 3.864883 v 0.5694742 0.5694745 h -3.859199 c -2.122611,0 -3.869447,-0.01008 -3.881932,-0.02274 -0.01249,-0.01266 -0.02274,-0.1361082 -0.02274,-0.2744016 0,-0.18855 0.01305,-0.2586896 0.05168,-0.280603 0.04298,-0.024385 0.04531,-0.060126 0.01653,-0.2139406 -0.01897,-0.1013861 -0.03411,-0.2207398 -0.03411,-0.2656168 z m -0.06201,0.017053 -0.02016,0.1297081 c -0.01101,0.071199 -0.02958,0.1912176 -0.04134,0.2671672 -0.01429,0.092285 -0.0086,0.1384926 0.01705,0.1384926 0.02549,0 0.03824,0.098227 0.03824,0.2930053 V 10.089176 H 20.560042 7.1086665 V 9.7987544 c 0,-0.1865347 0.013878,-0.2954489 0.038757,-0.3038573 0.028871,-0.00976 0.028588,-0.073158 -0.00155,-0.2485636 C 7.1236263,9.1168215 7.1109395,9.0059211 7.1174509,8.99932 7.1239626,8.9927188 13.178948,8.9825168 20.57296,8.9770992 Z M 6.4859658,8.9843338 c 0.6813125,0.00602 0.5694757,0.050723 0.5203816,0.3131592 -0.028774,0.1538147 -0.025927,0.1895556 0.017054,0.2139406 0.039238,0.022263 0.051676,0.094251 0.051676,0.3033405 V 10.089176 H 5.5253008 3.9760412 V 9.536755 8.9848506 h 1.5322061 c 0.435003,0 0.7506153,-0.00252 0.9777185,-5.168e-4 z M 2.784383,8.9848511 H 3.363159 3.9419351 V 9.5367555 10.089177 H 3.363159 2.784383 V 9.5367555 Z M 3.9760414,10.1238 h 1.5492597 1.5497761 v 1.053165 c 0,0.948915 -0.00594,1.052649 -0.055811,1.052649 -0.042717,0 -0.050693,0.02248 -0.035656,0.0987 0.010709,0.0543 0.03012,0.178874 0.042891,0.276469 l 0.023255,0.17725 h -1.536858 -1.536857 v -1.329117 z m 3.1326254,0 h 1.894458 1.8939412 l -0.01912,0.0987 c -0.05334,0.270388 -0.06435,0.453719 -0.02739,0.453719 0.02741,0 0.03824,0.222782 0.03824,0.776697 0,0.553914 -0.01083,0.776696 -0.03824,0.776696 -0.03697,0 -0.02595,0.183331 0.02739,0.453719 l 0.01912,0.0987 H 8.9989907 7.1003986 l 0.019637,-0.0987 c 0.053339,-0.270388 0.064354,-0.453719 0.027388,-0.453719 -0.027708,0 -0.038757,-0.293605 -0.038757,-1.052649 z m 3.8395592,0 h 3.139343 c 2.140404,0 3.132385,0.01147 3.117639,0.03566 -0.01189,0.01951 0.06258,0.188716 0.165881,0.376204 l 0.188103,0.341064 0.0832,0.849044 c 0.0598,0.610726 0.09829,0.872396 0.137976,0.933793 0.03033,0.04694 0.05529,0.09371 0.05529,0.10387 0,0.01016 -1.549678,0.0186 -3.443718,0.0186 h -3.443718 l 0.02325,-0.17725 c 0.01277,-0.0976 0.03166,-0.222169 0.04237,-0.276469 0.01504,-0.07622 0.0071,-0.0987 -0.03566,-0.0987 -0.04944,0 -0.05529,-0.08271 -0.05529,-0.776696 0,-0.69398 0.0059,-0.776697 0.05529,-0.776697 0.04272,0 0.05069,-0.02249 0.03566,-0.0987 -0.01071,-0.0543 -0.0296,-0.178353 -0.04237,-0.275952 z m 20.169312,0 h 2.893363 v 1.329118 1.329117 h -3.20239 c -3.142937,0 -3.201468,-0.0013 -3.167249,-0.06615 0.01917,-0.03632 0.04737,-0.07111 0.06253,-0.07752 0.01516,-0.0064 0.06341,-0.400202 0.106971,-0.874882 l 0.07906,-0.862996 0.185001,-0.340548 c 0.101837,-0.187401 0.177355,-0.362401 0.167433,-0.388607 -0.01525,-0.04028 0.428973,-0.04754 2.875277,-0.04754 z m 10.691338,0 v 1.329118 1.329117 h -3.865915 c -3.067938,0 -3.869447,-0.0091 -3.88245,-0.04341 -0.009,-0.02381 -0.01267,-0.617886 -0.0078,-1.320333 l 0.0093,-1.276924 3.873665,-0.0088 z m -21.604884,0.01757 0.0078,1.091923 c 0.007,1.012532 0.003,1.094401 -0.05219,1.116211 -0.03278,0.01294 -0.446418,0.01929 -0.919324,0.01395 l -0.859896,-0.0098 v -0.268718 -0.2682 l 0.894002,-0.0093 0.894003,-0.0093 0.01809,-0.828373 z m -2.615861,0.01705 h 0.106453 0.10697 v 1.087272 c 0,0.983625 -0.009,1.177456 -0.04909,1.044381 -0.02818,-0.09364 -0.128145,-1.242692 -0.145728,-1.674317 z m 0.281636,0 h 0.221175 0.221692 v 1.104842 1.104325 H 18.11368 c -0.109254,0 -0.208689,-0.01008 -0.221175,-0.02274 -0.01249,-0.01266 -0.02274,-0.509912 -0.02274,-1.104842 z m 0.578776,0 h 0.834574 0.834058 v 0.776697 0.776697 H 19.283117 18.448543 V 10.93512 Z m 2.260844,0 h 0.429431 v 0.712618 c 0,0.638109 0.0061,0.717026 0.05943,0.758093 0.07597,0.05847 2.935279,0.07013 3.041675,0.0124 0.06191,-0.03359 0.06563,-0.07891 0.06563,-0.759127 v -0.723987 h 0.426331 0.42633 l -0.0093,1.096057 -0.0088,1.096057 -0.962215,0.0093 c -0.52919,0.005 -0.959056,-0.003 -0.95498,-0.01757 0.02912,-0.103836 -0.285548,-0.449561 -0.435116,-0.478007 -0.186322,-0.03543 -0.416271,0.137495 -0.5302,0.398425 l -0.04599,0.104903 h -0.945162 -0.945162 v -1.050065 c 0,-0.577554 -0.0093,-1.074291 -0.02067,-1.104325 -0.01817,-0.04802 0.03128,-0.05478 0.408761,-0.05478 z m 0.633553,0 h 1.396297 1.396298 v 0.703833 0.703833 l -0.11989,0.02274 c -0.06589,0.01253 -0.276558,0.01807 -0.468188,0.0124 -0.191631,-0.0057 -0.766044,-0.01407 -1.276408,-0.01912 l -0.928109,-0.0093 v -0.707451 z m 3.918107,0 c 0.01782,0 0.0351,0.352472 0.04031,0.820105 l 0.0088,0.819588 0.874882,0.0093 0.874366,0.0093 0.01085,0.312125 c 0.006,0.1716 -4.22e-4,0.32673 -0.01447,0.344682 -0.01405,0.01795 -0.0075,0.01691 0.01498,-0.0021 0.02248,-0.01898 0.160351,-0.03462 0.306442,-0.03462 h 0.265616 v -0.512114 c 0,-0.281763 0.01042,-0.794653 0.02274,-1.139465 l 0.02222,-0.626835 h 0.07958 c 0.07874,0 0.07971,0.0047 0.07906,0.371036 -3.66e-4,0.204111 -0.03073,0.674131 -0.0677,1.044381 -0.03697,0.37025 -0.0677,0.746968 -0.0677,0.837158 v 0.163814 h -1.940967 c -1.918283,0 -1.940966,-4.91e-4 -1.940966,-0.06873 0,-0.06674 0.02268,-0.06925 0.679029,-0.06925 0.373472,0 0.687054,-0.01347 0.697115,-0.02997 0.01006,-0.0165 0.01957,-0.529392 0.02119,-1.139465 0.0017,-0.647706 0.01638,-1.108976 0.03462,-1.108976 z m 0.100251,0 h 0.834576 0.834056 v 0.776697 0.776697 H 26.195874 25.361298 V 10.93512 Z m 1.805058,0 h 0.204122 0.204122 v 1.104842 1.104325 H 27.370478 27.166356 V 11.263265 Z M 6.3459228,10.806445 c -0.00433,-5.7e-5 -0.00911,2.95e-4 -0.013436,5.18e-4 -4.906e-4,0 -0.00141,1.71e-4 -0.00207,5.17e-4 l -5.159e-4,5.17e-4 c 0.00656,-9.37e-4 0.014749,7.69e-4 0.020671,-0.0015 -0.00156,-2.8e-5 -0.00309,1.6e-5 -0.00465,0 z M 2.804537,11.694763 2.792651,11.962447 c -0.0091,0.209842 -0.022379,0.267167 -0.062528,0.267167 -0.039028,0 -0.046818,0.0266 -0.032039,0.112138 0.010662,0.06171 0.032713,0.186279 0.048576,0.276469 l 0.028939,0.163814 -0.157613,0.0062 -0.1570965,0.0062 0.1617474,0.01292 0.1617471,0.01292 v 0.584977 0.584978 H 2.6309041 c -0.084282,0 -0.153479,0.01563 -0.153479,0.03462 0,0.01899 0.063741,0.03462 0.1410767,0.03462 h 0.1405598 l -0.023771,0.209289 c -0.012857,0.115203 -0.031562,0.2317 -0.041858,0.258899 -0.011461,0.03028 0.00267,0.04961 0.036173,0.04961 0.048783,0 0.055432,0.105753 0.062528,0.975134 l 0.00775,0.975134 0.00982,-0.975134 c 0.0078,-0.792817 0.018291,-0.975134 0.055811,-0.975134 0.046299,0 0.045142,-0.01591 -0.028422,-0.422713 l -0.017053,-0.09509 H 3.24482 c 0.2605027,0 0.4247803,-0.01345 0.4247803,-0.03462 0,-0.02117 -0.1647433,-0.03462 -0.4258139,-0.03462 H 2.8179726 v -0.586528 -0.587044 l 0.4345989,-0.0078 0.4340821,-0.0072 -0.4376994,-0.01085 c -0.4352085,-0.01076 -0.4372822,-0.01125 -0.4180623,-0.08888 0.04858,-0.196238 0.063502,-0.472323 0.025838,-0.472323 -0.025031,0 -0.041047,-0.09431 -0.045475,-0.267167 z m 7.58765,0.103353 c -0.0047,0.0054 -0.01008,0.01009 -0.0155,0.01499 0.0062,-9.43e-4 0.01093,-0.0068 0.01602,-0.01189 -1.97e-4,-10e-4 -3.3e-4,-0.0021 -5.16e-4,-0.0031 z m 12.359969,0.120923 c 0.0597,-1.14e-4 0.22244,0.152941 0.434599,0.409277 l 0.0894,0.108521 -0.566374,-0.0021 c -0.401537,-0.0017 -0.546434,-0.01275 -0.498161,-0.03721 0.03746,-0.01898 0.109576,-0.103168 0.160197,-0.187068 0.09536,-0.158051 0.268988,-0.291227 0.380338,-0.291455 z m 10.764717,0.424264 c -0.0062,0.0034 -0.0043,0.01297 0,0.02429 z m 0.271819,0.04547 c 0.0053,0.01878 0.004,0.03898 -10e-4,0.05736 4.23e-4,-0.01103 7.61e-4,-0.02203 10e-4,-0.03307 2.82e-4,-0.0081 0,-0.0162 0,-0.02429 z m -15.645557,0.04806 c 0.229307,0 0.237935,0.0032 0.203089,0.06925 -0.02004,0.03797 -0.04961,0.06873 -0.06615,0.06873 -0.01654,0 -0.05051,0.0053 -0.07545,0.01189 -0.09114,0.02394 -0.219418,-0.0164 -0.259933,-0.08217 -0.03975,-0.06453 -0.03101,-0.0677 0.198437,-0.0677 z m 0.57981,0 c 0.06223,0 0.06866,0.01798 0.05943,0.163814 -0.0103,0.162695 -0.01111,0.16448 -0.13901,0.175183 l -0.129191,0.01034 0.06925,-0.130742 c 0.03812,-0.07211 0.06925,-0.150651 0.06925,-0.174666 0,-0.02402 0.0318,-0.04392 0.07028,-0.04392 z m 0.100252,0 h 0.170016 0.170532 v 0.155546 0.155029 h -0.170532 -0.170016 v -0.155029 z m 0.374655,0 h 0.997871 c 0.730619,0 1.008257,0.011 1.03818,0.04134 0.02248,0.02279 0.04134,0.100451 0.04134,0.172599 v 0.131258 h -1.038696 -1.038696 v -0.172599 z m -1.420586,0.01292 c 0.0036,-0.0036 0.008,0.0012 0.01344,0.01499 0.0098,0.02492 0.0087,0.05468 -0.0026,0.06615 -0.01132,0.01147 -0.01957,-0.0086 -0.01809,-0.04496 8.17e-4,-0.0201 0.0037,-0.03254 0.0072,-0.03617 z m 4.621424,0.0217 h 0.323494 0.323495 v 0.137976 0.137976 H 22.722184 22.39869 v -0.137976 z m 0.909505,0.06046 c 0.0081,0.04272 0.0081,0.112308 0,0.15503 -0.0081,0.04272 -0.01499,0.0079 -0.01499,-0.07752 0,-0.08544 0.0069,-0.120236 0.01499,-0.07752 z m 10.10171,0.03462 c -0.0028,0.0012 -0.0055,0.0024 -0.0083,0.0036 0.0029,-0.0011 0.0066,-0.0025 0.0083,-0.0036 z m -8.658904,0.07751 c 0.146141,0 0.170803,0.0094 0.16123,0.06046 -0.0085,0.04552 -0.05095,0.06287 -0.172599,0.0708 -0.143543,0.0094 -0.16123,0.0026 -0.16123,-0.06046 0,-0.06224 0.021,-0.0708 0.172599,-0.0708 z m 0.933793,0 c 0.709439,0 0.732254,0.0023 0.732254,0.06925 0,0.0669 -0.02282,0.06873 -0.732254,0.06873 -0.709434,0 -0.732255,-0.0018 -0.732255,-0.06873 0,-0.0669 0.02282,-0.06925 0.732255,-0.06925 z m 0.972552,0 c 0.07741,0 0.100249,0.01585 0.100249,0.06925 0,0.05339 -0.02284,0.06873 -0.100249,0.06873 -0.104685,0 -0.156782,-0.04453 -0.120925,-0.103353 0.01158,-0.01899 0.06584,-0.03462 0.120925,-0.03462 z m -2.291851,0.0067 c 0.116465,0.0076 0.161747,0.02524 0.161747,0.06253 0,0.03729 -0.04528,0.05443 -0.161747,0.06201 -0.145132,0.0094 -0.161747,0.0033 -0.161747,-0.06201 0,-0.06534 0.01661,-0.07197 0.161747,-0.06253 z m 2.469617,0.0067 c 0.0074,-0.0044 0.02052,0.0032 0.04186,0.02119 0.0281,0.02364 0.05064,0.05672 0.05064,0.07338 0,0.01666 -0.02255,0.02997 -0.05064,0.02997 -0.02936,0 -0.05116,-0.03127 -0.05116,-0.07338 0,-0.03061 0.0019,-0.04675 0.0093,-0.05116 z m -0.361735,0.0124 c 0.0094,0.02373 0.0094,0.06256 0,0.0863 -0.0094,0.02373 -0.01705,0.0046 -0.01705,-0.04289 0,-0.04747 0.0076,-0.06714 0.01705,-0.04341 z m 7.605736,0.146761 h 3.86488 3.864883 v 0.587044 0.586528 h -3.864883 -3.86488 v -0.586528 z m -30.1030716,0.01137 15.0171716,0.0031 15.017688,0.0026 v 0.578259 0.57826 H 18.993212 3.9760412 v -0.580844 z m 20.6023606,1.193209 0.161747,0.01034 0.161747,0.01085 0.0093,0.509013 0.0093,0.509012 H 24.749448 24.578399 V 14.54105 Z m -11.649418,0.0031 2.921268,0.0088 2.921786,0.0093 0.0093,0.733288 0.0093,0.733806 h 0.203605 0.203606 v -0.742591 -0.742073 h 1.072285 1.072286 l 0.08113,0.130741 c 0.04478,0.0719 0.129232,0.226453 0.187586,0.343648 l 0.105936,0.213424 0.280604,0.0098 0.280086,0.01034 0.02842,0.147795 0.02894,0.147794 0.396875,-0.0098 0.396875,-0.0098 0.02842,-0.145211 0.02791,-0.145211 0.279569,-0.01033 0.279053,-0.0098 0.172083,-0.328146 0.172599,-0.327628 h 0.219108 0.219625 l 0.0093,0.543636 0.0093,0.543636 h 0.203606 0.203088 V 14.57728 14.024859 h 0.732255 0.732254 v 0.621667 c 0,0.568773 0.0049,0.621094 0.05943,0.621151 0.05312,5.7e-5 0.05882,-0.03465 0.05064,-0.31936 -0.01191,-0.414551 0.0014,-0.463394 0.145727,-0.524516 0.06522,-0.02763 0.120301,-0.07038 0.122472,-0.09508 0.0022,-0.0247 0.0075,-0.06059 0.01189,-0.07958 0.0044,-0.01899 0.01059,-0.07697 0.01344,-0.129191 l 0.0052,-0.09508 h 3.592545 3.592545 v 0.63872 c 0,0.451352 -0.01107,0.638721 -0.03824,0.638721 -0.03697,0 -0.02596,0.18333 0.02739,0.453719 l 0.01912,0.0987 H 23.47666 12.933634 l 0.01705,-0.09508 c 0.07448,-0.411894 0.07564,-0.428116 0.02842,-0.446484 -0.06826,-0.02656 -0.06877,-0.735872 -5.16e-4,-0.735872 0.03704,0 0.04097,-0.03371 0.01809,-0.163815 -0.01586,-0.09019 -0.03789,-0.214653 -0.04858,-0.276468 z M 3.9760414,14.0248 H 8.439335 c 4.234377,0 4.462207,0.0031 4.44624,0.06046 -0.0093,0.03323 -0.02666,0.130564 -0.03876,0.216007 -0.0121,0.08544 -0.0295,0.182263 -0.03876,0.215491 -0.01089,0.0391 0.0021,0.06046 0.03669,0.06046 0.04504,0 0.05323,0.05587 0.05323,0.358635 0,0.273836 -0.01103,0.363234 -0.04703,0.377238 -0.04721,0.01837 -0.04658,0.03459 0.02791,0.446484 l 0.01757,0.09509 H 8.4362342 3.9760412 v -0.91519 z m 14.8471556,0 h 0.170016 0.170532 v 0.72502 0.725021 H 18.993213 18.823197 V 14.74982 Z m 22.985679,0 v 0.914673 0.91519 H 37.93986 34.070328 l 0.02325,-0.177767 c 0.01277,-0.0976 0.03166,-0.221653 0.04237,-0.275952 0.01512,-0.07666 0.0069,-0.0987 -0.03669,-0.0987 -0.05039,0 -0.05485,-0.06404 -0.04651,-0.629936 l 0.0093,-0.629936 3.873665,-0.0088 z M 26.64701,14.0315 c 0.109996,-0.01075 0.110585,-0.01007 0.110585,0.143661 0,0.144498 -0.0084,0.15899 -0.12764,0.218074 -0.12195,0.06041 -0.128872,0.07246 -0.147793,0.270268 -0.01356,0.14173 -0.01964,0.07099 -0.01964,-0.224276 0,-0.316097 0.0059,-0.376004 0.0217,-0.224275 l 0.02119,0.206705 0.0155,-0.189652 c 0.01491,-0.185267 0.0181,-0.189949 0.126092,-0.200505 z m -5.192449,0.02584 c 0.01702,-0.0058 0.05395,0.02423 0.07648,0.06976 0.01849,0.03736 0.0845,0.170849 0.146761,0.296623 0.06227,0.125778 0.105502,0.236468 0.09612,0.24598 -0.0094,0.0095 -0.04366,-0.0342 -0.07597,-0.09767 -0.03231,-0.06347 -0.102191,-0.197545 -0.155546,-0.297657 -0.05335,-0.100108 -0.09715,-0.189371 -0.09715,-0.198437 0,-0.01066 0.0036,-0.01668 0.0093,-0.0186 z m 1.256254,0.0021 h 0.319361 l -0.02532,0.375171 c -0.01402,0.206457 -0.04073,0.416253 -0.05943,0.466121 -0.03136,0.08362 -0.04978,0.09095 -0.233577,0.09095 h -0.198955 l -0.04289,-0.388607 c -0.02343,-0.213604 -0.05054,-0.4234 -0.06046,-0.466121 -0.01773,-0.07633 -0.01261,-0.07752 0.301273,-0.07752 z m -0.509529,0.01447 c 0.0025,-0.0043 0.01116,0.01427 0.02791,0.05323 0.02011,0.0468 0.03051,0.132543 0.02325,0.190169 -0.0078,0.06192 -0.01538,0.07436 -0.0186,0.03101 -0.003,-0.04035 -0.01339,-0.12557 -0.02325,-0.189652 -0.0082,-0.05335 -0.01183,-0.08049 -0.0093,-0.08475 z m 1.792138,0.02584 c 0.01148,0.007 -0.01622,0.06638 -0.100769,0.22531 -0.09155,0.172076 -0.208612,0.343209 -0.160713,0.235127 0.08519,-0.192224 0.213994,-0.436791 0.237711,-0.451651 0.01198,-0.0075 0.01995,-0.01111 0.02377,-0.0088 z m -11.511958,0.426331 c -0.0013,7.92e-4 -0.0023,0.0017 -0.0036,0.0026 0.0038,0.0066 0.003,0.02744 0.0041,0.03411 0.002,0.01221 0.0039,0.01981 0.0062,0.02739 9.56e-4,-0.01791 9.17e-4,-0.03563 -0.0036,-0.05219 -7.39e-4,-0.004 -0.0022,-0.0079 -0.0031,-0.01189 z m 9.892936,0.340548 c 0.0036,-0.0036 0.008,0.0012 0.01344,0.01499 0.0098,0.02492 0.0087,0.05467 -0.0026,0.06615 -0.01132,0.01147 -0.01956,-0.0091 -0.01809,-0.04548 8.18e-4,-0.02011 0.0037,-0.03203 0.0072,-0.03566 z m 4.101041,0.09922 c 0.0078,0.05221 0.0078,0.137437 0,0.189652 -0.0078,0.05222 -0.01395,0.0093 -0.01395,-0.09508 0,-0.104426 0.0061,-0.146783 0.01395,-0.09457 z m 22.612575,0.898653 c -0.04214,0.0082 -0.0078,0.01499 0.07648,0.01499 0.08428,0 0.118624,-0.0068 0.07648,-0.01499 -0.04214,-0.0082 -0.110819,-0.0082 -0.152961,0 z" />
    <text
       xml:space="preserve"
       style="font-style:normal;font-variant:normal;font-weight:300;font-stretch:normal;font-size:2.75px;line-height:1.3;font-family:Boston;-inkscape-font-specification:'Boston, Light';font-variant-ligatures:normal;font-variant-caps:normal;font-variant-numeric:normal;font-variant-east-asian:normal;letter-spacing:0px;fill:#000000;fill-opacity:1;stroke:#000000;stroke-width:0.072;stroke-linecap:round;stroke-dasharray:none;stroke-dashoffset:0;stroke-opacity:1"
       x="-11.746484"
       y="48.758026"
       id="text8"
       transform="rotate(-90)"><tspan
         sodipodi:role="line"
         id="tspan8"
         style="font-size:2.75px;fill:#000000;fill-opacity:1;stroke-width:0.072"
         x="-11.746484"
         y="48.758026">16.8</tspan></text>
    <text
       xml:space="preserve"
       style="font-style:normal;font-variant:normal;font-weight:300;font-stretch:normal;font-size:2.75px;line-height:1.3;font-family:Boston;-inkscape-font-specification:'Boston, Light';font-variant-ligatures:normal;font-variant-caps:normal;font-variant-numeric:normal;font-variant-east-asian:normal;letter-spacing:0px;fill:#000000;fill-opacity:1;stroke:#000000;stroke-width:0.072;stroke-linecap:round;stroke-dasharray:none;stroke-dashoffset:0;stroke-opacity:1"
       x="-12.761003"
       y="33.822414"
       id="text8-1"
       transform="rotate(-90)"><tspan
         sodipodi:role="line"
         id="tspan8-3"
         style="font-size:2.75px;fill:#000000;fill-opacity:1;stroke-width:0.072"
         x="-12.761003"
         y="33.822414">9</tspan></text>
    <text
       xml:space="preserve"
       style="font-style:normal;font-variant:normal;font-weight:300;font-stretch:normal;font-size:2.75px;line-height:1.3;font-family:Boston;-inkscape-font-specification:'Boston, Light';font-variant-ligatures:normal;font-variant-caps:normal;font-variant-numeric:normal;font-variant-east-asian:normal;letter-spacing:0px;fill:#000000;fill-opacity:1;stroke:#000000;stroke-width:0.072;stroke-linecap:round;stroke-dasharray:none;stroke-dashoffset:0;stroke-opacity:1"
       x="-18.091469"
       y="12.597547"
       id="text8-3"
       transform="rotate(-90)"><tspan
         sodipodi:role="line"
         id="tspan8-7"
         style="font-size:2.75px;fill:#000000;fill-opacity:1;stroke-width:0.072"
         x="-18.091469"
         y="12.597547">2.4</tspan></text>
    <text
       xml:space="preserve"
       style="font-style:normal;font-variant:normal;font-weight:300;font-stretch:normal;font-size:2.75px;line-height:1.3;font-family:Boston;-inkscape-font-specification:'Boston, Light';font-variant-ligatures:normal;font-variant-caps:normal;font-variant-numeric:normal;font-variant-east-asian:normal;letter-spacing:0px;fill:#000000;fill-opacity:1;stroke:#000000;stroke-width:0.072;stroke-linecap:round;stroke-dasharray:none;stroke-dashoffset:0;stroke-opacity:1"
       x="-13.247346"
       y="13.22371"
       id="text8-3-5"
       transform="rotate(-90)"><tspan
         sodipodi:role="line"
         id="tspan8-7-8"
         style="font-size:2.75px;fill:#000000;fill-opacity:1;stroke-width:0.072"
         x="-13.247346"
         y="13.22371">3.5</tspan></text>
    <text
       xml:space="preserve"
       style="font-style:normal;font-variant:normal;font-weight:300;font-stretch:normal;font-size:2.75px;line-height:1.3;font-family:Boston;-inkscape-font-specification:'Boston, Light';font-variant-ligatures:normal;font-variant-caps:normal;font-variant-numeric:normal;font-variant-east-asian:normal;letter-spacing:0px;fill:#000000;fill-opacity:1;stroke:#000000;stroke-width:0.072;stroke-linecap:round;stroke-dasharray:none;stroke-dashoffset:0;stroke-opacity:1"
       x="-7.6060724"
       y="11.481015"
       id="text8-3-6"
       transform="rotate(-90)"><tspan
         sodipodi:role="line"
         style="font-size:2.75px;fill:#000000;fill-opacity:1;stroke-width:0.072"
         x="-7.6060724"
         y="11.481015"
         id="tspan9">7.8</tspan></text>
    <text
       xml:space="preserve"
       style="font-style:normal;font-variant:normal;font-weight:300;font-stretch:normal;font-size:2.75px;line-height:1.3;font-family:Boston;-inkscape-font-specification:'Boston, Light';font-variant-ligatures:normal;font-variant-caps:normal;font-variant-numeric:normal;font-variant-east-asian:normal;letter-spacing:0px;fill:#000000;fill-opacity:1;stroke:#000000;stroke-width:0.072;stroke-linecap:round;stroke-dasharray:none;stroke-dashoffset:0;stroke-opacity:1"
       x="-11.769234"
       y="6.8543115"
       id="text8-3-1"
       transform="rotate(-90)"><tspan
         sodipodi:role="line"
         id="tspan8-7-6"
         style="font-size:2.75px;fill:#000000;fill-opacity:1;stroke-width:0.072"
         x="-11.769234"
         y="6.8543115">5</tspan></text>
    <text
       xml:space="preserve"
       style="font-style:normal;font-variant:normal;font-weight:300;font-stretch:normal;font-size:2.75px;line-height:1.3;font-family:Boston;-inkscape-font-specification:'Boston, Light';font-variant-ligatures:normal;font-variant-caps:normal;font-variant-numeric:normal;font-variant-east-asian:normal;letter-spacing:0px;fill:#000000;fill-opacity:1;stroke:#000000;stroke-width:0.072;stroke-linecap:round;stroke-dasharray:none;stroke-dashoffset:0;stroke-opacity:1"
       x="-8.1667843"
       y="2.4905884"
       id="text8-3-4"
       transform="rotate(-90)"><tspan
         sodipodi:role="line"
         id="tspan8-7-80"
         style="font-size:2.75px;fill:#000000;fill-opacity:1;stroke-width:0.072"
         x="-8.1667843"
         y="2.4905884">1.5</tspan></text>
    <text
       xml:space="preserve"
       style="font-style:normal;font-variant:normal;font-weight:300;font-stretch:normal;font-size:2.75px;line-height:1.3;font-family:Boston;-inkscape-font-specification:'Boston, Light';font-variant-ligatures:normal;font-variant-caps:normal;font-variant-numeric:normal;font-variant-east-asian:normal;letter-spacing:0px;fill:#000000;fill-opacity:1;stroke:#000000;stroke-width:0.072;stroke-linecap:round;stroke-dasharray:none;stroke-dashoffset:0;stroke-opacity:1"
       x="-18.346996"
       y="2.436692"
       id="text8-3-59"
       transform="rotate(-90)"><tspan
         sodipodi:role="line"
         id="tspan8-7-2"
         style="font-size:2.75px;fill:#000000;fill-opacity:1;stroke-width:0.072"
         x="-18.346996"
         y="2.436692">1.6</tspan></text>
  </g>
</svg>
