<svg version="1.1" xmlns="http://www.w3.org/2000/svg" xmlns:xlink="http://www.w3.org/1999/xlink" width="453" height="80" viewBox="0,0,453,80"><g id="1 cm. Tick Group" fill="none" fill-rule="nonzero" stroke="none" stroke-width="none" stroke-linecap="butt" stroke-linejoin="miter" stroke-miterlimit="10" stroke-dasharray="" stroke-dashoffset="0" font-family="none" font-weight="none" font-size="none" text-anchor="none" style="mix-blend-mode: normal"><path d="M0,0v30.23622" id="1 cm. Tick no. 0" fill="none" stroke="#000000" stroke-width="1"/><text x="4" y="31.23622" id="1 cm. label no. 0" fill="#000000" stroke="none" stroke-width="1" font-family="monospace" font-weight="bold" font-size="7" text-anchor="start">0</text><path d="M37.79528,0v30.23622" id="1 cm. Tick no. 1" fill="none" stroke="#000000" stroke-width="1"/><text x="41.79528" y="31.23622" id="1 cm. label no. 1" fill="#000000" stroke="none" stroke-width="1" font-family="monospace" font-weight="bold" font-size="7" text-anchor="start">1</text><path d="M75.59055,0v30.23622" id="1 cm. Tick no. 2" fill="none" stroke="#000000" stroke-width="1"/><text x="79.59055" y="31.23622" id="1 cm. label no. 2" fill="#000000" stroke="none" stroke-width="1" font-family="monospace" font-weight="bold" font-size="7" text-anchor="start">2</text><path d="M113.38583,0v30.23622" id="1 cm. Tick no. 3" fill="none" stroke="#000000" stroke-width="1"/><text x="117.38583" y="31.23622" id="1 cm. label no. 3" fill="#000000" stroke="none" stroke-width="1" font-family="monospace" font-weight="bold" font-size="7" text-anchor="start">3</text><path d="M151.1811,0v30.23622" id="1 cm. Tick no. 4" fill="none" stroke="#000000" stroke-width="1"/><text x="155.1811" y="31.23622" id="1 cm. label no. 4" fill="#000000" stroke="none" stroke-width="1" font-family="monospace" font-weight="bold" font-size="7" text-anchor="start">4</text><path d="M188.97638,0v30.23622" id="1 cm. Tick no. 5" fill="none" stroke="#000000" stroke-width="1"/><text x="192.97638" y="31.23622" id="1 cm. label no. 5" fill="#000000" stroke="none" stroke-width="1" font-family="monospace" font-weight="bold" font-size="7" text-anchor="start">5</text><path d="M226.77165,0v30.23622" id="1 cm. Tick no. 6" fill="none" stroke="#000000" stroke-width="1"/><text x="230.77165" y="31.23622" id="1 cm. label no. 6" fill="#000000" stroke="none" stroke-width="1" font-family="monospace" font-weight="bold" font-size="7" text-anchor="start">6</text><path d="M264.56693,0v30.23622" id="1 cm. Tick no. 7" fill="none" stroke="#000000" stroke-width="1"/><text x="268.56693" y="31.23622" id="1 cm. label no. 7" fill="#000000" stroke="none" stroke-width="1" font-family="monospace" font-weight="bold" font-size="7" text-anchor="start">7</text><path d="M302.3622,0v30.23622" id="1 cm. Tick no. 8" fill="none" stroke="#000000" stroke-width="1"/><text x="306.3622" y="31.23622" id="1 cm. label no. 8" fill="#000000" stroke="none" stroke-width="1" font-family="monospace" font-weight="bold" font-size="7" text-anchor="start">8</text><path d="M340.15748,0v30.23622" id="1 cm. Tick no. 9" fill="none" stroke="#000000" stroke-width="1"/><text x="344.15748" y="31.23622" id="1 cm. label no. 9" fill="#000000" stroke="none" stroke-width="1" font-family="monospace" font-weight="bold" font-size="7" text-anchor="start">9</text><path d="M377.95276,0v30.23622" id="1 cm. Tick no. 10" fill="none" stroke="#000000" stroke-width="1"/><text x="381.95276" y="31.23622" id="1 cm. label no. 10" fill="#000000" stroke="none" stroke-width="1" font-family="monospace" font-weight="bold" font-size="7" text-anchor="start">10</text><path d="M415.74803,0v30.23622" id="1 cm. Tick no. 11" fill="none" stroke="#000000" stroke-width="1"/><text x="419.74803" y="31.23622" id="1 cm. label no. 11" fill="#000000" stroke="none" stroke-width="1" font-family="monospace" font-weight="bold" font-size="7" text-anchor="start">11</text><path d="M453.54331,0v30.23622" id="1 cm. Tick no. 12" fill="none" stroke="#000000" stroke-width="1"/><text x="449.54331" y="31.23622" id="1 cm. label no. 12" fill="#000000" stroke="none" stroke-width="1" font-family="monospace" font-weight="bold" font-size="7" text-anchor="end">12</text></g><g id="1/2 cm. Tick Group" fill="none" fill-rule="nonzero" stroke="#000000" stroke-width="1" stroke-linecap="butt" stroke-linejoin="miter" stroke-miterlimit="10" stroke-dasharray="" stroke-dashoffset="0" font-family="none" font-weight="none" font-size="none" text-anchor="none" style="mix-blend-mode: normal"><path d="M18.89764,0v21.16535" id="1/2 cm. Tick no. 1"/><path d="M56.69291,0v21.16535" id="1/2 cm. Tick no. 3"/><path d="M94.48819,0v21.16535" id="1/2 cm. Tick no. 5"/><path d="M132.28346,0v21.16535" id="1/2 cm. Tick no. 7"/><path d="M170.07874,0v21.16535" id="1/2 cm. Tick no. 9"/><path d="M207.87402,0v21.16535" id="1/2 cm. Tick no. 11"/><path d="M245.66929,0v21.16535" id="1/2 cm. Tick no. 13"/><path d="M283.46457,0v21.16535" id="1/2 cm. Tick no. 15"/><path d="M321.25984,0v21.16535" id="1/2 cm. Tick no. 17"/><path d="M359.05512,0v21.16535" id="1/2 cm. Tick no. 19"/><path d="M396.85039,0v21.16535" id="1/2 cm. Tick no. 21"/><path d="M434.64567,0v21.16535" id="1/2 cm. Tick no. 23"/></g><g id="1/4 cm. Tick Group" fill="none" fill-rule="nonzero" stroke="#000000" stroke-width="1" stroke-linecap="butt" stroke-linejoin="miter" stroke-miterlimit="10" stroke-dasharray="" stroke-dashoffset="0" font-family="none" font-weight="none" font-size="none" text-anchor="none" style="mix-blend-mode: normal"><path d="M9.44882,0v14.81575" id="1/4 cm. Tick no. 1"/><path d="M28.34646,0v14.81575" id="1/4 cm. Tick no. 3"/><path d="M47.24409,0v14.81575" id="1/4 cm. Tick no. 5"/><path d="M66.14173,0v14.81575" id="1/4 cm. Tick no. 7"/><path d="M85.03937,0v14.81575" id="1/4 cm. Tick no. 9"/><path d="M103.93701,0v14.81575" id="1/4 cm. Tick no. 11"/><path d="M122.83465,0v14.81575" id="1/4 cm. Tick no. 13"/><path d="M141.73228,0v14.81575" id="1/4 cm. Tick no. 15"/><path d="M160.62992,0v14.81575" id="1/4 cm. Tick no. 17"/><path d="M179.52756,0v14.81575" id="1/4 cm. Tick no. 19"/><path d="M198.4252,0v14.81575" id="1/4 cm. Tick no. 21"/><path d="M217.32283,0v14.81575" id="1/4 cm. Tick no. 23"/><path d="M236.22047,0v14.81575" id="1/4 cm. Tick no. 25"/><path d="M255.11811,0v14.81575" id="1/4 cm. Tick no. 27"/><path d="M274.01575,0v14.81575" id="1/4 cm. Tick no. 29"/><path d="M292.91339,0v14.81575" id="1/4 cm. Tick no. 31"/><path d="M311.81102,0v14.81575" id="1/4 cm. Tick no. 33"/><path d="M330.70866,0v14.81575" id="1/4 cm. Tick no. 35"/><path d="M349.6063,0v14.81575" id="1/4 cm. Tick no. 37"/><path d="M368.50394,0v14.81575" id="1/4 cm. Tick no. 39"/><path d="M387.40157,0v14.81575" id="1/4 cm. Tick no. 41"/><path d="M406.29921,0v14.81575" id="1/4 cm. Tick no. 43"/><path d="M425.19685,0v14.81575" id="1/4 cm. Tick no. 45"/><path d="M444.09449,0v14.81575" id="1/4 cm. Tick no. 47"/></g></svg>