<?xml version="1.0" encoding="UTF-8" standalone="no"?>
<!-- Created with Inkscape (http://www.inkscape.org/) -->

<svg
   version="1.1"
   id="svg1"
   width="1024"
   height="1024"
   viewBox="0 0 1024 1024"
   sodipodi:docname="The unit logo.svg"
   inkscape:version="1.3.2 (091e20e, 2023-11-25)"
   xmlns:inkscape="http://www.inkscape.org/namespaces/inkscape"
   xmlns:sodipodi="http://sodipodi.sourceforge.net/DTD/sodipodi-0.dtd"
   xmlns="http://www.w3.org/2000/svg"
   xmlns:svg="http://www.w3.org/2000/svg">
  <defs
     id="defs1" />
  <sodipodi:namedview
     id="namedview1"
     pagecolor="#505050"
     bordercolor="#eeeeee"
     borderopacity="1"
     inkscape:showpageshadow="0"
     inkscape:pageopacity="0"
     inkscape:pagecheckerboard="0"
     inkscape:deskcolor="#d1d1d1"
     inkscape:zoom="0.94472904"
     inkscape:cx="509.66995"
     inkscape:cy="524.48901"
     inkscape:window-width="1944"
     inkscape:window-height="1262"
     inkscape:window-x="0"
     inkscape:window-y="53"
     inkscape:window-maximized="0"
     inkscape:current-layer="g1" />
  <g
     inkscape:groupmode="layer"
     inkscape:label="Image"
     id="g1">
    <path
       style="fill:#000000"
       d="M 0,512 V 0 h 512 512 v 512 512 H 512 0 Z m 558,380.41993 c 65.54178,-7.03832 132.84008,-33.61997 183,-72.28179 29.9866,-23.11281 58.5958,-52.64598 79.28633,-81.84697 36.45571,-51.45072 59.14996,-109.46048 68.76281,-175.7676 2.92094,-20.14791 2.65904,-68.24993 -0.50368,-92.51025 C 886.26821,452.5452 881.72199,430.05951 877.01834,413 c -5.08079,-18.42735 -13.00771,-41.12461 -14.12206,-40.4359 -0.46999,0.29047 -2.44842,3.2477 -4.39652,6.57162 l -3.542,6.0435 3.4526,10.67992 c 8.36157,25.86494 14.90757,55.15096 18.24832,81.64086 2.50431,19.85748 2.4962,61.87087 -0.0155,80.5 -9.20973,68.30675 -33.91865,129.21378 -73.63139,181.5 -41.88847,55.15081 -96.24855,95.39503 -162.11511,120.01813 C 583.67191,880.91064 519.50167,887.11694 461,876.91706 399.43627,866.18331 335.05417,836.69729 287.5,797.45671 269.41353,782.53218 243.64615,755.0242 228.24589,734.19995 207.34687,705.94028 187.90012,667.91953 176.71341,633.44776 158.36811,576.91682 153.59965,519.00928 162.5708,461.70184 c 5.29226,-33.80678 18.21641,-76.18205 32.48774,-106.51971 l 3.91286,-8.31786 -1.94608,-3.81463 c -1.07034,-2.09805 -2.07641,-6.11558 -2.2357,-8.92786 -0.15929,-2.81227 -0.54422,-5.11515 -0.85539,-5.1175 -0.80003,-0.006 -10.29248,19.35268 -16.17927,32.99572 -6.37908,14.78396 -16.74843,45.98179 -20.6072,62 -9.82121,40.76913 -13.38671,76.68503 -11.29713,113.79805 5.54726,98.52478 45.10801,185.93884 114.4688,252.93205 57.27817,55.32301 143.67181,94.81219 223.68057,102.24086 23.53475,2.18516 50.38183,1.98524 74,-0.55103 z m 1.4308,-39.47992 c 6.48564,-2.42659 12.11553,-7.44915 15.10236,-13.47317 2.9975,-6.04554 2.52348,-19.06271 -1.47359,-40.46684 -1.79741,-9.625 -3.55861,-17.77549 -3.91379,-18.11219 -0.35518,-0.3367 -3.94656,-0.13584 -7.98086,0.44637 l -7.33507,1.05857 0.41867,4.05362 c 0.23027,2.2295 1.71273,12.61967 3.29436,23.08927 l 2.87568,19.03565 -2.00977,3.87273 c -5.30616,10.22473 -19.91694,9.989 -25.15879,-0.40591 -1.80782,-3.58502 -2.2508,-6.13983 -2.25406,-13 -0.002,-4.69596 -0.29754,-14.29267 -0.65624,-21.32603 l -0.65219,-12.78792 -7.92144,0.28792 -7.92144,0.28792 0.11032,22 c 0.11066,22.06577 0.70621,26.98162 4.05782,33.49438 6.65867,12.93897 24.78793,18.16774 41.41803,11.94563 z M 465.47286,849.75 c 1.81002,-7.97036 2.34863,-11.22981 1.95968,-11.85916 -0.24366,-0.39425 -2.26218,-1.02416 -4.4856,-1.3998 -5.04181,-0.85181 -23.8517,-6.06247 -24.60532,-6.81609 -0.8996,-0.8996 1.98332,-10.86241 3.28812,-11.36311 0.6559,-0.25169 6.07004,0.71006 12.03141,2.13722 5.96137,1.42717 11.80343,2.80652 12.98237,3.06522 2.32897,0.51107 2.67803,-0.26004 3.85414,-8.51428 l 0.64119,-4.5 -12.31942,-3.38196 c -6.77569,-1.86007 -12.62977,-3.55735 -13.00908,-3.77172 -0.55003,-0.31085 1.77385,-10.17062 2.61218,-11.08298 0.1196,-0.13016 6.42799,1.12781 14.01865,2.79548 7.59065,1.66768 13.96052,2.87281 14.15526,2.67808 0.43456,-0.43456 3.33947,-14.13432 3.05696,-14.41683 -0.11136,-0.11136 -5.59143,-1.41055 -12.17793,-2.88709 -6.58651,-1.47654 -16.22988,-3.96109 -21.42971,-5.52123 -5.19983,-1.56013 -9.53228,-2.74101 -9.62767,-2.62418 -1.10611,1.35481 -20.22578,66.29461 -19.67313,66.81963 1.59146,1.51186 41.61073,12.52909 46.48599,12.7975 1.02131,0.0562 1.94042,-0.82713 2.24191,-2.1547 z M 613.5,842.0092 c 2.75,-0.934 5.12831,-2.35395 5.28514,-3.15544 0.15683,-0.80149 -2.43067,-9.24036 -5.75,-18.75304 C 609.71581,810.58803 607,802.61696 607,802.38723 c 0,-0.53734 21.29083,15.15088 30.79902,22.69435 l 7.29902,5.79079 6.67742,-2.99596 c 3.67258,-1.64778 6.82359,-3.14212 7.00224,-3.32077 0.17865,-0.17866 -3.70888,-9.93926 -8.63896,-21.69023 C 645.20866,791.11443 639.19426,776.775 636.77341,771 c -2.85999,-6.82259 -4.90445,-10.44422 -5.83748,-10.34073 -1.15651,0.12827 -11.3818,4.13157 -12.80155,5.01192 -0.43406,0.26915 0.0252,1.55192 7.1884,20.07881 3.03028,7.8375 5.20982,14.24361 4.84341,14.23581 -0.3664,-0.008 -6.96619,-4.98925 -14.66619,-11.06988 -7.7,-6.08062 -15.42373,-12.17308 -17.16385,-13.53878 l -3.16385,-2.48311 -5.83615,1.66369 c -3.20988,0.91503 -6.14419,1.95138 -6.52069,2.30298 -0.3765,0.35161 0.81599,5.36429 2.64997,11.13929 9.55073,30.07421 16.74194,52.41522 17.58734,54.6388 1.02945,2.70766 0.53321,2.73757 10.44723,-0.6296 z M 407.292,799.56083 c 7.5394,-17.29155 13.70245,-31.80405 13.69568,-32.25 -0.0136,-0.89689 -13.87855,-6.75329 -14.50506,-6.12678 -0.9839,0.9839 -10.45547,21.46232 -10.46824,22.63334 -0.01,0.90665 -0.71589,1.09799 -2.26438,0.61372 -3.49359,-1.09259 -20.75,-9.61275 -20.75,-10.24508 0,-0.30991 2.51361,-5.91493 5.5858,-12.45561 3.07219,-6.54069 5.43469,-11.98653 5.25,-12.10189 C 378.73282,746.4413 371.06695,742 370.66864,742 c -0.29144,0 -5.13808,8.6625 -10.7703,19.25 -5.63221,10.5875 -12.86343,23.89621 -16.06937,29.57491 C 340.62304,796.50362 338,801.30252 338,801.48914 c 0,0.18662 2.3625,1.79213 5.25,3.56779 2.8875,1.77566 6.1944,3.84639 7.34866,4.60162 2.00811,1.3139 2.36733,0.87819 8.32629,-10.09924 l 6.22763,-11.47239 11.42371,5.68642 C 382.85933,796.90087 388,799.80033 388,800.2166 c 0,0.41626 -2.45965,5.97142 -5.46589,12.3448 l -5.46589,11.58796 7.21589,3.36013 c 3.96874,1.84808 7.68479,3.38947 8.25789,3.42532 0.57311,0.0359 7.21061,-14.08244 14.75,-31.37398 z m 277.51411,10.07074 c 0.16836,-0.79903 -1.57545,-5.20551 -3.87513,-9.79217 -4.90471,-9.78236 -21.09872,-40.46408 -24.57708,-46.56456 l -2.40909,-4.22516 -6.21161,3.44277 c -3.41638,1.89352 -6.36593,3.90575 -6.55456,4.47162 -0.33045,0.99135 25.76553,52.9687 29.30843,58.37586 l 1.73634,2.64999 6.1383,-3.45278 c 3.37606,-1.89903 6.27604,-4.10654 6.4444,-4.90557 z m 27.48855,-16.33316 c 2.08706,-1.44281 3.59203,-3.11269 3.34438,-3.71085 -0.97868,-2.36384 -35.78619,-54.10671 -36.58696,-54.38809 -0.63346,-0.22259 -10.10683,5.17756 -12.84272,7.32079 -0.54683,0.42838 4.17804,7.99403 20.48837,32.80679 l 16.31972,24.82705 2.74127,-2.1162 c 1.50771,-1.16392 4.44887,-3.29669 6.53594,-4.73949 z m -403.88063,-16.9854 c 1.05271,-1.44328 7.53874,-10.54164 14.41339,-20.21858 6.87465,-9.67693 12.64636,-17.77746 12.82603,-18.00115 0.17966,-0.2237 4.19941,2.17053 8.93276,5.32051 4.73335,3.14999 8.72124,5.58301 8.86198,5.40673 C 355.58194,746.14788 361,737.24858 361,736.41647 c 0,-0.61062 -4.8375,-4.42554 -10.75,-8.4776 -5.9125,-4.05205 -16.24063,-11.53543 -22.9514,-16.62972 l -12.20139,-9.26236 -5.02704,5.22661 c -2.76486,2.87463 -5.03673,5.73458 -5.0486,6.35544 -0.0119,0.62086 3.46593,3.72173 7.72843,6.89082 4.2625,3.16909 8.11696,6.08807 8.56546,6.48662 0.4485,0.39855 -5.79964,10.04597 -13.88477,21.4387 -12.46701,17.56722 -14.48986,20.92002 -13.31546,22.06982 2.86428,2.80431 10.42326,8.38308 11.38477,8.40233 0.55,0.011 1.86131,-1.16084 2.91403,-2.60412 z m 442.81806,-11.61427 5.73209,-5.2094 -7.73209,-9.08929 c -10.10977,-11.88431 -23.66287,-28.42399 -23.99032,-29.27686 -0.14203,-0.36992 2.89547,-3.34721 6.75,-6.61621 3.85453,-3.26899 6.9978,-6.40788 6.98505,-6.9753 -0.0265,-1.17846 -8.72538,-10.5363 -9.78182,-10.52279 -0.38225,0.005 -3.395,2.32271 -6.695,5.15073 -8.57935,7.35228 -17.82426,14.56973 -26.73366,20.87082 -4.25351,3.00826 -7.74101,5.85927 -7.75,6.33558 -0.0139,0.73635 5.73889,9.28215 8.08791,12.01464 0.41639,0.48437 3.93139,-1.42813 7.8111,-4.25 3.87971,-2.82186 7.39841,-5.11426 7.81934,-5.09422 0.42092,0.0201 2.03191,1.70755 3.57997,3.75 6.97776,9.2062 28.28487,34.11433 29.18534,34.11782 0.55,0.002 3.57944,-2.34035 6.73209,-5.20552 z M 551.0995,754.48505 c 17.45665,-2.62194 29.85299,-5.4495 42.6505,-9.72841 L 606,740.66079 v -36.19976 -36.19977 l -3.94352,-4.95285 c -5.2711,-6.62023 -11.83843,-11.59975 -21.84212,-16.56127 -7.23314,-3.58741 -9.34595,-4.16506 -16.63291,-4.54753 -12.64995,-0.66395 -20.44058,2.65153 -24.40697,10.38694 -0.58844,1.1476 -1.56051,7.8976 -2.16014,15 -2.70156,31.99865 -7.08435,79.32147 -7.72531,83.41345 l -0.70488,4.5 -0.71894,-6.5 c -1.14589,-10.3601 -5.5947,-55.84263 -7.38492,-75.5 -1.00492,-11.03449 -2.24343,-19.2795 -3.20051,-21.30645 -3.25379,-6.89101 -10.62433,-10.20092 -24.74841,-11.11385 l -8.96863,-0.5797 9.96863,-2.78005 c 19.89481,-5.54825 36.21664,-16.49165 42.89335,-28.75896 2.76205,-5.07481 2.8399,-5.6007 2.27334,-15.35787 -1.09886,-18.92444 -7.72066,-35.53815 -21.4298,-53.76612 -15.36921,-20.43523 -39.31052,-38.58024 -61.38165,-46.52087 -6.00905,-2.16191 -9.1583,-2.66143 -16.88661,-2.67846 -11.77664,-0.026 -18.07638,2.37009 -24.03768,9.14247 -2.72697,3.09801 -3.96232,3.95558 -3.96232,2.75063 0,-3.19243 -6.41601,-13.85154 -11.2433,-18.67883 C 395.36864,479.46388 384.15244,472 381.94642,472 381.42589,472 381,471.50186 381,470.89301 c 0,-0.64963 0.72302,-0.82282 1.75,-0.41917 0.9625,0.37829 5.8,0.92423 10.75,1.21319 8.3144,0.48536 9.26662,0.34294 12.5,-1.86953 5.74367,-3.93016 8.37601,-9.86307 8.326,-18.76561 -0.0233,-4.15354 -0.76289,-10.23273 -1.64345,-13.50932 -2.48826,-9.25888 -1.08166,-8.90984 5.7239,1.42035 6.50322,9.87125 10.48183,14.10007 15.25042,16.20947 12.1562,5.37733 29.4903,2.01353 40.39602,-7.83914 C 478.93614,442.92153 484,432.68326 484,427.22187 c 0,-6.3623 -2.939,-14.14027 -5.92241,-15.67346 C 476.65992,410.81986 458.175,404.05485 437,396.51506 c -32.83501,-11.69157 -39.6209,-13.78772 -46.1178,-14.24571 -6.69481,-0.47195 -8.28497,-0.23157 -13.1243,1.98395 -6.80919,3.11735 -8.55344,5.56479 -20.48728,28.7467 -26.81434,52.08781 -34.28491,67.1055 -36.17975,72.73026 -3.73264,11.08017 -2.389,22.62351 3.6539,31.39101 3.01769,4.37829 23.91364,28.59165 57.42439,66.54103 28.12672,31.85221 41.62485,46.47854 47.47466,51.44267 5.73357,4.86549 14.29518,9.53283 19.33608,10.54101 3.2726,0.65452 4.15082,2.35402 1.21644,2.35402 -3.81381,0 -12.30776,5.35303 -17.65011,11.12341 L 427,665.114 v 36.74218 36.74219 l 12.25,4.14517 c 23.98977,8.11771 42.75435,11.93353 67.25,13.67545 9.59151,0.68207 34.32221,-0.39031 44.5995,-1.93394 z M 241.17327,704.27803 c 7.75343,-6.34396 31.55581,-27.28812 34.18998,-30.08441 l 2.86325,-3.03947 -5.76628,-8.82708 c -31.50003,-48.22059 -48.20167,-111.55658 -44.47666,-168.6645 1.62129,-24.85597 4.64523,-42.15171 11.65033,-66.63531 2.43483,-8.51001 4.30077,-16.02758 4.14654,-16.7057 -0.15424,-0.67813 -7.21001,-9.35726 -15.67949,-19.28695 -13.64356,-15.99583 -15.53764,-17.85339 -16.61469,-16.2943 -2.13664,3.09291 -10.21116,25.36289 -14.92637,41.16777 -11.65416,39.06352 -16.91445,82.90463 -14.58925,121.59192 2.8596,47.57864 13.18876,88.01058 33.46697,131.00143 C 221.57158,681.50578 235.91974,707 237.10461,707 c 0.40807,0 2.23897,-1.22489 4.06866,-2.72197 z m 564.84863,-8.47444 c 27.93286,-49.2181 43.97802,-98.2524 48.97205,-149.65954 2.31134,-23.79224 0.64773,-59.2779 -4.07291,-86.87747 -2.74326,-16.03867 -8.10651,-37.38804 -9.42104,-37.50211 -1.00086,-0.0869 -28.85868,40.5244 -32.4906,47.36494 -1.64674,3.10155 -1.78607,4.41049 -0.958,9 0.53295,2.95382 1.24573,15.04559 1.58394,26.87059 1.02685,35.90201 -3.33425,62.16501 -16.35641,98.5 -5.56487,15.52733 -20.43022,45.3504 -29.07011,58.32086 C 760.79397,666.94733 758,671.52322 758,671.9895 c 0,1.20925 39.61961,34.95744 41.08378,34.99537 0.32109,0.008 3.44324,-5.02326 6.93812,-11.18128 z m -212.55686,-61.3365 c 22.335,-5.81753 37.41563,-26.97999 39.2233,-55.04159 l 0.58457,-9.07449 -8.88646,-5.58757 C 604.92049,552.52374 579.45854,541.56266 557.5,535.96957 c -8.06691,-2.05474 -11.07646,-2.47486 -11.28675,-1.5756 -0.15772,0.67443 0.44025,3.89919 1.32882,7.16613 2.27225,8.35429 3.04116,26.95104 1.47948,35.78266 -1.19225,6.74242 -3.68267,14.46112 -7.36263,22.81941 -1.59426,3.62106 -1.57124,3.74438 2.05045,10.98372 9.50333,18.99603 29.81319,28.51556 49.75567,23.3212 z M 728.13455,561.6475 c 2.34334,-1.53542 6.10922,-7.55815 30.10554,-48.1475 28.94072,-48.95272 58.29461,-98.07598 67.52381,-113 C 839.12228,378.8989 868,329.93364 868,328.88417 c 0,-1.78364 -13.08399,-8.6265 -115.16296,-60.22962 l -48.66296,-24.60018 -8.96309,15.22282 C 686.20315,274.576 684,278.50922 684,279.2918 c 0,0.23281 2.71964,0.70755 6.04365,1.05497 7.17617,0.75006 19.50269,5.66307 25.29742,10.08286 6.01062,4.58445 13.34988,14.13859 15.76913,20.52802 1.18539,3.1307 2.32916,9.08638 2.62855,13.68707 l 0.53003,8.14473 13.73236,7.10527 c 7.5528,3.90791 13.99748,7.10528 14.3215,7.10528 0.32403,0 2.3938,-3.0375 4.5995,-6.75 2.2057,-3.7125 4.41235,-7.3493 4.90367,-8.08177 0.70655,-1.05336 2.59511,-0.47613 9.03375,2.76116 4.47724,2.25111 8.14044,4.35594 8.14044,4.6774 0,0.32146 -0.84229,1.77894 -1.87175,3.23884 -1.02947,1.4599 -3.04649,4.98618 -4.48229,7.83617 l -2.61053,5.18179 10.23229,5.46855 c 5.62775,3.00771 11.9146,6.16328 13.97078,7.01238 l 3.7385,1.54381 4.14686,-7.19416 c 2.28077,-3.95679 5.62423,-9.66917 7.4299,-12.69417 1.80567,-3.025 3.43226,-6.02828 3.61464,-6.67395 0.41725,-1.47717 1.63622,-0.83223 -67.14398,-35.52511 -31.63843,-15.9585 -57.68297,-29.16323 -57.87675,-29.34386 -0.58683,-0.54699 9.28832,-17.44338 10.19898,-17.45048 1.40837,-0.011 125.75129,62.58681 137.40335,69.17278 2.8875,1.63207 5.25,3.11338 5.25,3.29181 0,0.17842 -1.80791,3.30029 -4.01759,6.93749 -5.06306,8.33396 -20.21995,34.51245 -28.71251,49.59132 -3.5623,6.325 -6.83063,11.95 -7.26296,12.5 -0.43233,0.55 -6.6112,11.125 -13.73083,23.5 -7.11963,12.375 -19.83364,34.2 -28.25336,48.5 -8.41971,14.3 -17.66818,30.05 -20.55215,35 -18.2205,31.27342 -25.74467,43.554 -27.17571,44.35485 -0.89471,0.5007 -2.82133,0.56776 -4.28139,0.14902 -5.90293,-1.69294 -102.90062,-51.57157 -108.5135,-55.80034 -3.3,-2.48624 -8.25,-6.63982 -11,-9.23018 -4.02552,-3.79183 -13.73643,-9.1383 -49.82593,-27.43229 -24.65425,-12.4974 -44.96144,-22.56921 -45.12708,-22.3818 -0.16563,0.18741 -1.23851,2.20011 -2.38417,4.47268 l -2.08301,4.13195 5.71009,3.01495 c 3.14056,1.65823 9.0851,4.79866 13.2101,6.97875 4.125,2.18009 22.8,11.75428 41.5,21.27599 31.83743,16.21105 46.15452,24.43536 49.44983,28.40597 0.76531,0.92214 12.22718,7.09932 25.47082,13.72706 13.24364,6.62774 27.67935,13.97346 32.07935,16.32382 4.4,2.35036 17.89381,9.32306 29.98624,15.4949 19.6571,10.03275 22.41845,11.1728 26.06607,10.76166 2.24391,-0.25292 5.20591,-1.19769 6.58224,-2.09949 z m -7.60045,-35.50739 c 3.79152,-6.20554 3.83826,-6.39568 1.92586,-7.83486 C 719.37041,515.98019 691.18554,502 689.58765,502 688.22497,502 678,518.57155 678,520.78003 c 0,1.18758 20.01764,12.0143 28.72289,15.53503 l 5.77711,2.33649 2.07413,-3.07578 c 1.14078,-1.69167 3.82276,-5.93772 5.95997,-9.43566 z m -51.72112,-25.36123 c 6.87268,-11.47826 7.20382,-12.29788 5.5,-13.6132 C 672.81589,486.00995 628.34669,464 627.50873,464 c -0.14427,0 -2.85334,4.3875 -6.02014,9.75 -3.1668,5.3625 -6.62427,11.19683 -7.68325,12.96518 l -1.92542,3.21519 20.31004,10.16946 c 19.10024,9.56369 25.95395,12.66879 28.31004,12.82595 0.55,0.0367 4.29084,-5.42942 8.31298,-12.1469 z m 65.83909,-2.54419 c 1.0047,-0.64071 5.54499,-8.0474 14.07577,-22.96219 1.3299,-2.32513 2.19526,-4.58791 1.92303,-5.02839 -0.27224,-0.44049 -8.0123,-4.58444 -17.20013,-9.20877 -16.0997,-8.10315 -16.75709,-8.33771 -18.13792,-6.47161 C 712.89343,457.83337 700,481.69938 700,482.90809 c 0,1.29183 29.34752,16.10008 31.86118,16.0766 0.90135,-0.008 2.15725,-0.34592 2.79089,-0.75 z M 611.76908,462.55856 c 2.93056,-4.83699 5.19389,-8.92654 5.02961,-9.08791 -0.16428,-0.16136 -8.16978,-4.17187 -17.79001,-8.91224 -16.26787,-8.01601 -17.5825,-8.49434 -18.79508,-6.83863 -2.01138,2.74641 -9.40636,16.42877 -9.03935,16.7248 3.14843,2.53945 33.10846,17.57003 34.29615,17.20596 0.53371,-0.16361 3.36812,-4.255 6.29868,-9.09198 z M 693.6397,461.25 C 700.22775,450.6818 704,443.68527 704,442.03435 c 0,-0.57493 -5.18098,-3.62428 -11.5133,-6.77633 -9.62015,-4.78866 -11.79886,-5.53312 -13.25,-4.52748 -10.82964,7.50498 -21.173,10.84476 -30.80169,9.94562 -5.86637,-0.54781 -6.12452,-0.47178 -7.75174,2.28287 -0.9258,1.56726 -1.68327,3.35659 -1.68327,3.97629 0,1.02395 45.11608,23.78726 47.53085,23.98168 0.56696,0.0457 3.76595,-4.3045 7.10885,-9.667 z m 68.69995,-15.5 C 764.60003,442.74101 777,422.22073 777,421.4891 777,420.95661 743.85681,403.80755 743.52485,404.16827 742.51739,405.26306 727,433.84595 727,434.6069 c 0,1.59348 26.26964,14.2735 29.69911,14.33538 2.47785,0.0447 3.74954,-0.67501 5.64054,-3.19228 z m -201.91096,-5.07107 c 1.87212,-2.92659 4.76907,-7.98731 6.43767,-11.24605 l 3.03382,-5.92497 -7.52869,-3.69522 c -8.04802,-3.95012 -12.24377,-6.83882 -17.35042,-11.94547 -2.5753,-2.5753 -3.37548,-2.9226 -4.10748,-1.7828 C 538.87011,409.26632 527,430.94836 527,431.49909 527,432.13857 554.96013,446 556.25003,446 c 0.42614,0 2.30654,-2.39448 4.17866,-5.32107 z m 64.01461,-3.90144 C 626.29305,434.1366 626.41632,433 624.85299,433 c -2.04696,0 -9.76174,-7.00484 -13.01051,-11.81323 -1.74162,-2.57773 -3.30779,-4.8634 -3.48037,-5.07927 -0.17258,-0.21588 -0.97883,0.15945 -1.79168,0.83405 -0.81285,0.6746 -4.23827,2.70139 -7.61206,4.50398 l -6.13415,3.27742 14.10965,7.13853 c 7.76031,3.92618 14.52434,7.13852 15.03119,7.13852 0.50684,0 1.62205,-1.00013 2.47824,-2.22251 z M 516.4217,418.15547 c 1.89577,-3.76449 4.72443,-9.05199 6.28592,-11.75 1.56149,-2.69801 3.38209,-6.14446 4.04579,-7.65878 l 1.20673,-2.75331 -14.02685,-7.0268 c -7.71476,-3.86474 -14.34329,-6.82023 -14.73006,-6.56777 -0.38678,0.25247 -2.25896,3.37705 -4.16041,6.94352 l -3.45718,6.48448 4.27886,4.64202 c 4.99875,5.423 9.11184,13.66128 9.12573,18.2783 0.008,2.70107 0.55631,3.48615 3.25977,4.66843 1.7875,0.78171 3.58184,1.458 3.98743,1.50287 0.40558,0.0449 2.28851,-2.99847 4.18427,-6.76296 z M 716.29739,419.75 c 1.30994,-2.3375 4.75513,-8.44675 7.656,-13.57611 l 5.27429,-9.32612 -2.32171,-1.67388 c -1.27694,-0.92064 -5.85077,-3.53606 -10.16407,-5.81205 -7.827,-4.13006 -7.84491,-4.13397 -9.14549,-2 C 703.10311,394.73434 693,413.20965 693,414.05392 693,415.13832 710.49447,424 712.63527,424 c 0.70423,0 2.35219,-1.9125 3.66212,-4.25 z M 662.584,417.95588 c 2.24619,-1.08546 5.02103,-2.98209 6.1663,-4.21472 4.31069,-4.63952 41.84769,-76.84696 43.3642,-83.41684 0.93739,-4.06102 0.85266,-5.92547 -0.4772,-10.50001 -5.2937,-18.20969 -30.36589,-24.40091 -43.33243,-10.70032 -2.9219,3.08731 -26.58348,46.99605 -38.58279,71.59798 -4.23148,8.67571 -4.97799,11.07404 -4.93503,15.85477 0.16099,17.91663 20.80202,29.59184 37.79695,21.37914 z m -329.1407,-6.17839 c 2.20327,-3.14561 1.94975,-4.42931 -1.1933,-6.04218 -1.5125,-0.77614 -5.675,-2.99864 -9.25,-4.93889 -3.575,-1.94025 -9.875,-5.33078 -14,-7.5345 -36.34966,-19.4193 -89.22344,-48.0414 -92.25,-49.93758 -4.22136,-2.64475 -4.56746,-4.00433 -1.89381,-7.43948 1.91582,-2.46148 14.40778,-24.15377 51.18619,-88.88486 11.71855,-20.625 27.30297,-48.02774 34.63204,-60.89497 C 308.00349,173.23779 314,162.32529 314,161.85503 c 0,-1.32147 3.33076,-1.01083 5.52749,0.51551 1.08488,0.75379 8.6756,4.81939 16.86828,9.03465 l 14.89576,7.66411 3.35424,-6.05187 C 356.49059,169.6889 358,166.57022 358,166.08702 c 0,-1.38719 -8.04634,-6.06608 -28.01775,-16.29215 l -18.51776,-9.48174 -11.63648,20.09343 c -10.52688,18.17741 -39.13281,68.398 -74.10195,130.09344 -7.17005,12.65 -14.90113,26.15 -17.18017,30 -5.87413,9.92322 -6.88147,12.83036 -6.28365,18.13427 0.66282,5.88048 2.91138,8.11684 13.73776,13.66326 16.1029,8.2496 68.54815,36.56197 90.98658,49.11875 C 319.3542,408.33732 330.01618,414 330.67987,414 c 0.6637,0 1.90724,-1.00013 2.76343,-2.22251 z m 258.26519,-9.63867 c 2.08533,-1.0693 4.7616,-3.00048 5.94726,-4.2915 1.18566,-1.29103 13.44816,-24.71655 27.25,-52.05672 23.40437,-46.36189 25.09359,-50.06567 25.08448,-55 -0.0196,-10.6333 -7.68826,-20.86884 -18.26804,-24.38287 -9.57243,-3.17945 -21.66193,-0.4645 -27.83391,6.25069 -1.43645,1.56287 -13.54895,24.47572 -26.91667,50.91745 -23.79472,47.06663 -24.30494,48.20337 -24.30494,54.1492 0,11.31506 7.89942,22.45095 18.30271,25.80151 5.79428,1.86615 15.68396,1.20438 20.73911,-1.38776 z m 196.35563,-1.42024 c 4.38326,-6.21731 9.06574,-14.9378 8.63024,-16.07267 -0.27106,-0.70637 -15.79818,-9.021 -34.50471,-18.47696 l -34.01188,-17.19266 -1.9621,3.26186 c -1.07916,1.79402 -3.48166,6.09193 -5.33889,9.55091 -3.28942,6.12635 -3.32565,6.32038 -1.40039,7.5 2.96146,1.81449 65.94486,33.69056 66.52361,33.66778 0.275,-0.0108 1.20385,-1.01805 2.06412,-2.23826 z M 344,395.95343 c 0,-1.17881 11.99281,-21.31822 15.42378,-25.901 1.41959,-1.89617 2.24248,-3.78023 1.82865,-4.18681 C 360.83859,365.45904 346.775,358.08332 330,349.47513 313.225,340.86695 289.12989,328.48743 276.45532,321.9651 l -23.04468,-11.85879 -8.77577,16.04306 c -4.82667,8.82369 -8.61449,16.20434 -8.41737,16.40146 2.298,2.298 105.99228,55.43755 106.98331,54.82506 C 343.64037,397.10423 344,396.46413 344,395.95343 Z m 136.42026,-14.2281 3.49591,-6.2034 -2.38634,-2.51096 c -1.31249,-1.38103 -3.88113,-4.41352 -5.70809,-6.73886 -2.80035,-3.56427 -6.2058,-5.65067 -21.69604,-13.29237 -10.10586,-4.98546 -18.46128,-8.93291 -18.56759,-8.77211 C 433.72608,346.97869 422,368.37213 422,368.9435 c 0,0.87446 10.90357,5.10209 33,12.79504 18.4079,6.40878 20.34385,7.00734 21.21218,6.55839 0.39169,-0.20251 2.28533,-3.15974 4.20808,-6.5716 z M 411.07171,355.25 c 2.88438,-5.3625 6.34932,-11.50951 7.69987,-13.66003 l 2.45556,-3.91004 -2.36357,-1.79951 c -1.29996,-0.98973 -12.13495,-6.78848 -24.07776,-12.88611 l -21.71418,-11.08661 -3.66635,7.29615 c -2.0165,4.01288 -5.63261,10.76804 -8.03582,15.01146 -2.4032,4.24342 -4.36946,7.98531 -4.36946,8.31531 0,1.13173 40.67604,20.46937 43.08881,20.48469 1.32615,0.008 3.08619,0.45153 3.91119,0.98469 0.825,0.53316 1.57366,0.97627 1.66369,0.98469 0.09,0.008 2.52364,-4.37219 5.40802,-9.73469 z M 525.5,362.62258 c 2.75,-1.29684 5.95802,-3.42995 7.12894,-4.74023 1.94197,-2.17313 13.44766,-24.3144 39.95183,-76.88235 8.5954,-17.04797 9.88193,-20.26483 10.23128,-25.58241 0.3174,-4.83118 -0.0558,-6.99115 -1.81403,-10.5 -6.30572,-12.58396 -20.79507,-19.4742 -33.48213,-15.92204 -9.63745,2.69832 -10.87302,4.57007 -36.41177,55.15966 -25.60917,50.7291 -26.00804,51.80886 -22.7119,61.48249 4.2303,12.41526 13.33178,19.13526 26.10778,19.27645 4.328,0.0478 7.39333,-0.59075 11,-2.29157 z m -54.2476,-47.27138 3.60749,-7.07867 -2.9012,-2.14495 -2.9012,-2.14495 -1.43292,2.25868 c -2.79063,4.39885 -14.624,25.99719 -14.5864,26.62321 0.021,0.34951 3.05849,2.02045 6.75,3.71319 l 6.71183,3.07772 0.57245,-8.61278 c 0.48259,-7.26068 1.13879,-9.72403 4.17995,-15.69145 z M 348.55907,325.25 c 2.59656,-4.8125 6.21035,-11.45274 8.03064,-14.75608 l 3.30961,-6.00609 -19.49163,-9.86862 c -10.72039,-5.42773 -19.79424,-9.56599 -20.16411,-9.19612 -1.45467,1.45466 -16.03707,29.10203 -15.66618,29.70214 0.21732,0.35163 7.93881,4.30114 17.15886,8.77667 9.22006,4.47554 17.43874,8.55205 18.26374,9.05891 2.93299,1.80198 3.89321,0.93692 8.55907,-7.71081 z m 94.67063,-8.00985 c 2.60133,-4.80708 6.31468,-11.50792 8.25189,-14.89076 l 3.52221,-6.15061 -6.7519,-3.61077 C 434.54605,285.25842 413.77667,274.89 413.45157,275.2151 c -0.18438,0.18438 -3.92832,6.84269 -8.31986,14.79623 -5.92123,10.72399 -7.71063,14.79111 -6.9244,15.73847 1.01545,1.22354 38.30189,20.26069 39.64305,20.24035 0.3573,-0.005 2.778,-3.94292 5.37934,-8.75 z m -152.20487,-8.74309 c 0.83865,-1.64838 4.77615,-8.90806 8.75,-16.13262 3.97384,-7.22457 7.18752,-13.52457 7.14149,-14 -0.046,-0.47544 -6.10578,-3.90936 -13.46614,-7.63093 l -13.38246,-6.7665 -1.4054,2.2665 C 274.83465,272.4064 261,298.03237 261,298.94947 c 0,0.57779 0.5625,1.07987 1.25,1.11572 0.6875,0.0359 6.425,2.70338 12.75,5.92782 6.325,3.22444 12.175,5.78128 13,5.68186 0.825,-0.0994 2.18617,-1.52942 3.02483,-3.17781 z M 387.57877,290.25 c 2.6083,-4.8125 6.28568,-11.58223 8.17196,-15.04384 1.88628,-3.46161 3.21104,-6.86341 2.9439,-7.55955 -0.41367,-1.078 -37.32328,-20.7104 -40.19463,-21.37971 -0.55,-0.1282 -4.73578,6.80102 -9.30173,15.39827 -5.97648,11.25314 -7.99733,15.93577 -7.21494,16.71816 1.08284,1.08284 38.91398,20.43205 40.18487,20.55305 0.36751,0.035 2.80227,-3.87388 5.41057,-8.68638 z m 97.18659,-3 c 1.04585,-1.5125 3.39251,-5.39517 5.2148,-8.62815 3.159,-5.60447 3.22554,-5.93037 1.42912,-7 -2.59839,-1.54714 -29.543,-15.46824 -84.40928,-43.61057 -25.575,-13.11808 -54.35089,-27.92372 -63.94643,-32.90141 -9.59553,-4.97769 -17.52198,-8.95124 -17.61434,-8.83011 -1.5108,1.98152 -9.43923,16.47055 -9.43923,17.24998 0,0.58936 10.9125,6.63186 24.25,13.42779 13.3375,6.79593 26.5,13.57162 29.25,15.05709 2.75,1.48547 28.625,14.75459 57.5,29.48692 28.875,14.73234 52.9275,27.17136 53.45,27.64227 1.51969,1.36963 2.29364,1.02998 4.31536,-1.89381 z m 190.32599,-18.43169 c 5.30148,-10.54411 6.88447,-15.90462 6.89783,-23.35821 0.0319,-17.81071 -11.07086,-36.57609 -27.44333,-46.38339 -21.26551,-12.73829 -47.50364,-13.85737 -80.86175,-3.44882 -9.21606,2.87564 -19.6841,7.30053 -19.6841,8.32056 0,0.37143 4.00904,1.95654 8.90898,3.52246 7.45542,2.38261 9.37251,2.66393 11.75,1.72424 4.28345,-1.69302 17.92841,-4.89832 26.03257,-6.11526 33.48635,-5.02836 60.25782,8.94674 66.89488,34.92011 1.86634,7.30368 1.52237,17.8135 -0.80263,24.5241 -1.29408,3.73511 -1.22391,4.39941 0.97714,9.25 1.30424,2.87425 2.56156,5.2259 2.79404,5.2259 0.23248,0 2.27385,-3.68176 4.53637,-8.18169 z M 796,274.19833 c 0,-1.55154 -24.33754,-26.35301 -35.8514,-36.53481 -34.51125,-30.51858 -63.70074,-49.8319 -102.34504,-67.71693 -64.08481,-29.65918 -127.62952,-44.61894 -174.15438,-40.99959 -18.99603,1.47777 -49.01884,6.8024 -59.79702,10.60516 -4.17432,1.47279 -4.32517,1.44738 -8.30187,-1.398 -5.80302,-4.15216 -19.26431,-10.73266 -25.61595,-12.52226 -5.65068,-1.59211 -11.92823,-2.15364 -20.39863,-1.82469 -4.30736,0.16728 -4.77051,0.38025 -3.5,1.60944 1.1287,1.09197 29.008,15.78488 52.67766,27.7621 1.74485,0.88292 3.86166,0.66228 10,-1.04232 23.92267,-6.64325 40.85874,-9.21401 64.94177,-9.85765 33.2442,-0.88847 61.3766,4.03607 103.84486,18.17789 66.43881,22.12395 112.99011,49.10293 161.54856,93.62607 9.75595,8.94521 13.75047,11.94945 17.54199,13.19316 2.7002,0.88573 7.83445,2.96535 11.40945,4.62137 7.01212,3.24818 8,3.53232 8,2.30106 z M 335.76884,255.73459 c 4.54786,-8.35671 8.06417,-15.72738 7.81401,-16.37927 -0.25015,-0.65189 -9.00851,-5.49793 -19.46303,-10.76897 l -19.0082,-9.58372 -5.72928,10.24868 c -3.15111,5.63678 -7.24502,12.89239 -9.0976,16.12357 -1.85257,3.23118 -3.23701,6.00557 -3.07653,6.1653 0.59637,0.59357 39.17546,19.45846 39.72275,19.42412 0.31297,-0.0196 4.29002,-6.873 8.83788,-15.22971 z m 166.65095,-8.37814 c 4.68122,-9.1181 5.98992,-7.45699 -13.78917,-17.50233 -11.48176,-5.83131 -14.08454,-6.8124 -15.11918,-5.69902 -2.59219,2.78946 -7.81358,13.94172 -6.92186,14.78426 1.11297,1.05158 30.32982,16.06236 31.25194,16.05635 0.36217,-0.002 2.42238,-3.44003 4.57827,-7.63926 z M 655.86552,250 c -7.04121,-4.72472 -45.17903,-20.01982 -46.53578,-18.66308 -0.21568,0.21569 0.85939,1.18762 2.38905,2.15985 1.52967,0.97223 5.03121,3.42509 7.78121,5.4508 3.43749,2.53213 6.87501,4.04274 11,4.83391 3.3,0.63294 10.275,3.33234 15.5,5.99867 8.45164,4.31287 9.64351,4.67526 10.80048,3.28385 1.09746,-1.31984 0.9515,-1.79817 -0.93496,-3.064 z m -200.92685,-26.74651 4.05918,-7.74651 -2.11233,-1.59333 c -1.16179,-0.87634 -7.88609,-4.60747 -14.94291,-8.2914 l -12.83057,-6.69807 -4.48803,7.74341 c -2.46842,4.25887 -4.25052,8.12771 -3.96022,8.59742 0.36842,0.59613 26.69606,14.32644 30.02596,15.65905 0.10436,0.0418 2.01637,-3.40999 4.24892,-7.67057 z m 62.52845,0.95257 c 2.18908,-2.44468 3.45479,-4.64469 2.93894,-5.10838 C 519.90773,218.64974 487.1,201.96344 447.5,182.01701 407.9,162.07059 366.04245,140.87266 354.48322,134.9105 l -21.01679,-10.84028 -2.84211,5.05599 c -1.56669,2.78708 -2.45668,5.42989 -1.98322,5.88916 0.98581,0.95628 42.42236,22.27811 108.8589,56.01508 63.22024,32.10371 74.91184,37.93476 75.56106,37.68521 0.30858,-0.11861 2.29131,-2.14793 4.40606,-4.5096 z m -107.69807,-24.39994 4.14681,-7.19387 -3.70793,-2.10323 C 403.4191,186.65824 374.81694,172 374.09185,172 c -1.29937,0 -9.05961,14.43224 -8.2146,15.27725 1.19395,1.19395 37.41778,19.61754 38.68388,19.67478 0.58362,0.0264 2.92718,-3.18927 5.20792,-7.14591 z m 169.1536,-21.13751 9.42264,-2.24052 -5.98285,-2.68495 C 572.98893,169.53656 553.62481,163.39435 540.74698,160.5429 518.72666,155.6671 497.0613,155.52007 478,160.11708 c -10.71612,2.58441 -24,7.78128 -24,9.3892 0,0.67301 3.27694,2.65243 7.28209,4.39871 6.96574,3.03712 7.43704,3.11031 10.84884,1.68477 1.96171,-0.81965 8.09295,-2.41266 13.62499,-3.54002 20.87057,-4.25315 46.95208,-1.71732 75.24408,7.31576 6.04651,1.93053 7.03446,1.89212 17.92265,-0.69689 z"
       id="path1" />
  </g>
</svg>
