<?xml version="1.0" encoding="UTF-8" standalone="no"?>
<svg
   viewBox="0 0 793.7007874015749 1122.5196850393702"
   width="793.7007874015749"
   height="1122.5196850393702"
   version="1.1"
   id="svg1110"
   sodipodi:docname="unit ruler.svg"
   inkscape:version="1.3.2 (091e20e, 2023-11-25)"
   xmlns:inkscape="http://www.inkscape.org/namespaces/inkscape"
   xmlns:sodipodi="http://sodipodi.sourceforge.net/DTD/sodipodi-0.dtd"
   xmlns="http://www.w3.org/2000/svg"
   xmlns:svg="http://www.w3.org/2000/svg">
  <sodipodi:namedview
     id="namedview1110"
     pagecolor="#505050"
     bordercolor="#eeeeee"
     borderopacity="1"
     inkscape:showpageshadow="0"
     inkscape:pageopacity="0"
     inkscape:pagecheckerboard="0"
     inkscape:deskcolor="#d1d1d1"
     inkscape:zoom="0.88194442"
     inkscape:cx="353.19686"
     inkscape:cy="1123.6536"
     inkscape:window-width="2472"
     inkscape:window-height="1265"
     inkscape:window-x="0"
     inkscape:window-y="25"
     inkscape:window-maximized="0"
     inkscape:current-layer="g1110" />
  <desc
     id="desc1">unit ruler.dxf - scale = 1.000000, origin = (0.000000, 0.000000), method = manual</desc>
  <defs
     id="defs4">
    <marker
       id="DistanceX"
       orient="auto"
       refX="0.0"
       refY="0.0"
       style="overflow:visible">
      <path
         d="M 3,-3 L -3,3 M 0,-5 L  0,5"
         style="stroke:#000000; stroke-width:0.5"
         id="path1" />
    </marker>
    <pattern
       id="Hatch"
       patternUnits="userSpaceOnUse"
       width="8"
       height="8"
       x="0"
       y="0">
      <path
         d="M8 4 l-4,4"
         stroke="#000000"
         stroke-width="0.25"
         linecap="square"
         id="path2" />
      <path
         d="M6 2 l-4,4"
         stroke="#000000"
         stroke-width="0.25"
         linecap="square"
         id="path3" />
      <path
         d="M4 0 l-4,4"
         stroke="#000000"
         stroke-width="0.25"
         linecap="square"
         id="path4" />
    </pattern>
    <symbol
       id="*MODEL_SPACE" />
    <symbol
       id="*PAPER_SPACE" />
  </defs>
  <g
     inkscape:groupmode="layer"
     inkscape:label="0"
     id="g1110">
    <path
       style="fill:none;stroke:#000000"
       d="M 0 1122.52 L 0 1180.12"
       id="path5" />
    <path
       style="fill:none;stroke:#000000"
       d="M 72 1122.52 L 72 1180.12"
       id="path6" />
    <path
       style="fill:none;stroke:#000000"
       d="M 144 1122.52 L 144 1180.12"
       id="path7" />
    <path
       style="fill:none;stroke:#000000"
       d="M 216 1122.52 L 216 1180.12"
       id="path8" />
    <path
       style="fill:none;stroke:#000000"
       d="M 288 1122.52 L 288 1180.12"
       id="path9" />
    <path
       style="fill:none;stroke:#000000"
       d="M 360 1122.52 L 360 1180.12"
       id="path10" />
    <path
       style="fill:none;stroke:#000000"
       d="M 432 1122.52 L 432 1180.12"
       id="path11" />
    <path
       style="fill:none;stroke:#000000"
       d="M 504 1122.52 L 504 1180.12"
       id="path12" />
    <path
       style="fill:none;stroke:#000000"
       d="M 576 1122.52 L 576 1180.12"
       id="path13" />
    <path
       style="fill:none;stroke:#000000"
       d="M 648 1122.52 L 648 1180.12"
       id="path14" />
    <path
       style="fill:none;stroke:#000000"
       d="M 720 1122.52 L 720 1180.12"
       id="path15" />
    <path
       style="fill:none;stroke:#000000"
       d="M 36 1122.52 L 36 1162.84"
       id="path16" />
    <path
       style="fill:none;stroke:#000000"
       d="M 108 1122.52 L 108 1162.84"
       id="path17" />
    <path
       style="fill:none;stroke:#000000"
       d="M 180 1122.52 L 180 1162.84"
       id="path18" />
    <path
       style="fill:none;stroke:#000000"
       d="M 252 1122.52 L 252 1162.84"
       id="path19" />
    <path
       style="fill:none;stroke:#000000"
       d="M 324 1122.52 L 324 1162.84"
       id="path20" />
    <path
       style="fill:none;stroke:#000000"
       d="M 396 1122.52 L 396 1162.84"
       id="path21" />
    <path
       style="fill:none;stroke:#000000"
       d="M 468 1122.52 L 468 1162.84"
       id="path22" />
    <path
       style="fill:none;stroke:#000000"
       d="M 540 1122.52 L 540 1162.84"
       id="path23" />
    <path
       style="fill:none;stroke:#000000"
       d="M 612 1122.52 L 612 1162.84"
       id="path24" />
    <path
       style="fill:none;stroke:#000000"
       d="M 684 1122.52 L 684 1162.84"
       id="path25" />
    <path
       style="fill:none;stroke:#000000"
       d="M 18 1122.52 L 18 1150.74"
       id="path26" />
    <path
       style="fill:none;stroke:#000000"
       d="M 54 1122.52 L 54 1150.74"
       id="path27" />
    <path
       style="fill:none;stroke:#000000"
       d="M 90 1122.52 L 90 1150.74"
       id="path28" />
    <path
       style="fill:none;stroke:#000000"
       d="M 126 1122.52 L 126 1150.74"
       id="path29" />
    <path
       style="fill:none;stroke:#000000"
       d="M 162 1122.52 L 162 1150.74"
       id="path30" />
    <path
       style="fill:none;stroke:#000000"
       d="M 198 1122.52 L 198 1150.74"
       id="path31" />
    <path
       style="fill:none;stroke:#000000"
       d="M 234 1122.52 L 234 1150.74"
       id="path32" />
    <path
       style="fill:none;stroke:#000000"
       d="M 270 1122.52 L 270 1150.74"
       id="path33" />
    <path
       style="fill:none;stroke:#000000"
       d="M 306 1122.52 L 306 1150.74"
       id="path34" />
    <path
       style="fill:none;stroke:#000000"
       d="M 342 1122.52 L 342 1150.74"
       id="path35" />
    <path
       style="fill:none;stroke:#000000"
       d="M 378 1122.52 L 378 1150.74"
       id="path36" />
    <path
       style="fill:none;stroke:#000000"
       d="M 414 1122.52 L 414 1150.74"
       id="path37" />
    <path
       style="fill:none;stroke:#000000"
       d="M 450 1122.52 L 450 1150.74"
       id="path38" />
    <path
       style="fill:none;stroke:#000000"
       d="M 486 1122.52 L 486 1150.74"
       id="path39" />
    <path
       style="fill:none;stroke:#000000"
       d="M 522 1122.52 L 522 1150.74"
       id="path40" />
    <path
       style="fill:none;stroke:#000000"
       d="M 558 1122.52 L 558 1150.74"
       id="path41" />
    <path
       style="fill:none;stroke:#000000"
       d="M 594 1122.52 L 594 1150.74"
       id="path42" />
    <path
       style="fill:none;stroke:#000000"
       d="M 630 1122.52 L 630 1150.74"
       id="path43" />
    <path
       style="fill:none;stroke:#000000"
       d="M 666 1122.52 L 666 1150.74"
       id="path44" />
    <path
       style="fill:none;stroke:#000000"
       d="M 702 1122.52 L 702 1150.74"
       id="path45" />
    <path
       style="fill:none;stroke:#000000"
       d="M 738 1122.52 L 738 1150.74"
       id="path46" />
  </g>
</svg>
