G04 #@! TF.GenerationSoftware,KiCad,Pcbnew,8.0.2*
G04 #@! TF.CreationDate,2024-06-02T18:46:01+02:00*
G04 #@! TF.ProjectId,KeyboardUnitRuler-panel,4b657962-6f61-4726-9455-6e697452756c,rev?*
G04 #@! TF.SameCoordinates,Original*
G04 #@! TF.FileFunction,Legend,Top*
G04 #@! TF.FilePolarity,Positive*
%FSLAX46Y46*%
G04 Gerber Fmt 4.6, Leading zero omitted, Abs format (unit mm)*
G04 Created by KiCad (PCBNEW 8.0.2) date 2024-06-02 18:46:01*
%MOMM*%
%LPD*%
G01*
G04 APERTURE LIST*
%ADD10C,0.300000*%
%ADD11C,0.000000*%
G04 APERTURE END LIST*
D10*
X115480906Y119571672D02*
X115480906Y118357386D01*
X115480906Y118357386D02*
X115552335Y118214529D01*
X115552335Y118214529D02*
X115623764Y118143100D01*
X115623764Y118143100D02*
X115766621Y118071672D01*
X115766621Y118071672D02*
X116052335Y118071672D01*
X116052335Y118071672D02*
X116195192Y118143100D01*
X116195192Y118143100D02*
X116266621Y118214529D01*
X116266621Y118214529D02*
X116338049Y118357386D01*
X116338049Y118357386D02*
X116338049Y119571672D01*
X117052335Y118071672D02*
X117052335Y119571672D01*
X117052335Y119571672D02*
X117409478Y119571672D01*
X117409478Y119571672D02*
X117623764Y119500243D01*
X117623764Y119500243D02*
X117766621Y119357386D01*
X117766621Y119357386D02*
X117838050Y119214529D01*
X117838050Y119214529D02*
X117909478Y118928815D01*
X117909478Y118928815D02*
X117909478Y118714529D01*
X117909478Y118714529D02*
X117838050Y118428815D01*
X117838050Y118428815D02*
X117766621Y118285958D01*
X117766621Y118285958D02*
X117623764Y118143100D01*
X117623764Y118143100D02*
X117409478Y118071672D01*
X117409478Y118071672D02*
X117052335Y118071672D01*
X119052335Y118857386D02*
X119266621Y118785958D01*
X119266621Y118785958D02*
X119338050Y118714529D01*
X119338050Y118714529D02*
X119409478Y118571672D01*
X119409478Y118571672D02*
X119409478Y118357386D01*
X119409478Y118357386D02*
X119338050Y118214529D01*
X119338050Y118214529D02*
X119266621Y118143100D01*
X119266621Y118143100D02*
X119123764Y118071672D01*
X119123764Y118071672D02*
X118552335Y118071672D01*
X118552335Y118071672D02*
X118552335Y119571672D01*
X118552335Y119571672D02*
X119052335Y119571672D01*
X119052335Y119571672D02*
X119195193Y119500243D01*
X119195193Y119500243D02*
X119266621Y119428815D01*
X119266621Y119428815D02*
X119338050Y119285958D01*
X119338050Y119285958D02*
X119338050Y119143100D01*
X119338050Y119143100D02*
X119266621Y119000243D01*
X119266621Y119000243D02*
X119195193Y118928815D01*
X119195193Y118928815D02*
X119052335Y118857386D01*
X119052335Y118857386D02*
X118552335Y118857386D01*
X120052335Y118643100D02*
X121195193Y118643100D01*
X121838050Y118143100D02*
X122052336Y118071672D01*
X122052336Y118071672D02*
X122409478Y118071672D01*
X122409478Y118071672D02*
X122552336Y118143100D01*
X122552336Y118143100D02*
X122623764Y118214529D01*
X122623764Y118214529D02*
X122695193Y118357386D01*
X122695193Y118357386D02*
X122695193Y118500243D01*
X122695193Y118500243D02*
X122623764Y118643100D01*
X122623764Y118643100D02*
X122552336Y118714529D01*
X122552336Y118714529D02*
X122409478Y118785958D01*
X122409478Y118785958D02*
X122123764Y118857386D01*
X122123764Y118857386D02*
X121980907Y118928815D01*
X121980907Y118928815D02*
X121909478Y119000243D01*
X121909478Y119000243D02*
X121838050Y119143100D01*
X121838050Y119143100D02*
X121838050Y119285958D01*
X121838050Y119285958D02*
X121909478Y119428815D01*
X121909478Y119428815D02*
X121980907Y119500243D01*
X121980907Y119500243D02*
X122123764Y119571672D01*
X122123764Y119571672D02*
X122480907Y119571672D01*
X122480907Y119571672D02*
X122695193Y119500243D01*
X124123764Y118071672D02*
X123266621Y118071672D01*
X123695192Y118071672D02*
X123695192Y119571672D01*
X123695192Y119571672D02*
X123552335Y119357386D01*
X123552335Y119357386D02*
X123409478Y119214529D01*
X123409478Y119214529D02*
X123266621Y119143100D01*
X126766620Y118071672D02*
X126266620Y118785958D01*
X125909477Y118071672D02*
X125909477Y119571672D01*
X125909477Y119571672D02*
X126480906Y119571672D01*
X126480906Y119571672D02*
X126623763Y119500243D01*
X126623763Y119500243D02*
X126695192Y119428815D01*
X126695192Y119428815D02*
X126766620Y119285958D01*
X126766620Y119285958D02*
X126766620Y119071672D01*
X126766620Y119071672D02*
X126695192Y118928815D01*
X126695192Y118928815D02*
X126623763Y118857386D01*
X126623763Y118857386D02*
X126480906Y118785958D01*
X126480906Y118785958D02*
X125909477Y118785958D01*
X127980906Y118143100D02*
X127838049Y118071672D01*
X127838049Y118071672D02*
X127552335Y118071672D01*
X127552335Y118071672D02*
X127409477Y118143100D01*
X127409477Y118143100D02*
X127338049Y118285958D01*
X127338049Y118285958D02*
X127338049Y118857386D01*
X127338049Y118857386D02*
X127409477Y119000243D01*
X127409477Y119000243D02*
X127552335Y119071672D01*
X127552335Y119071672D02*
X127838049Y119071672D01*
X127838049Y119071672D02*
X127980906Y119000243D01*
X127980906Y119000243D02*
X128052335Y118857386D01*
X128052335Y118857386D02*
X128052335Y118714529D01*
X128052335Y118714529D02*
X127338049Y118571672D01*
X128552334Y119071672D02*
X128909477Y118071672D01*
X128909477Y118071672D02*
X129266620Y119071672D01*
X130623763Y118071672D02*
X129766620Y118071672D01*
X130195191Y118071672D02*
X130195191Y119571672D01*
X130195191Y119571672D02*
X130052334Y119357386D01*
X130052334Y119357386D02*
X129909477Y119214529D01*
X129909477Y119214529D02*
X129766620Y119143100D01*
X131266619Y118214529D02*
X131338048Y118143100D01*
X131338048Y118143100D02*
X131266619Y118071672D01*
X131266619Y118071672D02*
X131195191Y118143100D01*
X131195191Y118143100D02*
X131266619Y118214529D01*
X131266619Y118214529D02*
X131266619Y118071672D01*
X132766620Y118071672D02*
X131909477Y118071672D01*
X132338048Y118071672D02*
X132338048Y119571672D01*
X132338048Y119571672D02*
X132195191Y119357386D01*
X132195191Y119357386D02*
X132052334Y119214529D01*
X132052334Y119214529D02*
X131909477Y119143100D01*
X134980905Y119571672D02*
X134980905Y118500243D01*
X134980905Y118500243D02*
X134909476Y118285958D01*
X134909476Y118285958D02*
X134766619Y118143100D01*
X134766619Y118143100D02*
X134552333Y118071672D01*
X134552333Y118071672D02*
X134409476Y118071672D01*
X136409476Y118071672D02*
X135695190Y118071672D01*
X135695190Y118071672D02*
X135695190Y119571672D01*
X137766619Y118214529D02*
X137695191Y118143100D01*
X137695191Y118143100D02*
X137480905Y118071672D01*
X137480905Y118071672D02*
X137338048Y118071672D01*
X137338048Y118071672D02*
X137123762Y118143100D01*
X137123762Y118143100D02*
X136980905Y118285958D01*
X136980905Y118285958D02*
X136909476Y118428815D01*
X136909476Y118428815D02*
X136838048Y118714529D01*
X136838048Y118714529D02*
X136838048Y118928815D01*
X136838048Y118928815D02*
X136909476Y119214529D01*
X136909476Y119214529D02*
X136980905Y119357386D01*
X136980905Y119357386D02*
X137123762Y119500243D01*
X137123762Y119500243D02*
X137338048Y119571672D01*
X137338048Y119571672D02*
X137480905Y119571672D01*
X137480905Y119571672D02*
X137695191Y119500243D01*
X137695191Y119500243D02*
X137766619Y119428815D01*
X138838048Y119571672D02*
X138838048Y118500243D01*
X138838048Y118500243D02*
X138766619Y118285958D01*
X138766619Y118285958D02*
X138623762Y118143100D01*
X138623762Y118143100D02*
X138409476Y118071672D01*
X138409476Y118071672D02*
X138266619Y118071672D01*
X140266619Y118071672D02*
X139552333Y118071672D01*
X139552333Y118071672D02*
X139552333Y119571672D01*
X141623762Y118214529D02*
X141552334Y118143100D01*
X141552334Y118143100D02*
X141338048Y118071672D01*
X141338048Y118071672D02*
X141195191Y118071672D01*
X141195191Y118071672D02*
X140980905Y118143100D01*
X140980905Y118143100D02*
X140838048Y118285958D01*
X140838048Y118285958D02*
X140766619Y118428815D01*
X140766619Y118428815D02*
X140695191Y118714529D01*
X140695191Y118714529D02*
X140695191Y118928815D01*
X140695191Y118928815D02*
X140766619Y119214529D01*
X140766619Y119214529D02*
X140838048Y119357386D01*
X140838048Y119357386D02*
X140980905Y119500243D01*
X140980905Y119500243D02*
X141195191Y119571672D01*
X141195191Y119571672D02*
X141338048Y119571672D01*
X141338048Y119571672D02*
X141552334Y119500243D01*
X141552334Y119500243D02*
X141623762Y119428815D01*
X142695191Y119571672D02*
X142695191Y118500243D01*
X142695191Y118500243D02*
X142623762Y118285958D01*
X142623762Y118285958D02*
X142480905Y118143100D01*
X142480905Y118143100D02*
X142266619Y118071672D01*
X142266619Y118071672D02*
X142123762Y118071672D01*
X144123762Y118071672D02*
X143409476Y118071672D01*
X143409476Y118071672D02*
X143409476Y119571672D01*
X145480905Y118214529D02*
X145409477Y118143100D01*
X145409477Y118143100D02*
X145195191Y118071672D01*
X145195191Y118071672D02*
X145052334Y118071672D01*
X145052334Y118071672D02*
X144838048Y118143100D01*
X144838048Y118143100D02*
X144695191Y118285958D01*
X144695191Y118285958D02*
X144623762Y118428815D01*
X144623762Y118428815D02*
X144552334Y118714529D01*
X144552334Y118714529D02*
X144552334Y118928815D01*
X144552334Y118928815D02*
X144623762Y119214529D01*
X144623762Y119214529D02*
X144695191Y119357386D01*
X144695191Y119357386D02*
X144838048Y119500243D01*
X144838048Y119500243D02*
X145052334Y119571672D01*
X145052334Y119571672D02*
X145195191Y119571672D01*
X145195191Y119571672D02*
X145409477Y119500243D01*
X145409477Y119500243D02*
X145480905Y119428815D01*
X146552334Y119571672D02*
X146552334Y118500243D01*
X146552334Y118500243D02*
X146480905Y118285958D01*
X146480905Y118285958D02*
X146338048Y118143100D01*
X146338048Y118143100D02*
X146123762Y118071672D01*
X146123762Y118071672D02*
X145980905Y118071672D01*
X147980905Y118071672D02*
X147266619Y118071672D01*
X147266619Y118071672D02*
X147266619Y119571672D01*
X149338048Y118214529D02*
X149266620Y118143100D01*
X149266620Y118143100D02*
X149052334Y118071672D01*
X149052334Y118071672D02*
X148909477Y118071672D01*
X148909477Y118071672D02*
X148695191Y118143100D01*
X148695191Y118143100D02*
X148552334Y118285958D01*
X148552334Y118285958D02*
X148480905Y118428815D01*
X148480905Y118428815D02*
X148409477Y118714529D01*
X148409477Y118714529D02*
X148409477Y118928815D01*
X148409477Y118928815D02*
X148480905Y119214529D01*
X148480905Y119214529D02*
X148552334Y119357386D01*
X148552334Y119357386D02*
X148695191Y119500243D01*
X148695191Y119500243D02*
X148909477Y119571672D01*
X148909477Y119571672D02*
X149052334Y119571672D01*
X149052334Y119571672D02*
X149266620Y119500243D01*
X149266620Y119500243D02*
X149338048Y119428815D01*
D11*
G04 #@! TO.C,REF\u002A\u002A*
G36*
X254310603Y77729507D02*
G01*
X254310607Y77729507D01*
X254310614Y77729505D01*
X254310599Y77729505D01*
X254310599Y77729508D01*
X254310603Y77729507D01*
G37*
G36*
X248240852Y74066726D02*
G01*
X248136186Y74066726D01*
X248136186Y73962061D01*
X247822232Y73962061D01*
X247822232Y74171371D01*
X247717587Y74171371D01*
X247717587Y74380660D01*
X248136186Y74380660D01*
X248136186Y74485326D01*
X248240852Y74485326D01*
X248240852Y74066726D01*
G37*
G36*
X254624570Y77938815D02*
G01*
X254519904Y77938815D01*
X254519904Y78043460D01*
X254415259Y78043460D01*
X254415259Y78252748D01*
X254310614Y78252748D01*
X254310614Y78462058D01*
X254205948Y78462058D01*
X254205948Y78671368D01*
X254101304Y78671368D01*
X254101304Y78880657D01*
X253892015Y78880657D01*
X253892015Y78985323D01*
X253996660Y78985323D01*
X253996660Y79089968D01*
X254101305Y79089968D01*
X254101305Y79194612D01*
X254205949Y79194612D01*
X254205949Y79299256D01*
X254310614Y79299256D01*
X254310614Y79403922D01*
X254624570Y79403922D01*
X254624570Y77938815D01*
G37*
G36*
X251694318Y81392279D02*
G01*
X252008272Y81392279D01*
X252008272Y81182990D01*
X252322227Y81182990D01*
X252322227Y81078325D01*
X252531537Y81078325D01*
X252531537Y80973680D01*
X252636182Y80973680D01*
X252636182Y80869036D01*
X252740827Y80869036D01*
X252740827Y80764391D01*
X252845492Y80764391D01*
X252845492Y80659726D01*
X252950137Y80659726D01*
X252950137Y80555081D01*
X253054782Y80555081D01*
X253054782Y80345771D01*
X253159448Y80345771D01*
X253159448Y80136483D01*
X253264093Y80136483D01*
X253264093Y79927172D01*
X253368737Y79927172D01*
X253368737Y79822528D01*
X253264093Y79822528D01*
X253264093Y79717884D01*
X252531535Y79717884D01*
X252531535Y79822528D01*
X252322225Y79822528D01*
X252322225Y79822532D01*
X252322225Y79927172D01*
X251694313Y79927172D01*
X251694313Y79822528D01*
X251589668Y79822528D01*
X251589668Y79717884D01*
X251485024Y79717884D01*
X251485024Y79299260D01*
X251380358Y79299260D01*
X251380358Y78985327D01*
X251275714Y78985327D01*
X251275714Y78776017D01*
X251171069Y78776017D01*
X251171069Y78566706D01*
X250857115Y78566706D01*
X250857115Y78462062D01*
X251171069Y78462062D01*
X251171069Y78357417D01*
X251275714Y78357417D01*
X251275714Y78252752D01*
X251380358Y78252752D01*
X251380358Y77938819D01*
X251485024Y77938819D01*
X251485024Y78043463D01*
X252426870Y78043463D01*
X252426870Y78148107D01*
X252740824Y78148107D01*
X252740824Y78252752D01*
X252950134Y78252752D01*
X252950134Y78357417D01*
X253054779Y78357417D01*
X253054779Y78462062D01*
X253159445Y78462062D01*
X253159445Y78566706D01*
X253264090Y78566706D01*
X253264090Y78671372D01*
X253368734Y78671372D01*
X253368734Y78776017D01*
X253473379Y78776017D01*
X253473379Y78043459D01*
X253368734Y78043459D01*
X253368734Y77834149D01*
X253264090Y77834149D01*
X253264090Y77729505D01*
X253159445Y77729505D01*
X253159445Y77520195D01*
X253054779Y77520195D01*
X253054779Y77415551D01*
X252845491Y77415551D01*
X252845491Y77310906D01*
X252636180Y77310906D01*
X252636180Y77206240D01*
X252426870Y77206240D01*
X252426870Y77101596D01*
X252217581Y77101596D01*
X252217581Y76996951D01*
X251903627Y76996951D01*
X251903627Y76892307D01*
X251380358Y76892307D01*
X251380358Y76787641D01*
X250961760Y76787641D01*
X250961760Y76682996D01*
X248868737Y76682996D01*
X248868737Y76787641D01*
X248659448Y76787641D01*
X248659448Y76892307D01*
X248554782Y76892307D01*
X248554782Y76996951D01*
X248345493Y76996951D01*
X248345493Y77101596D01*
X248136183Y77101596D01*
X248136183Y77206240D01*
X247926894Y77206240D01*
X247926894Y77101596D01*
X247612940Y77101596D01*
X247612940Y77206240D01*
X247508279Y77206240D01*
X247508279Y77520195D01*
X247403635Y77520195D01*
X247403635Y78357417D01*
X247403635Y78462062D01*
X249705962Y78462062D01*
X249705962Y78357417D01*
X249915251Y78357417D01*
X249915251Y78462062D01*
X250019917Y78462062D01*
X250019917Y78566706D01*
X250124561Y78566706D01*
X250124561Y78671372D01*
X250752474Y78671372D01*
X250752474Y78776017D01*
X250647808Y78776017D01*
X250647808Y78880661D01*
X250438520Y78880661D01*
X250438520Y78985327D01*
X250124565Y78985327D01*
X250124565Y78880661D01*
X250019920Y78880661D01*
X250019920Y78776017D01*
X249915255Y78776017D01*
X249915255Y78671372D01*
X249810610Y78671372D01*
X249810610Y78462062D01*
X249705962Y78462062D01*
X247403635Y78462062D01*
X247403635Y78671372D01*
X247508279Y78671372D01*
X247508279Y79194619D01*
X247612945Y79194619D01*
X247612945Y79508574D01*
X247717589Y79508574D01*
X247717589Y79717884D01*
X247822234Y79717884D01*
X247822234Y79927172D01*
X247926899Y79927172D01*
X247926899Y80031817D01*
X248031544Y80031817D01*
X248031544Y80136483D01*
X248136188Y80136483D01*
X248136188Y80136486D01*
X252636191Y80136486D01*
X252636191Y79822532D01*
X252845501Y79822532D01*
X252845501Y80031821D01*
X253054790Y80031821D01*
X253054790Y80241131D01*
X252740836Y80241131D01*
X252740836Y80136486D01*
X252636191Y80136486D01*
X248136188Y80136486D01*
X248136188Y80241127D01*
X248240854Y80241127D01*
X248240854Y80345771D01*
X248345498Y80345771D01*
X248345498Y80450437D01*
X248450143Y80450437D01*
X248450143Y80555081D01*
X248554787Y80555081D01*
X248554787Y80659726D01*
X248659453Y80659726D01*
X248659453Y80764391D01*
X248764097Y80764391D01*
X248764097Y80869036D01*
X248973407Y80869036D01*
X248973407Y80973680D01*
X249182696Y80973680D01*
X249182696Y81078325D01*
X249392006Y81078325D01*
X249392006Y81182990D01*
X249601295Y81182990D01*
X249601295Y81287635D01*
X249810605Y81287635D01*
X249810605Y81392279D01*
X250333873Y81392279D01*
X250333873Y81496945D01*
X251694318Y81496945D01*
X251694318Y81392279D01*
G37*
G36*
X253892015Y78252748D02*
G01*
X253996660Y78252748D01*
X253996660Y78148104D01*
X254101305Y78148104D01*
X254101305Y77938815D01*
X254205949Y77938815D01*
X254205949Y77729505D01*
X254310599Y77729505D01*
X254310599Y77415554D01*
X254415244Y77415554D01*
X254415244Y76055084D01*
X254310599Y76055084D01*
X254310599Y75636484D01*
X254205933Y75636484D01*
X254205933Y75427174D01*
X254101288Y75427174D01*
X254101288Y75322530D01*
X253996644Y75322530D01*
X253996644Y75217885D01*
X253787334Y75217885D01*
X253787334Y75113240D01*
X253682689Y75113240D01*
X253682689Y75008574D01*
X253578044Y75008574D01*
X253578044Y74903930D01*
X253368734Y74903930D01*
X253368734Y74799285D01*
X253159445Y74799285D01*
X253159445Y74694619D01*
X252950134Y74694619D01*
X252950134Y74589974D01*
X252740824Y74589974D01*
X252740824Y74485329D01*
X252531535Y74485329D01*
X252531535Y74380664D01*
X252217581Y74380664D01*
X252217581Y74276019D01*
X251903627Y74276019D01*
X251903627Y74171374D01*
X251485027Y74171374D01*
X251485027Y74276019D01*
X251380362Y74276019D01*
X251380362Y74485329D01*
X251275717Y74485329D01*
X251275717Y74694619D01*
X251171073Y74694619D01*
X251171073Y74903929D01*
X251066429Y74903929D01*
X251066429Y75008574D01*
X250752474Y75008574D01*
X250752474Y75113239D01*
X250438520Y75113239D01*
X250438520Y75008574D01*
X250333875Y75008574D01*
X250333875Y74903929D01*
X250124565Y74903929D01*
X250124565Y75008574D01*
X249496653Y75008574D01*
X249496653Y74903929D01*
X249287364Y74903929D01*
X249287364Y74799284D01*
X249182698Y74799284D01*
X249182698Y74485329D01*
X249078054Y74485329D01*
X249078054Y74380664D01*
X248764099Y74380664D01*
X248764099Y74485329D01*
X248659455Y74485329D01*
X248659455Y74589974D01*
X248450145Y74589974D01*
X248450145Y74694619D01*
X248345500Y74694619D01*
X248345500Y74799285D01*
X248240856Y74799285D01*
X248240856Y74903930D01*
X248136190Y74903930D01*
X248136190Y75113240D01*
X248031546Y75113240D01*
X248031546Y75217885D01*
X247926902Y75217885D01*
X247926902Y75427173D01*
X247822236Y75427173D01*
X247822236Y75531839D01*
X247717592Y75531839D01*
X247717592Y75636484D01*
X247508281Y75636484D01*
X247508281Y75741126D01*
X247508281Y75741129D01*
X247403637Y75741129D01*
X247403637Y75950439D01*
X247298993Y75950439D01*
X247298993Y76159749D01*
X247194348Y76159749D01*
X247194348Y76264394D01*
X251798991Y76264394D01*
X251798991Y75741126D01*
X251903636Y75741126D01*
X251903636Y75531837D01*
X252008280Y75531837D01*
X252008280Y75427172D01*
X252112946Y75427172D01*
X252112946Y75322527D01*
X252531545Y75322527D01*
X252531545Y75427172D01*
X252636190Y75427172D01*
X252636190Y75531837D01*
X252740835Y75531837D01*
X252740836Y75531838D01*
X252740836Y75531839D01*
X252740837Y75531840D01*
X252740837Y75531841D01*
X252740838Y75531841D01*
X252740838Y75950441D01*
X252531549Y75950441D01*
X252531549Y75741130D01*
X252426883Y75741130D01*
X252426883Y75636485D01*
X252217594Y75636485D01*
X252217594Y75845796D01*
X252112949Y75845796D01*
X252112949Y76159750D01*
X252217594Y76159750D01*
X252217594Y76264395D01*
X252531549Y76264395D01*
X252531549Y76369035D01*
X252531549Y76473684D01*
X252008280Y76473684D01*
X252008280Y76369039D01*
X251903636Y76369039D01*
X251903636Y76264394D01*
X251798991Y76264394D01*
X247194348Y76264394D01*
X247194348Y76682996D01*
X247298993Y76682996D01*
X247298993Y76787641D01*
X247403637Y76787641D01*
X247403637Y76892307D01*
X247508281Y76892307D01*
X247508281Y76996951D01*
X248031550Y76996951D01*
X248031550Y76892307D01*
X248240860Y76892307D01*
X248240860Y76787641D01*
X248450148Y76787641D01*
X248450148Y76682996D01*
X248659459Y76682996D01*
X248659459Y76578351D01*
X248868747Y76578351D01*
X248868747Y76473686D01*
X249078057Y76473686D01*
X249078057Y76369041D01*
X250438527Y76369041D01*
X250438527Y76473686D01*
X250961774Y76473686D01*
X250961774Y76578351D01*
X251380373Y76578351D01*
X251380373Y76682989D01*
X252740838Y76682989D01*
X252740838Y76369035D01*
X252950148Y76369035D01*
X252950148Y76473680D01*
X253054793Y76473680D01*
X253054793Y76159746D01*
X253159458Y76159746D01*
X253159458Y75845792D01*
X253264103Y75845792D01*
X253264103Y75741126D01*
X253473392Y75741126D01*
X253473392Y76369038D01*
X253368747Y76369038D01*
X253368747Y76682993D01*
X253473392Y76682993D01*
X253473392Y76787638D01*
X253578057Y76787638D01*
X253578057Y76996945D01*
X253368746Y76996945D01*
X253368746Y76892300D01*
X253159458Y76892300D01*
X253159458Y76787634D01*
X252845503Y76787634D01*
X252845503Y76682989D01*
X252740838Y76682989D01*
X251380373Y76682989D01*
X251380373Y76682996D01*
X251903641Y76682996D01*
X251903641Y76787641D01*
X252217596Y76787641D01*
X252217596Y76892307D01*
X252426884Y76892307D01*
X252426884Y76996951D01*
X252636195Y76996951D01*
X252636195Y77101596D01*
X252845505Y77101596D01*
X252845505Y77206240D01*
X253054794Y77206240D01*
X253054794Y77310906D01*
X253159460Y77310906D01*
X253159460Y77415551D01*
X253264104Y77415551D01*
X253264104Y77520195D01*
X253368749Y77520195D01*
X253368749Y77624861D01*
X253473394Y77624861D01*
X253473394Y77729505D01*
X253578060Y77729505D01*
X253578060Y77834150D01*
X253682705Y77834150D01*
X253682705Y78043460D01*
X253787349Y78043460D01*
X253787349Y78357414D01*
X253892015Y78357414D01*
X253892015Y78252748D01*
G37*
G36*
X254310603Y98779507D02*
G01*
X254310607Y98779507D01*
X254310614Y98779505D01*
X254310599Y98779505D01*
X254310599Y98779508D01*
X254310603Y98779507D01*
G37*
G36*
X248240852Y95116726D02*
G01*
X248136186Y95116726D01*
X248136186Y95012061D01*
X247822232Y95012061D01*
X247822232Y95221371D01*
X247717587Y95221371D01*
X247717587Y95430660D01*
X248136186Y95430660D01*
X248136186Y95535326D01*
X248240852Y95535326D01*
X248240852Y95116726D01*
G37*
G36*
X254624570Y98988815D02*
G01*
X254519904Y98988815D01*
X254519904Y99093460D01*
X254415259Y99093460D01*
X254415259Y99302748D01*
X254310614Y99302748D01*
X254310614Y99512058D01*
X254205948Y99512058D01*
X254205948Y99721368D01*
X254101304Y99721368D01*
X254101304Y99930657D01*
X253892015Y99930657D01*
X253892015Y100035323D01*
X253996660Y100035323D01*
X253996660Y100139968D01*
X254101305Y100139968D01*
X254101305Y100244612D01*
X254205949Y100244612D01*
X254205949Y100349256D01*
X254310614Y100349256D01*
X254310614Y100453922D01*
X254624570Y100453922D01*
X254624570Y98988815D01*
G37*
G36*
X251694318Y102442279D02*
G01*
X252008272Y102442279D01*
X252008272Y102232990D01*
X252322227Y102232990D01*
X252322227Y102128325D01*
X252531537Y102128325D01*
X252531537Y102023680D01*
X252636182Y102023680D01*
X252636182Y101919036D01*
X252740827Y101919036D01*
X252740827Y101814391D01*
X252845492Y101814391D01*
X252845492Y101709726D01*
X252950137Y101709726D01*
X252950137Y101605081D01*
X253054782Y101605081D01*
X253054782Y101395771D01*
X253159448Y101395771D01*
X253159448Y101186483D01*
X253264093Y101186483D01*
X253264093Y100977172D01*
X253368737Y100977172D01*
X253368737Y100872528D01*
X253264093Y100872528D01*
X253264093Y100767884D01*
X252531535Y100767884D01*
X252531535Y100872528D01*
X252322225Y100872528D01*
X252322225Y100872532D01*
X252322225Y100977172D01*
X251694313Y100977172D01*
X251694313Y100872528D01*
X251589668Y100872528D01*
X251589668Y100767884D01*
X251485024Y100767884D01*
X251485024Y100349260D01*
X251380358Y100349260D01*
X251380358Y100035327D01*
X251275714Y100035327D01*
X251275714Y99826017D01*
X251171069Y99826017D01*
X251171069Y99616706D01*
X250857115Y99616706D01*
X250857115Y99512062D01*
X251171069Y99512062D01*
X251171069Y99407417D01*
X251275714Y99407417D01*
X251275714Y99302752D01*
X251380358Y99302752D01*
X251380358Y98988819D01*
X251485024Y98988819D01*
X251485024Y99093463D01*
X252426870Y99093463D01*
X252426870Y99198107D01*
X252740824Y99198107D01*
X252740824Y99302752D01*
X252950134Y99302752D01*
X252950134Y99407417D01*
X253054779Y99407417D01*
X253054779Y99512062D01*
X253159445Y99512062D01*
X253159445Y99616706D01*
X253264090Y99616706D01*
X253264090Y99721372D01*
X253368734Y99721372D01*
X253368734Y99826017D01*
X253473379Y99826017D01*
X253473379Y99093459D01*
X253368734Y99093459D01*
X253368734Y98884149D01*
X253264090Y98884149D01*
X253264090Y98779505D01*
X253159445Y98779505D01*
X253159445Y98570195D01*
X253054779Y98570195D01*
X253054779Y98465551D01*
X252845491Y98465551D01*
X252845491Y98360906D01*
X252636180Y98360906D01*
X252636180Y98256240D01*
X252426870Y98256240D01*
X252426870Y98151596D01*
X252217581Y98151596D01*
X252217581Y98046951D01*
X251903627Y98046951D01*
X251903627Y97942307D01*
X251380358Y97942307D01*
X251380358Y97837641D01*
X250961760Y97837641D01*
X250961760Y97732996D01*
X248868737Y97732996D01*
X248868737Y97837641D01*
X248659448Y97837641D01*
X248659448Y97942307D01*
X248554782Y97942307D01*
X248554782Y98046951D01*
X248345493Y98046951D01*
X248345493Y98151596D01*
X248136183Y98151596D01*
X248136183Y98256240D01*
X247926894Y98256240D01*
X247926894Y98151596D01*
X247612940Y98151596D01*
X247612940Y98256240D01*
X247508279Y98256240D01*
X247508279Y98570195D01*
X247403635Y98570195D01*
X247403635Y99407417D01*
X247403635Y99512062D01*
X249705962Y99512062D01*
X249705962Y99407417D01*
X249915251Y99407417D01*
X249915251Y99512062D01*
X250019917Y99512062D01*
X250019917Y99616706D01*
X250124561Y99616706D01*
X250124561Y99721372D01*
X250752474Y99721372D01*
X250752474Y99826017D01*
X250647808Y99826017D01*
X250647808Y99930661D01*
X250438520Y99930661D01*
X250438520Y100035327D01*
X250124565Y100035327D01*
X250124565Y99930661D01*
X250019920Y99930661D01*
X250019920Y99826017D01*
X249915255Y99826017D01*
X249915255Y99721372D01*
X249810610Y99721372D01*
X249810610Y99512062D01*
X249705962Y99512062D01*
X247403635Y99512062D01*
X247403635Y99721372D01*
X247508279Y99721372D01*
X247508279Y100244619D01*
X247612945Y100244619D01*
X247612945Y100558574D01*
X247717589Y100558574D01*
X247717589Y100767884D01*
X247822234Y100767884D01*
X247822234Y100977172D01*
X247926899Y100977172D01*
X247926899Y101081817D01*
X248031544Y101081817D01*
X248031544Y101186483D01*
X248136188Y101186483D01*
X248136188Y101186486D01*
X252636191Y101186486D01*
X252636191Y100872532D01*
X252845501Y100872532D01*
X252845501Y101081821D01*
X253054790Y101081821D01*
X253054790Y101291131D01*
X252740836Y101291131D01*
X252740836Y101186486D01*
X252636191Y101186486D01*
X248136188Y101186486D01*
X248136188Y101291127D01*
X248240854Y101291127D01*
X248240854Y101395771D01*
X248345498Y101395771D01*
X248345498Y101500437D01*
X248450143Y101500437D01*
X248450143Y101605081D01*
X248554787Y101605081D01*
X248554787Y101709726D01*
X248659453Y101709726D01*
X248659453Y101814391D01*
X248764097Y101814391D01*
X248764097Y101919036D01*
X248973407Y101919036D01*
X248973407Y102023680D01*
X249182696Y102023680D01*
X249182696Y102128325D01*
X249392006Y102128325D01*
X249392006Y102232990D01*
X249601295Y102232990D01*
X249601295Y102337635D01*
X249810605Y102337635D01*
X249810605Y102442279D01*
X250333873Y102442279D01*
X250333873Y102546945D01*
X251694318Y102546945D01*
X251694318Y102442279D01*
G37*
G36*
X253892015Y99302748D02*
G01*
X253996660Y99302748D01*
X253996660Y99198104D01*
X254101305Y99198104D01*
X254101305Y98988815D01*
X254205949Y98988815D01*
X254205949Y98779505D01*
X254310599Y98779505D01*
X254310599Y98465554D01*
X254415244Y98465554D01*
X254415244Y97105084D01*
X254310599Y97105084D01*
X254310599Y96686484D01*
X254205933Y96686484D01*
X254205933Y96477174D01*
X254101288Y96477174D01*
X254101288Y96372530D01*
X253996644Y96372530D01*
X253996644Y96267885D01*
X253787334Y96267885D01*
X253787334Y96163240D01*
X253682689Y96163240D01*
X253682689Y96058574D01*
X253578044Y96058574D01*
X253578044Y95953930D01*
X253368734Y95953930D01*
X253368734Y95849285D01*
X253159445Y95849285D01*
X253159445Y95744619D01*
X252950134Y95744619D01*
X252950134Y95639974D01*
X252740824Y95639974D01*
X252740824Y95535329D01*
X252531535Y95535329D01*
X252531535Y95430664D01*
X252217581Y95430664D01*
X252217581Y95326019D01*
X251903627Y95326019D01*
X251903627Y95221374D01*
X251485027Y95221374D01*
X251485027Y95326019D01*
X251380362Y95326019D01*
X251380362Y95535329D01*
X251275717Y95535329D01*
X251275717Y95744619D01*
X251171073Y95744619D01*
X251171073Y95953929D01*
X251066429Y95953929D01*
X251066429Y96058574D01*
X250752474Y96058574D01*
X250752474Y96163239D01*
X250438520Y96163239D01*
X250438520Y96058574D01*
X250333875Y96058574D01*
X250333875Y95953929D01*
X250124565Y95953929D01*
X250124565Y96058574D01*
X249496653Y96058574D01*
X249496653Y95953929D01*
X249287364Y95953929D01*
X249287364Y95849284D01*
X249182698Y95849284D01*
X249182698Y95535329D01*
X249078054Y95535329D01*
X249078054Y95430664D01*
X248764099Y95430664D01*
X248764099Y95535329D01*
X248659455Y95535329D01*
X248659455Y95639974D01*
X248450145Y95639974D01*
X248450145Y95744619D01*
X248345500Y95744619D01*
X248345500Y95849285D01*
X248240856Y95849285D01*
X248240856Y95953930D01*
X248136190Y95953930D01*
X248136190Y96163240D01*
X248031546Y96163240D01*
X248031546Y96267885D01*
X247926902Y96267885D01*
X247926902Y96477173D01*
X247822236Y96477173D01*
X247822236Y96581839D01*
X247717592Y96581839D01*
X247717592Y96686484D01*
X247508281Y96686484D01*
X247508281Y96791126D01*
X247508281Y96791129D01*
X247403637Y96791129D01*
X247403637Y97000439D01*
X247298993Y97000439D01*
X247298993Y97209749D01*
X247194348Y97209749D01*
X247194348Y97314394D01*
X251798991Y97314394D01*
X251798991Y96791126D01*
X251903636Y96791126D01*
X251903636Y96581837D01*
X252008280Y96581837D01*
X252008280Y96477172D01*
X252112946Y96477172D01*
X252112946Y96372527D01*
X252531545Y96372527D01*
X252531545Y96477172D01*
X252636190Y96477172D01*
X252636190Y96581837D01*
X252740835Y96581837D01*
X252740836Y96581838D01*
X252740836Y96581839D01*
X252740837Y96581840D01*
X252740837Y96581841D01*
X252740838Y96581841D01*
X252740838Y97000441D01*
X252531549Y97000441D01*
X252531549Y96791130D01*
X252426883Y96791130D01*
X252426883Y96686485D01*
X252217594Y96686485D01*
X252217594Y96895796D01*
X252112949Y96895796D01*
X252112949Y97209750D01*
X252217594Y97209750D01*
X252217594Y97314395D01*
X252531549Y97314395D01*
X252531549Y97419035D01*
X252531549Y97523684D01*
X252008280Y97523684D01*
X252008280Y97419039D01*
X251903636Y97419039D01*
X251903636Y97314394D01*
X251798991Y97314394D01*
X247194348Y97314394D01*
X247194348Y97732996D01*
X247298993Y97732996D01*
X247298993Y97837641D01*
X247403637Y97837641D01*
X247403637Y97942307D01*
X247508281Y97942307D01*
X247508281Y98046951D01*
X248031550Y98046951D01*
X248031550Y97942307D01*
X248240860Y97942307D01*
X248240860Y97837641D01*
X248450148Y97837641D01*
X248450148Y97732996D01*
X248659459Y97732996D01*
X248659459Y97628351D01*
X248868747Y97628351D01*
X248868747Y97523686D01*
X249078057Y97523686D01*
X249078057Y97419041D01*
X250438527Y97419041D01*
X250438527Y97523686D01*
X250961774Y97523686D01*
X250961774Y97628351D01*
X251380373Y97628351D01*
X251380373Y97732989D01*
X252740838Y97732989D01*
X252740838Y97419035D01*
X252950148Y97419035D01*
X252950148Y97523680D01*
X253054793Y97523680D01*
X253054793Y97209746D01*
X253159458Y97209746D01*
X253159458Y96895792D01*
X253264103Y96895792D01*
X253264103Y96791126D01*
X253473392Y96791126D01*
X253473392Y97419038D01*
X253368747Y97419038D01*
X253368747Y97732993D01*
X253473392Y97732993D01*
X253473392Y97837638D01*
X253578057Y97837638D01*
X253578057Y98046945D01*
X253368746Y98046945D01*
X253368746Y97942300D01*
X253159458Y97942300D01*
X253159458Y97837634D01*
X252845503Y97837634D01*
X252845503Y97732989D01*
X252740838Y97732989D01*
X251380373Y97732989D01*
X251380373Y97732996D01*
X251903641Y97732996D01*
X251903641Y97837641D01*
X252217596Y97837641D01*
X252217596Y97942307D01*
X252426884Y97942307D01*
X252426884Y98046951D01*
X252636195Y98046951D01*
X252636195Y98151596D01*
X252845505Y98151596D01*
X252845505Y98256240D01*
X253054794Y98256240D01*
X253054794Y98360906D01*
X253159460Y98360906D01*
X253159460Y98465551D01*
X253264104Y98465551D01*
X253264104Y98570195D01*
X253368749Y98570195D01*
X253368749Y98674861D01*
X253473394Y98674861D01*
X253473394Y98779505D01*
X253578060Y98779505D01*
X253578060Y98884150D01*
X253682705Y98884150D01*
X253682705Y99093460D01*
X253787349Y99093460D01*
X253787349Y99407414D01*
X253892015Y99407414D01*
X253892015Y99302748D01*
G37*
G36*
X254310603Y56679507D02*
G01*
X254310607Y56679507D01*
X254310614Y56679505D01*
X254310599Y56679505D01*
X254310599Y56679508D01*
X254310603Y56679507D01*
G37*
G36*
X248240852Y53016726D02*
G01*
X248136186Y53016726D01*
X248136186Y52912061D01*
X247822232Y52912061D01*
X247822232Y53121371D01*
X247717587Y53121371D01*
X247717587Y53330660D01*
X248136186Y53330660D01*
X248136186Y53435326D01*
X248240852Y53435326D01*
X248240852Y53016726D01*
G37*
G36*
X254624570Y56888815D02*
G01*
X254519904Y56888815D01*
X254519904Y56993460D01*
X254415259Y56993460D01*
X254415259Y57202748D01*
X254310614Y57202748D01*
X254310614Y57412058D01*
X254205948Y57412058D01*
X254205948Y57621368D01*
X254101304Y57621368D01*
X254101304Y57830657D01*
X253892015Y57830657D01*
X253892015Y57935323D01*
X253996660Y57935323D01*
X253996660Y58039968D01*
X254101305Y58039968D01*
X254101305Y58144612D01*
X254205949Y58144612D01*
X254205949Y58249256D01*
X254310614Y58249256D01*
X254310614Y58353922D01*
X254624570Y58353922D01*
X254624570Y56888815D01*
G37*
G36*
X251694318Y60342279D02*
G01*
X252008272Y60342279D01*
X252008272Y60132990D01*
X252322227Y60132990D01*
X252322227Y60028325D01*
X252531537Y60028325D01*
X252531537Y59923680D01*
X252636182Y59923680D01*
X252636182Y59819036D01*
X252740827Y59819036D01*
X252740827Y59714391D01*
X252845492Y59714391D01*
X252845492Y59609726D01*
X252950137Y59609726D01*
X252950137Y59505081D01*
X253054782Y59505081D01*
X253054782Y59295771D01*
X253159448Y59295771D01*
X253159448Y59086483D01*
X253264093Y59086483D01*
X253264093Y58877172D01*
X253368737Y58877172D01*
X253368737Y58772528D01*
X253264093Y58772528D01*
X253264093Y58667884D01*
X252531535Y58667884D01*
X252531535Y58772528D01*
X252322225Y58772528D01*
X252322225Y58772532D01*
X252322225Y58877172D01*
X251694313Y58877172D01*
X251694313Y58772528D01*
X251589668Y58772528D01*
X251589668Y58667884D01*
X251485024Y58667884D01*
X251485024Y58249260D01*
X251380358Y58249260D01*
X251380358Y57935327D01*
X251275714Y57935327D01*
X251275714Y57726017D01*
X251171069Y57726017D01*
X251171069Y57516706D01*
X250857115Y57516706D01*
X250857115Y57412062D01*
X251171069Y57412062D01*
X251171069Y57307417D01*
X251275714Y57307417D01*
X251275714Y57202752D01*
X251380358Y57202752D01*
X251380358Y56888819D01*
X251485024Y56888819D01*
X251485024Y56993463D01*
X252426870Y56993463D01*
X252426870Y57098107D01*
X252740824Y57098107D01*
X252740824Y57202752D01*
X252950134Y57202752D01*
X252950134Y57307417D01*
X253054779Y57307417D01*
X253054779Y57412062D01*
X253159445Y57412062D01*
X253159445Y57516706D01*
X253264090Y57516706D01*
X253264090Y57621372D01*
X253368734Y57621372D01*
X253368734Y57726017D01*
X253473379Y57726017D01*
X253473379Y56993459D01*
X253368734Y56993459D01*
X253368734Y56784149D01*
X253264090Y56784149D01*
X253264090Y56679505D01*
X253159445Y56679505D01*
X253159445Y56470195D01*
X253054779Y56470195D01*
X253054779Y56365551D01*
X252845491Y56365551D01*
X252845491Y56260906D01*
X252636180Y56260906D01*
X252636180Y56156240D01*
X252426870Y56156240D01*
X252426870Y56051596D01*
X252217581Y56051596D01*
X252217581Y55946951D01*
X251903627Y55946951D01*
X251903627Y55842307D01*
X251380358Y55842307D01*
X251380358Y55737641D01*
X250961760Y55737641D01*
X250961760Y55632996D01*
X248868737Y55632996D01*
X248868737Y55737641D01*
X248659448Y55737641D01*
X248659448Y55842307D01*
X248554782Y55842307D01*
X248554782Y55946951D01*
X248345493Y55946951D01*
X248345493Y56051596D01*
X248136183Y56051596D01*
X248136183Y56156240D01*
X247926894Y56156240D01*
X247926894Y56051596D01*
X247612940Y56051596D01*
X247612940Y56156240D01*
X247508279Y56156240D01*
X247508279Y56470195D01*
X247403635Y56470195D01*
X247403635Y57307417D01*
X247403635Y57412062D01*
X249705962Y57412062D01*
X249705962Y57307417D01*
X249915251Y57307417D01*
X249915251Y57412062D01*
X250019917Y57412062D01*
X250019917Y57516706D01*
X250124561Y57516706D01*
X250124561Y57621372D01*
X250752474Y57621372D01*
X250752474Y57726017D01*
X250647808Y57726017D01*
X250647808Y57830661D01*
X250438520Y57830661D01*
X250438520Y57935327D01*
X250124565Y57935327D01*
X250124565Y57830661D01*
X250019920Y57830661D01*
X250019920Y57726017D01*
X249915255Y57726017D01*
X249915255Y57621372D01*
X249810610Y57621372D01*
X249810610Y57412062D01*
X249705962Y57412062D01*
X247403635Y57412062D01*
X247403635Y57621372D01*
X247508279Y57621372D01*
X247508279Y58144619D01*
X247612945Y58144619D01*
X247612945Y58458574D01*
X247717589Y58458574D01*
X247717589Y58667884D01*
X247822234Y58667884D01*
X247822234Y58877172D01*
X247926899Y58877172D01*
X247926899Y58981817D01*
X248031544Y58981817D01*
X248031544Y59086483D01*
X248136188Y59086483D01*
X248136188Y59086486D01*
X252636191Y59086486D01*
X252636191Y58772532D01*
X252845501Y58772532D01*
X252845501Y58981821D01*
X253054790Y58981821D01*
X253054790Y59191131D01*
X252740836Y59191131D01*
X252740836Y59086486D01*
X252636191Y59086486D01*
X248136188Y59086486D01*
X248136188Y59191127D01*
X248240854Y59191127D01*
X248240854Y59295771D01*
X248345498Y59295771D01*
X248345498Y59400437D01*
X248450143Y59400437D01*
X248450143Y59505081D01*
X248554787Y59505081D01*
X248554787Y59609726D01*
X248659453Y59609726D01*
X248659453Y59714391D01*
X248764097Y59714391D01*
X248764097Y59819036D01*
X248973407Y59819036D01*
X248973407Y59923680D01*
X249182696Y59923680D01*
X249182696Y60028325D01*
X249392006Y60028325D01*
X249392006Y60132990D01*
X249601295Y60132990D01*
X249601295Y60237635D01*
X249810605Y60237635D01*
X249810605Y60342279D01*
X250333873Y60342279D01*
X250333873Y60446945D01*
X251694318Y60446945D01*
X251694318Y60342279D01*
G37*
G36*
X253892015Y57202748D02*
G01*
X253996660Y57202748D01*
X253996660Y57098104D01*
X254101305Y57098104D01*
X254101305Y56888815D01*
X254205949Y56888815D01*
X254205949Y56679505D01*
X254310599Y56679505D01*
X254310599Y56365554D01*
X254415244Y56365554D01*
X254415244Y55005084D01*
X254310599Y55005084D01*
X254310599Y54586484D01*
X254205933Y54586484D01*
X254205933Y54377174D01*
X254101288Y54377174D01*
X254101288Y54272530D01*
X253996644Y54272530D01*
X253996644Y54167885D01*
X253787334Y54167885D01*
X253787334Y54063240D01*
X253682689Y54063240D01*
X253682689Y53958574D01*
X253578044Y53958574D01*
X253578044Y53853930D01*
X253368734Y53853930D01*
X253368734Y53749285D01*
X253159445Y53749285D01*
X253159445Y53644619D01*
X252950134Y53644619D01*
X252950134Y53539974D01*
X252740824Y53539974D01*
X252740824Y53435329D01*
X252531535Y53435329D01*
X252531535Y53330664D01*
X252217581Y53330664D01*
X252217581Y53226019D01*
X251903627Y53226019D01*
X251903627Y53121374D01*
X251485027Y53121374D01*
X251485027Y53226019D01*
X251380362Y53226019D01*
X251380362Y53435329D01*
X251275717Y53435329D01*
X251275717Y53644619D01*
X251171073Y53644619D01*
X251171073Y53853929D01*
X251066429Y53853929D01*
X251066429Y53958574D01*
X250752474Y53958574D01*
X250752474Y54063239D01*
X250438520Y54063239D01*
X250438520Y53958574D01*
X250333875Y53958574D01*
X250333875Y53853929D01*
X250124565Y53853929D01*
X250124565Y53958574D01*
X249496653Y53958574D01*
X249496653Y53853929D01*
X249287364Y53853929D01*
X249287364Y53749284D01*
X249182698Y53749284D01*
X249182698Y53435329D01*
X249078054Y53435329D01*
X249078054Y53330664D01*
X248764099Y53330664D01*
X248764099Y53435329D01*
X248659455Y53435329D01*
X248659455Y53539974D01*
X248450145Y53539974D01*
X248450145Y53644619D01*
X248345500Y53644619D01*
X248345500Y53749285D01*
X248240856Y53749285D01*
X248240856Y53853930D01*
X248136190Y53853930D01*
X248136190Y54063240D01*
X248031546Y54063240D01*
X248031546Y54167885D01*
X247926902Y54167885D01*
X247926902Y54377173D01*
X247822236Y54377173D01*
X247822236Y54481839D01*
X247717592Y54481839D01*
X247717592Y54586484D01*
X247508281Y54586484D01*
X247508281Y54691126D01*
X247508281Y54691129D01*
X247403637Y54691129D01*
X247403637Y54900439D01*
X247298993Y54900439D01*
X247298993Y55109749D01*
X247194348Y55109749D01*
X247194348Y55214394D01*
X251798991Y55214394D01*
X251798991Y54691126D01*
X251903636Y54691126D01*
X251903636Y54481837D01*
X252008280Y54481837D01*
X252008280Y54377172D01*
X252112946Y54377172D01*
X252112946Y54272527D01*
X252531545Y54272527D01*
X252531545Y54377172D01*
X252636190Y54377172D01*
X252636190Y54481837D01*
X252740835Y54481837D01*
X252740836Y54481838D01*
X252740836Y54481839D01*
X252740837Y54481840D01*
X252740837Y54481841D01*
X252740838Y54481841D01*
X252740838Y54900441D01*
X252531549Y54900441D01*
X252531549Y54691130D01*
X252426883Y54691130D01*
X252426883Y54586485D01*
X252217594Y54586485D01*
X252217594Y54795796D01*
X252112949Y54795796D01*
X252112949Y55109750D01*
X252217594Y55109750D01*
X252217594Y55214395D01*
X252531549Y55214395D01*
X252531549Y55319035D01*
X252531549Y55423684D01*
X252008280Y55423684D01*
X252008280Y55319039D01*
X251903636Y55319039D01*
X251903636Y55214394D01*
X251798991Y55214394D01*
X247194348Y55214394D01*
X247194348Y55632996D01*
X247298993Y55632996D01*
X247298993Y55737641D01*
X247403637Y55737641D01*
X247403637Y55842307D01*
X247508281Y55842307D01*
X247508281Y55946951D01*
X248031550Y55946951D01*
X248031550Y55842307D01*
X248240860Y55842307D01*
X248240860Y55737641D01*
X248450148Y55737641D01*
X248450148Y55632996D01*
X248659459Y55632996D01*
X248659459Y55528351D01*
X248868747Y55528351D01*
X248868747Y55423686D01*
X249078057Y55423686D01*
X249078057Y55319041D01*
X250438527Y55319041D01*
X250438527Y55423686D01*
X250961774Y55423686D01*
X250961774Y55528351D01*
X251380373Y55528351D01*
X251380373Y55632989D01*
X252740838Y55632989D01*
X252740838Y55319035D01*
X252950148Y55319035D01*
X252950148Y55423680D01*
X253054793Y55423680D01*
X253054793Y55109746D01*
X253159458Y55109746D01*
X253159458Y54795792D01*
X253264103Y54795792D01*
X253264103Y54691126D01*
X253473392Y54691126D01*
X253473392Y55319038D01*
X253368747Y55319038D01*
X253368747Y55632993D01*
X253473392Y55632993D01*
X253473392Y55737638D01*
X253578057Y55737638D01*
X253578057Y55946945D01*
X253368746Y55946945D01*
X253368746Y55842300D01*
X253159458Y55842300D01*
X253159458Y55737634D01*
X252845503Y55737634D01*
X252845503Y55632989D01*
X252740838Y55632989D01*
X251380373Y55632989D01*
X251380373Y55632996D01*
X251903641Y55632996D01*
X251903641Y55737641D01*
X252217596Y55737641D01*
X252217596Y55842307D01*
X252426884Y55842307D01*
X252426884Y55946951D01*
X252636195Y55946951D01*
X252636195Y56051596D01*
X252845505Y56051596D01*
X252845505Y56156240D01*
X253054794Y56156240D01*
X253054794Y56260906D01*
X253159460Y56260906D01*
X253159460Y56365551D01*
X253264104Y56365551D01*
X253264104Y56470195D01*
X253368749Y56470195D01*
X253368749Y56574861D01*
X253473394Y56574861D01*
X253473394Y56679505D01*
X253578060Y56679505D01*
X253578060Y56784150D01*
X253682705Y56784150D01*
X253682705Y56993460D01*
X253787349Y56993460D01*
X253787349Y57307414D01*
X253892015Y57307414D01*
X253892015Y57202748D01*
G37*
G36*
X254310603Y14579507D02*
G01*
X254310607Y14579507D01*
X254310614Y14579505D01*
X254310599Y14579505D01*
X254310599Y14579508D01*
X254310603Y14579507D01*
G37*
G36*
X248240852Y10916726D02*
G01*
X248136186Y10916726D01*
X248136186Y10812061D01*
X247822232Y10812061D01*
X247822232Y11021371D01*
X247717587Y11021371D01*
X247717587Y11230660D01*
X248136186Y11230660D01*
X248136186Y11335326D01*
X248240852Y11335326D01*
X248240852Y10916726D01*
G37*
G36*
X254624570Y14788815D02*
G01*
X254519904Y14788815D01*
X254519904Y14893460D01*
X254415259Y14893460D01*
X254415259Y15102748D01*
X254310614Y15102748D01*
X254310614Y15312058D01*
X254205948Y15312058D01*
X254205948Y15521368D01*
X254101304Y15521368D01*
X254101304Y15730657D01*
X253892015Y15730657D01*
X253892015Y15835323D01*
X253996660Y15835323D01*
X253996660Y15939968D01*
X254101305Y15939968D01*
X254101305Y16044612D01*
X254205949Y16044612D01*
X254205949Y16149256D01*
X254310614Y16149256D01*
X254310614Y16253922D01*
X254624570Y16253922D01*
X254624570Y14788815D01*
G37*
G36*
X251694318Y18242279D02*
G01*
X252008272Y18242279D01*
X252008272Y18032990D01*
X252322227Y18032990D01*
X252322227Y17928325D01*
X252531537Y17928325D01*
X252531537Y17823680D01*
X252636182Y17823680D01*
X252636182Y17719036D01*
X252740827Y17719036D01*
X252740827Y17614391D01*
X252845492Y17614391D01*
X252845492Y17509726D01*
X252950137Y17509726D01*
X252950137Y17405081D01*
X253054782Y17405081D01*
X253054782Y17195771D01*
X253159448Y17195771D01*
X253159448Y16986483D01*
X253264093Y16986483D01*
X253264093Y16777172D01*
X253368737Y16777172D01*
X253368737Y16672528D01*
X253264093Y16672528D01*
X253264093Y16567884D01*
X252531535Y16567884D01*
X252531535Y16672528D01*
X252322225Y16672528D01*
X252322225Y16672532D01*
X252322225Y16777172D01*
X251694313Y16777172D01*
X251694313Y16672528D01*
X251589668Y16672528D01*
X251589668Y16567884D01*
X251485024Y16567884D01*
X251485024Y16149260D01*
X251380358Y16149260D01*
X251380358Y15835327D01*
X251275714Y15835327D01*
X251275714Y15626017D01*
X251171069Y15626017D01*
X251171069Y15416706D01*
X250857115Y15416706D01*
X250857115Y15312062D01*
X251171069Y15312062D01*
X251171069Y15207417D01*
X251275714Y15207417D01*
X251275714Y15102752D01*
X251380358Y15102752D01*
X251380358Y14788819D01*
X251485024Y14788819D01*
X251485024Y14893463D01*
X252426870Y14893463D01*
X252426870Y14998107D01*
X252740824Y14998107D01*
X252740824Y15102752D01*
X252950134Y15102752D01*
X252950134Y15207417D01*
X253054779Y15207417D01*
X253054779Y15312062D01*
X253159445Y15312062D01*
X253159445Y15416706D01*
X253264090Y15416706D01*
X253264090Y15521372D01*
X253368734Y15521372D01*
X253368734Y15626017D01*
X253473379Y15626017D01*
X253473379Y14893459D01*
X253368734Y14893459D01*
X253368734Y14684149D01*
X253264090Y14684149D01*
X253264090Y14579505D01*
X253159445Y14579505D01*
X253159445Y14370195D01*
X253054779Y14370195D01*
X253054779Y14265551D01*
X252845491Y14265551D01*
X252845491Y14160906D01*
X252636180Y14160906D01*
X252636180Y14056240D01*
X252426870Y14056240D01*
X252426870Y13951596D01*
X252217581Y13951596D01*
X252217581Y13846951D01*
X251903627Y13846951D01*
X251903627Y13742307D01*
X251380358Y13742307D01*
X251380358Y13637641D01*
X250961760Y13637641D01*
X250961760Y13532996D01*
X248868737Y13532996D01*
X248868737Y13637641D01*
X248659448Y13637641D01*
X248659448Y13742307D01*
X248554782Y13742307D01*
X248554782Y13846951D01*
X248345493Y13846951D01*
X248345493Y13951596D01*
X248136183Y13951596D01*
X248136183Y14056240D01*
X247926894Y14056240D01*
X247926894Y13951596D01*
X247612940Y13951596D01*
X247612940Y14056240D01*
X247508279Y14056240D01*
X247508279Y14370195D01*
X247403635Y14370195D01*
X247403635Y15207417D01*
X247403635Y15312062D01*
X249705962Y15312062D01*
X249705962Y15207417D01*
X249915251Y15207417D01*
X249915251Y15312062D01*
X250019917Y15312062D01*
X250019917Y15416706D01*
X250124561Y15416706D01*
X250124561Y15521372D01*
X250752474Y15521372D01*
X250752474Y15626017D01*
X250647808Y15626017D01*
X250647808Y15730661D01*
X250438520Y15730661D01*
X250438520Y15835327D01*
X250124565Y15835327D01*
X250124565Y15730661D01*
X250019920Y15730661D01*
X250019920Y15626017D01*
X249915255Y15626017D01*
X249915255Y15521372D01*
X249810610Y15521372D01*
X249810610Y15312062D01*
X249705962Y15312062D01*
X247403635Y15312062D01*
X247403635Y15521372D01*
X247508279Y15521372D01*
X247508279Y16044619D01*
X247612945Y16044619D01*
X247612945Y16358574D01*
X247717589Y16358574D01*
X247717589Y16567884D01*
X247822234Y16567884D01*
X247822234Y16777172D01*
X247926899Y16777172D01*
X247926899Y16881817D01*
X248031544Y16881817D01*
X248031544Y16986483D01*
X248136188Y16986483D01*
X248136188Y16986486D01*
X252636191Y16986486D01*
X252636191Y16672532D01*
X252845501Y16672532D01*
X252845501Y16881821D01*
X253054790Y16881821D01*
X253054790Y17091131D01*
X252740836Y17091131D01*
X252740836Y16986486D01*
X252636191Y16986486D01*
X248136188Y16986486D01*
X248136188Y17091127D01*
X248240854Y17091127D01*
X248240854Y17195771D01*
X248345498Y17195771D01*
X248345498Y17300437D01*
X248450143Y17300437D01*
X248450143Y17405081D01*
X248554787Y17405081D01*
X248554787Y17509726D01*
X248659453Y17509726D01*
X248659453Y17614391D01*
X248764097Y17614391D01*
X248764097Y17719036D01*
X248973407Y17719036D01*
X248973407Y17823680D01*
X249182696Y17823680D01*
X249182696Y17928325D01*
X249392006Y17928325D01*
X249392006Y18032990D01*
X249601295Y18032990D01*
X249601295Y18137635D01*
X249810605Y18137635D01*
X249810605Y18242279D01*
X250333873Y18242279D01*
X250333873Y18346945D01*
X251694318Y18346945D01*
X251694318Y18242279D01*
G37*
G36*
X253892015Y15102748D02*
G01*
X253996660Y15102748D01*
X253996660Y14998104D01*
X254101305Y14998104D01*
X254101305Y14788815D01*
X254205949Y14788815D01*
X254205949Y14579505D01*
X254310599Y14579505D01*
X254310599Y14265554D01*
X254415244Y14265554D01*
X254415244Y12905084D01*
X254310599Y12905084D01*
X254310599Y12486484D01*
X254205933Y12486484D01*
X254205933Y12277174D01*
X254101288Y12277174D01*
X254101288Y12172530D01*
X253996644Y12172530D01*
X253996644Y12067885D01*
X253787334Y12067885D01*
X253787334Y11963240D01*
X253682689Y11963240D01*
X253682689Y11858574D01*
X253578044Y11858574D01*
X253578044Y11753930D01*
X253368734Y11753930D01*
X253368734Y11649285D01*
X253159445Y11649285D01*
X253159445Y11544619D01*
X252950134Y11544619D01*
X252950134Y11439974D01*
X252740824Y11439974D01*
X252740824Y11335329D01*
X252531535Y11335329D01*
X252531535Y11230664D01*
X252217581Y11230664D01*
X252217581Y11126019D01*
X251903627Y11126019D01*
X251903627Y11021374D01*
X251485027Y11021374D01*
X251485027Y11126019D01*
X251380362Y11126019D01*
X251380362Y11335329D01*
X251275717Y11335329D01*
X251275717Y11544619D01*
X251171073Y11544619D01*
X251171073Y11753929D01*
X251066429Y11753929D01*
X251066429Y11858574D01*
X250752474Y11858574D01*
X250752474Y11963239D01*
X250438520Y11963239D01*
X250438520Y11858574D01*
X250333875Y11858574D01*
X250333875Y11753929D01*
X250124565Y11753929D01*
X250124565Y11858574D01*
X249496653Y11858574D01*
X249496653Y11753929D01*
X249287364Y11753929D01*
X249287364Y11649284D01*
X249182698Y11649284D01*
X249182698Y11335329D01*
X249078054Y11335329D01*
X249078054Y11230664D01*
X248764099Y11230664D01*
X248764099Y11335329D01*
X248659455Y11335329D01*
X248659455Y11439974D01*
X248450145Y11439974D01*
X248450145Y11544619D01*
X248345500Y11544619D01*
X248345500Y11649285D01*
X248240856Y11649285D01*
X248240856Y11753930D01*
X248136190Y11753930D01*
X248136190Y11963240D01*
X248031546Y11963240D01*
X248031546Y12067885D01*
X247926902Y12067885D01*
X247926902Y12277173D01*
X247822236Y12277173D01*
X247822236Y12381839D01*
X247717592Y12381839D01*
X247717592Y12486484D01*
X247508281Y12486484D01*
X247508281Y12591126D01*
X247508281Y12591129D01*
X247403637Y12591129D01*
X247403637Y12800439D01*
X247298993Y12800439D01*
X247298993Y13009749D01*
X247194348Y13009749D01*
X247194348Y13114394D01*
X251798991Y13114394D01*
X251798991Y12591126D01*
X251903636Y12591126D01*
X251903636Y12381837D01*
X252008280Y12381837D01*
X252008280Y12277172D01*
X252112946Y12277172D01*
X252112946Y12172527D01*
X252531545Y12172527D01*
X252531545Y12277172D01*
X252636190Y12277172D01*
X252636190Y12381837D01*
X252740835Y12381837D01*
X252740836Y12381838D01*
X252740836Y12381839D01*
X252740837Y12381840D01*
X252740837Y12381841D01*
X252740838Y12381841D01*
X252740838Y12800441D01*
X252531549Y12800441D01*
X252531549Y12591130D01*
X252426883Y12591130D01*
X252426883Y12486485D01*
X252217594Y12486485D01*
X252217594Y12695796D01*
X252112949Y12695796D01*
X252112949Y13009750D01*
X252217594Y13009750D01*
X252217594Y13114395D01*
X252531549Y13114395D01*
X252531549Y13219035D01*
X252531549Y13323684D01*
X252008280Y13323684D01*
X252008280Y13219039D01*
X251903636Y13219039D01*
X251903636Y13114394D01*
X251798991Y13114394D01*
X247194348Y13114394D01*
X247194348Y13532996D01*
X247298993Y13532996D01*
X247298993Y13637641D01*
X247403637Y13637641D01*
X247403637Y13742307D01*
X247508281Y13742307D01*
X247508281Y13846951D01*
X248031550Y13846951D01*
X248031550Y13742307D01*
X248240860Y13742307D01*
X248240860Y13637641D01*
X248450148Y13637641D01*
X248450148Y13532996D01*
X248659459Y13532996D01*
X248659459Y13428351D01*
X248868747Y13428351D01*
X248868747Y13323686D01*
X249078057Y13323686D01*
X249078057Y13219041D01*
X250438527Y13219041D01*
X250438527Y13323686D01*
X250961774Y13323686D01*
X250961774Y13428351D01*
X251380373Y13428351D01*
X251380373Y13532989D01*
X252740838Y13532989D01*
X252740838Y13219035D01*
X252950148Y13219035D01*
X252950148Y13323680D01*
X253054793Y13323680D01*
X253054793Y13009746D01*
X253159458Y13009746D01*
X253159458Y12695792D01*
X253264103Y12695792D01*
X253264103Y12591126D01*
X253473392Y12591126D01*
X253473392Y13219038D01*
X253368747Y13219038D01*
X253368747Y13532993D01*
X253473392Y13532993D01*
X253473392Y13637638D01*
X253578057Y13637638D01*
X253578057Y13846945D01*
X253368746Y13846945D01*
X253368746Y13742300D01*
X253159458Y13742300D01*
X253159458Y13637634D01*
X252845503Y13637634D01*
X252845503Y13532989D01*
X252740838Y13532989D01*
X251380373Y13532989D01*
X251380373Y13532996D01*
X251903641Y13532996D01*
X251903641Y13637641D01*
X252217596Y13637641D01*
X252217596Y13742307D01*
X252426884Y13742307D01*
X252426884Y13846951D01*
X252636195Y13846951D01*
X252636195Y13951596D01*
X252845505Y13951596D01*
X252845505Y14056240D01*
X253054794Y14056240D01*
X253054794Y14160906D01*
X253159460Y14160906D01*
X253159460Y14265551D01*
X253264104Y14265551D01*
X253264104Y14370195D01*
X253368749Y14370195D01*
X253368749Y14474861D01*
X253473394Y14474861D01*
X253473394Y14579505D01*
X253578060Y14579505D01*
X253578060Y14684150D01*
X253682705Y14684150D01*
X253682705Y14893460D01*
X253787349Y14893460D01*
X253787349Y15207414D01*
X253892015Y15207414D01*
X253892015Y15102748D01*
G37*
G36*
X254310603Y35629507D02*
G01*
X254310607Y35629507D01*
X254310614Y35629505D01*
X254310599Y35629505D01*
X254310599Y35629508D01*
X254310603Y35629507D01*
G37*
G36*
X248240852Y31966726D02*
G01*
X248136186Y31966726D01*
X248136186Y31862061D01*
X247822232Y31862061D01*
X247822232Y32071371D01*
X247717587Y32071371D01*
X247717587Y32280660D01*
X248136186Y32280660D01*
X248136186Y32385326D01*
X248240852Y32385326D01*
X248240852Y31966726D01*
G37*
G36*
X254624570Y35838815D02*
G01*
X254519904Y35838815D01*
X254519904Y35943460D01*
X254415259Y35943460D01*
X254415259Y36152748D01*
X254310614Y36152748D01*
X254310614Y36362058D01*
X254205948Y36362058D01*
X254205948Y36571368D01*
X254101304Y36571368D01*
X254101304Y36780657D01*
X253892015Y36780657D01*
X253892015Y36885323D01*
X253996660Y36885323D01*
X253996660Y36989968D01*
X254101305Y36989968D01*
X254101305Y37094612D01*
X254205949Y37094612D01*
X254205949Y37199256D01*
X254310614Y37199256D01*
X254310614Y37303922D01*
X254624570Y37303922D01*
X254624570Y35838815D01*
G37*
G36*
X251694318Y39292279D02*
G01*
X252008272Y39292279D01*
X252008272Y39082990D01*
X252322227Y39082990D01*
X252322227Y38978325D01*
X252531537Y38978325D01*
X252531537Y38873680D01*
X252636182Y38873680D01*
X252636182Y38769036D01*
X252740827Y38769036D01*
X252740827Y38664391D01*
X252845492Y38664391D01*
X252845492Y38559726D01*
X252950137Y38559726D01*
X252950137Y38455081D01*
X253054782Y38455081D01*
X253054782Y38245771D01*
X253159448Y38245771D01*
X253159448Y38036483D01*
X253264093Y38036483D01*
X253264093Y37827172D01*
X253368737Y37827172D01*
X253368737Y37722528D01*
X253264093Y37722528D01*
X253264093Y37617884D01*
X252531535Y37617884D01*
X252531535Y37722528D01*
X252322225Y37722528D01*
X252322225Y37722532D01*
X252322225Y37827172D01*
X251694313Y37827172D01*
X251694313Y37722528D01*
X251589668Y37722528D01*
X251589668Y37617884D01*
X251485024Y37617884D01*
X251485024Y37199260D01*
X251380358Y37199260D01*
X251380358Y36885327D01*
X251275714Y36885327D01*
X251275714Y36676017D01*
X251171069Y36676017D01*
X251171069Y36466706D01*
X250857115Y36466706D01*
X250857115Y36362062D01*
X251171069Y36362062D01*
X251171069Y36257417D01*
X251275714Y36257417D01*
X251275714Y36152752D01*
X251380358Y36152752D01*
X251380358Y35838819D01*
X251485024Y35838819D01*
X251485024Y35943463D01*
X252426870Y35943463D01*
X252426870Y36048107D01*
X252740824Y36048107D01*
X252740824Y36152752D01*
X252950134Y36152752D01*
X252950134Y36257417D01*
X253054779Y36257417D01*
X253054779Y36362062D01*
X253159445Y36362062D01*
X253159445Y36466706D01*
X253264090Y36466706D01*
X253264090Y36571372D01*
X253368734Y36571372D01*
X253368734Y36676017D01*
X253473379Y36676017D01*
X253473379Y35943459D01*
X253368734Y35943459D01*
X253368734Y35734149D01*
X253264090Y35734149D01*
X253264090Y35629505D01*
X253159445Y35629505D01*
X253159445Y35420195D01*
X253054779Y35420195D01*
X253054779Y35315551D01*
X252845491Y35315551D01*
X252845491Y35210906D01*
X252636180Y35210906D01*
X252636180Y35106240D01*
X252426870Y35106240D01*
X252426870Y35001596D01*
X252217581Y35001596D01*
X252217581Y34896951D01*
X251903627Y34896951D01*
X251903627Y34792307D01*
X251380358Y34792307D01*
X251380358Y34687641D01*
X250961760Y34687641D01*
X250961760Y34582996D01*
X248868737Y34582996D01*
X248868737Y34687641D01*
X248659448Y34687641D01*
X248659448Y34792307D01*
X248554782Y34792307D01*
X248554782Y34896951D01*
X248345493Y34896951D01*
X248345493Y35001596D01*
X248136183Y35001596D01*
X248136183Y35106240D01*
X247926894Y35106240D01*
X247926894Y35001596D01*
X247612940Y35001596D01*
X247612940Y35106240D01*
X247508279Y35106240D01*
X247508279Y35420195D01*
X247403635Y35420195D01*
X247403635Y36257417D01*
X247403635Y36362062D01*
X249705962Y36362062D01*
X249705962Y36257417D01*
X249915251Y36257417D01*
X249915251Y36362062D01*
X250019917Y36362062D01*
X250019917Y36466706D01*
X250124561Y36466706D01*
X250124561Y36571372D01*
X250752474Y36571372D01*
X250752474Y36676017D01*
X250647808Y36676017D01*
X250647808Y36780661D01*
X250438520Y36780661D01*
X250438520Y36885327D01*
X250124565Y36885327D01*
X250124565Y36780661D01*
X250019920Y36780661D01*
X250019920Y36676017D01*
X249915255Y36676017D01*
X249915255Y36571372D01*
X249810610Y36571372D01*
X249810610Y36362062D01*
X249705962Y36362062D01*
X247403635Y36362062D01*
X247403635Y36571372D01*
X247508279Y36571372D01*
X247508279Y37094619D01*
X247612945Y37094619D01*
X247612945Y37408574D01*
X247717589Y37408574D01*
X247717589Y37617884D01*
X247822234Y37617884D01*
X247822234Y37827172D01*
X247926899Y37827172D01*
X247926899Y37931817D01*
X248031544Y37931817D01*
X248031544Y38036483D01*
X248136188Y38036483D01*
X248136188Y38036486D01*
X252636191Y38036486D01*
X252636191Y37722532D01*
X252845501Y37722532D01*
X252845501Y37931821D01*
X253054790Y37931821D01*
X253054790Y38141131D01*
X252740836Y38141131D01*
X252740836Y38036486D01*
X252636191Y38036486D01*
X248136188Y38036486D01*
X248136188Y38141127D01*
X248240854Y38141127D01*
X248240854Y38245771D01*
X248345498Y38245771D01*
X248345498Y38350437D01*
X248450143Y38350437D01*
X248450143Y38455081D01*
X248554787Y38455081D01*
X248554787Y38559726D01*
X248659453Y38559726D01*
X248659453Y38664391D01*
X248764097Y38664391D01*
X248764097Y38769036D01*
X248973407Y38769036D01*
X248973407Y38873680D01*
X249182696Y38873680D01*
X249182696Y38978325D01*
X249392006Y38978325D01*
X249392006Y39082990D01*
X249601295Y39082990D01*
X249601295Y39187635D01*
X249810605Y39187635D01*
X249810605Y39292279D01*
X250333873Y39292279D01*
X250333873Y39396945D01*
X251694318Y39396945D01*
X251694318Y39292279D01*
G37*
G36*
X253892015Y36152748D02*
G01*
X253996660Y36152748D01*
X253996660Y36048104D01*
X254101305Y36048104D01*
X254101305Y35838815D01*
X254205949Y35838815D01*
X254205949Y35629505D01*
X254310599Y35629505D01*
X254310599Y35315554D01*
X254415244Y35315554D01*
X254415244Y33955084D01*
X254310599Y33955084D01*
X254310599Y33536484D01*
X254205933Y33536484D01*
X254205933Y33327174D01*
X254101288Y33327174D01*
X254101288Y33222530D01*
X253996644Y33222530D01*
X253996644Y33117885D01*
X253787334Y33117885D01*
X253787334Y33013240D01*
X253682689Y33013240D01*
X253682689Y32908574D01*
X253578044Y32908574D01*
X253578044Y32803930D01*
X253368734Y32803930D01*
X253368734Y32699285D01*
X253159445Y32699285D01*
X253159445Y32594619D01*
X252950134Y32594619D01*
X252950134Y32489974D01*
X252740824Y32489974D01*
X252740824Y32385329D01*
X252531535Y32385329D01*
X252531535Y32280664D01*
X252217581Y32280664D01*
X252217581Y32176019D01*
X251903627Y32176019D01*
X251903627Y32071374D01*
X251485027Y32071374D01*
X251485027Y32176019D01*
X251380362Y32176019D01*
X251380362Y32385329D01*
X251275717Y32385329D01*
X251275717Y32594619D01*
X251171073Y32594619D01*
X251171073Y32803929D01*
X251066429Y32803929D01*
X251066429Y32908574D01*
X250752474Y32908574D01*
X250752474Y33013239D01*
X250438520Y33013239D01*
X250438520Y32908574D01*
X250333875Y32908574D01*
X250333875Y32803929D01*
X250124565Y32803929D01*
X250124565Y32908574D01*
X249496653Y32908574D01*
X249496653Y32803929D01*
X249287364Y32803929D01*
X249287364Y32699284D01*
X249182698Y32699284D01*
X249182698Y32385329D01*
X249078054Y32385329D01*
X249078054Y32280664D01*
X248764099Y32280664D01*
X248764099Y32385329D01*
X248659455Y32385329D01*
X248659455Y32489974D01*
X248450145Y32489974D01*
X248450145Y32594619D01*
X248345500Y32594619D01*
X248345500Y32699285D01*
X248240856Y32699285D01*
X248240856Y32803930D01*
X248136190Y32803930D01*
X248136190Y33013240D01*
X248031546Y33013240D01*
X248031546Y33117885D01*
X247926902Y33117885D01*
X247926902Y33327173D01*
X247822236Y33327173D01*
X247822236Y33431839D01*
X247717592Y33431839D01*
X247717592Y33536484D01*
X247508281Y33536484D01*
X247508281Y33641126D01*
X247508281Y33641129D01*
X247403637Y33641129D01*
X247403637Y33850439D01*
X247298993Y33850439D01*
X247298993Y34059749D01*
X247194348Y34059749D01*
X247194348Y34164394D01*
X251798991Y34164394D01*
X251798991Y33641126D01*
X251903636Y33641126D01*
X251903636Y33431837D01*
X252008280Y33431837D01*
X252008280Y33327172D01*
X252112946Y33327172D01*
X252112946Y33222527D01*
X252531545Y33222527D01*
X252531545Y33327172D01*
X252636190Y33327172D01*
X252636190Y33431837D01*
X252740835Y33431837D01*
X252740836Y33431838D01*
X252740836Y33431839D01*
X252740837Y33431840D01*
X252740837Y33431841D01*
X252740838Y33431841D01*
X252740838Y33850441D01*
X252531549Y33850441D01*
X252531549Y33641130D01*
X252426883Y33641130D01*
X252426883Y33536485D01*
X252217594Y33536485D01*
X252217594Y33745796D01*
X252112949Y33745796D01*
X252112949Y34059750D01*
X252217594Y34059750D01*
X252217594Y34164395D01*
X252531549Y34164395D01*
X252531549Y34269035D01*
X252531549Y34373684D01*
X252008280Y34373684D01*
X252008280Y34269039D01*
X251903636Y34269039D01*
X251903636Y34164394D01*
X251798991Y34164394D01*
X247194348Y34164394D01*
X247194348Y34582996D01*
X247298993Y34582996D01*
X247298993Y34687641D01*
X247403637Y34687641D01*
X247403637Y34792307D01*
X247508281Y34792307D01*
X247508281Y34896951D01*
X248031550Y34896951D01*
X248031550Y34792307D01*
X248240860Y34792307D01*
X248240860Y34687641D01*
X248450148Y34687641D01*
X248450148Y34582996D01*
X248659459Y34582996D01*
X248659459Y34478351D01*
X248868747Y34478351D01*
X248868747Y34373686D01*
X249078057Y34373686D01*
X249078057Y34269041D01*
X250438527Y34269041D01*
X250438527Y34373686D01*
X250961774Y34373686D01*
X250961774Y34478351D01*
X251380373Y34478351D01*
X251380373Y34582989D01*
X252740838Y34582989D01*
X252740838Y34269035D01*
X252950148Y34269035D01*
X252950148Y34373680D01*
X253054793Y34373680D01*
X253054793Y34059746D01*
X253159458Y34059746D01*
X253159458Y33745792D01*
X253264103Y33745792D01*
X253264103Y33641126D01*
X253473392Y33641126D01*
X253473392Y34269038D01*
X253368747Y34269038D01*
X253368747Y34582993D01*
X253473392Y34582993D01*
X253473392Y34687638D01*
X253578057Y34687638D01*
X253578057Y34896945D01*
X253368746Y34896945D01*
X253368746Y34792300D01*
X253159458Y34792300D01*
X253159458Y34687634D01*
X252845503Y34687634D01*
X252845503Y34582989D01*
X252740838Y34582989D01*
X251380373Y34582989D01*
X251380373Y34582996D01*
X251903641Y34582996D01*
X251903641Y34687641D01*
X252217596Y34687641D01*
X252217596Y34792307D01*
X252426884Y34792307D01*
X252426884Y34896951D01*
X252636195Y34896951D01*
X252636195Y35001596D01*
X252845505Y35001596D01*
X252845505Y35106240D01*
X253054794Y35106240D01*
X253054794Y35210906D01*
X253159460Y35210906D01*
X253159460Y35315551D01*
X253264104Y35315551D01*
X253264104Y35420195D01*
X253368749Y35420195D01*
X253368749Y35524861D01*
X253473394Y35524861D01*
X253473394Y35629505D01*
X253578060Y35629505D01*
X253578060Y35734150D01*
X253682705Y35734150D01*
X253682705Y35943460D01*
X253787349Y35943460D01*
X253787349Y36257414D01*
X253892015Y36257414D01*
X253892015Y36152748D01*
G37*
G04 #@! TD*
M02*
