G04 #@! TF.GenerationSoftware,KiCad,Pcbnew,8.0.2*
G04 #@! TF.CreationDate,2024-06-02T18:46:01+02:00*
G04 #@! TF.ProjectId,KeyboardUnitRuler-panel,4b657962-6f61-4726-9455-6e697452756c,rev?*
G04 #@! TF.SameCoordinates,Original*
G04 #@! TF.FileFunction,Paste,Bot*
G04 #@! TF.FilePolarity,Positive*
%FSLAX46Y46*%
G04 Gerber Fmt 4.6, Leading zero omitted, Abs format (unit mm)*
G04 Created by KiCad (PCBNEW 8.0.2) date 2024-06-02 18:46:01*
%MOMM*%
%LPD*%
G01*
G04 APERTURE LIST*
G04 Aperture macros list*
%AMRoundRect*
0 Rectangle with rounded corners*
0 $1 Rounding radius*
0 $2 $3 $4 $5 $6 $7 $8 $9 X,Y pos of 4 corners*
0 Add a 4 corners polygon primitive as box body*
4,1,4,$2,$3,$4,$5,$6,$7,$8,$9,$2,$3,0*
0 Add four circle primitives for the rounded corners*
1,1,$1+$1,$2,$3*
1,1,$1+$1,$4,$5*
1,1,$1+$1,$6,$7*
1,1,$1+$1,$8,$9*
0 Add four rect primitives between the rounded corners*
20,1,$1+$1,$2,$3,$4,$5,0*
20,1,$1+$1,$4,$5,$6,$7,0*
20,1,$1+$1,$6,$7,$8,$9,0*
20,1,$1+$1,$8,$9,$2,$3,0*%
G04 Aperture macros list end*
%ADD10C,2.000000*%
%ADD11RoundRect,0.218750X0.218750X0.256250X-0.218750X0.256250X-0.218750X-0.256250X0.218750X-0.256250X0*%
%ADD12R,0.700000X0.450000*%
%ADD13RoundRect,0.250000X0.375000X0.625000X-0.375000X0.625000X-0.375000X-0.625000X0.375000X-0.625000X0*%
%ADD14R,0.600000X0.700000*%
%ADD15R,1.220000X0.650000*%
%ADD16R,0.650000X0.400000*%
%ADD17R,0.600000X0.450000*%
%ADD18R,1.060000X0.650000*%
%ADD19R,0.330000X0.270000*%
%ADD20RoundRect,0.250000X0.375000X1.075000X-0.375000X1.075000X-0.375000X-1.075000X0.375000X-1.075000X0*%
%ADD21R,0.800000X0.900000*%
%ADD22R,1.200000X1.400000*%
%ADD23RoundRect,0.147500X0.147500X0.172500X-0.147500X0.172500X-0.147500X-0.172500X0.147500X-0.172500X0*%
%ADD24RoundRect,0.067500X0.067500X0.067500X-0.067500X0.067500X-0.067500X-0.067500X0.067500X-0.067500X0*%
%ADD25R,2.000000X1.500000*%
%ADD26R,2.000000X3.800000*%
%ADD27RoundRect,0.243750X0.243750X0.456250X-0.243750X0.456250X-0.243750X-0.456250X0.243750X-0.456250X0*%
%ADD28R,0.900000X1.200000*%
%ADD29RoundRect,0.079500X0.079500X0.100500X-0.079500X0.100500X-0.079500X-0.100500X0.079500X-0.100500X0*%
%ADD30R,0.450000X0.400000*%
%ADD31R,0.450000X0.500000*%
G04 APERTURE END LIST*
D10*
G04 #@! TO.C,KiKit_TO_1*
X2500000Y118750000D03*
G04 #@! TD*
G04 #@! TO.C,KiKit_TO_2*
X262247526Y118750000D03*
G04 #@! TD*
G04 #@! TO.C,KiKit_TO_3*
X2500000Y2500000D03*
G04 #@! TD*
D11*
G04 #@! TO.C,REF\u002A\u002A*
X246954738Y104114486D03*
X245379738Y104114486D03*
G04 #@! TD*
D12*
G04 #@! TO.C,REF\u002A\u002A*
X203352430Y100920372D03*
X203352430Y102220372D03*
X205352430Y101570372D03*
G04 #@! TD*
D13*
G04 #@! TO.C,REF\u002A\u002A*
X247567238Y77564486D03*
X244767238Y77564486D03*
G04 #@! TD*
D14*
G04 #@! TO.C,REF\u002A\u002A*
X227268806Y105720372D03*
X225868806Y105720372D03*
G04 #@! TD*
D15*
G04 #@! TO.C,REF\u002A\u002A*
X202792430Y62570372D03*
X202792430Y64470372D03*
X205412430Y63520372D03*
G04 #@! TD*
D16*
G04 #@! TO.C,REF\u002A\u002A*
X216552430Y18020372D03*
X216552430Y17370372D03*
X216552430Y16720372D03*
X214652430Y16720372D03*
X214652430Y17370372D03*
X214652430Y18020372D03*
G04 #@! TD*
D17*
G04 #@! TO.C,REF\u002A\u002A*
X227618806Y103320372D03*
X225518806Y103320372D03*
G04 #@! TD*
D12*
G04 #@! TO.C,REF\u002A\u002A*
X203352430Y79870372D03*
X203352430Y81170372D03*
X205352430Y80520372D03*
G04 #@! TD*
D18*
G04 #@! TO.C,*
X216702430Y43420372D03*
X216702430Y42470372D03*
X216702430Y41520372D03*
X214502430Y41520372D03*
X214502430Y42470372D03*
X214502430Y43420372D03*
G04 #@! TD*
D19*
G04 #@! TO.C,REF\u002A\u002A*
X215942430Y35770372D03*
X215942430Y35270372D03*
X215942430Y34770372D03*
X215262430Y34770372D03*
X215262430Y35270372D03*
X215262430Y35770372D03*
G04 #@! TD*
D11*
G04 #@! TO.C,REF\u002A\u002A*
X246954738Y40964486D03*
X245379738Y40964486D03*
G04 #@! TD*
D18*
G04 #@! TO.C,*
X216702430Y85520372D03*
X216702430Y84570372D03*
X216702430Y83620372D03*
X214502430Y83620372D03*
X214502430Y84570372D03*
X214502430Y85520372D03*
G04 #@! TD*
D20*
G04 #@! TO.C,REF\u002A\u002A*
X247567238Y95064486D03*
X244767238Y95064486D03*
G04 #@! TD*
D21*
G04 #@! TO.C,REF\u002A\u002A*
X36556471Y33575456D03*
X36556471Y34975456D03*
X37656471Y34975456D03*
X37656471Y33575456D03*
G04 #@! TD*
D22*
G04 #@! TO.C,REF\u002A\u002A*
X32356470Y96325456D03*
X32356470Y98525456D03*
X34056470Y98525456D03*
X34056470Y96325456D03*
G04 #@! TD*
D13*
G04 #@! TO.C,REF\u002A\u002A*
X247567238Y98614486D03*
X244767238Y98614486D03*
G04 #@! TD*
D14*
G04 #@! TO.C,REF\u002A\u002A*
X227268806Y63620372D03*
X225868806Y63620372D03*
G04 #@! TD*
G04 #@! TO.C,REF\u002A\u002A*
X227268806Y42570372D03*
X225868806Y42570372D03*
G04 #@! TD*
D11*
G04 #@! TO.C,REF\u002A\u002A*
X246954738Y83064486D03*
X245379738Y83064486D03*
G04 #@! TD*
D17*
G04 #@! TO.C,REF\u002A\u002A*
X227618806Y19120372D03*
X225518806Y19120372D03*
G04 #@! TD*
D23*
G04 #@! TO.C,REF\u002A\u002A*
X246652238Y106214486D03*
X245682238Y106214486D03*
G04 #@! TD*
D24*
G04 #@! TO.C,REF\u002A\u002A*
X246442238Y46364486D03*
X245892238Y46364486D03*
G04 #@! TD*
D25*
G04 #@! TO.C,REF\u002A\u002A*
X188452430Y79970372D03*
X188452430Y82270372D03*
X188452430Y84570372D03*
D26*
X194752430Y82270372D03*
G04 #@! TD*
D23*
G04 #@! TO.C,REF\u002A\u002A*
X246652238Y43064486D03*
X245682238Y43064486D03*
G04 #@! TD*
D27*
G04 #@! TO.C,REF\u002A\u002A*
X247104738Y38364486D03*
X245229738Y38364486D03*
G04 #@! TD*
D15*
G04 #@! TO.C,REF\u002A\u002A*
X202792430Y83620372D03*
X202792430Y85520372D03*
X205412430Y84570372D03*
G04 #@! TD*
D28*
G04 #@! TO.C,REF\u002A\u002A*
X228318806Y58320372D03*
X225018806Y58320372D03*
G04 #@! TD*
D29*
G04 #@! TO.C,REF\u002A\u002A*
X246512238Y65914486D03*
X245822238Y65914486D03*
G04 #@! TD*
D20*
G04 #@! TO.C,REF\u002A\u002A*
X247567238Y10864486D03*
X244767238Y10864486D03*
G04 #@! TD*
D28*
G04 #@! TO.C,REF\u002A\u002A*
X228318806Y79370372D03*
X225018806Y79370372D03*
G04 #@! TD*
D29*
G04 #@! TO.C,REF\u002A\u002A*
X246512238Y44864486D03*
X245822238Y44864486D03*
G04 #@! TD*
D20*
G04 #@! TO.C,REF\u002A\u002A*
X247567238Y74014486D03*
X244767238Y74014486D03*
G04 #@! TD*
D27*
G04 #@! TO.C,REF\u002A\u002A*
X247104738Y17314486D03*
X245229738Y17314486D03*
G04 #@! TD*
D11*
G04 #@! TO.C,REF\u002A\u002A*
X246954738Y62014486D03*
X245379738Y62014486D03*
G04 #@! TD*
D21*
G04 #@! TO.C,REF\u002A\u002A*
X36556471Y75675456D03*
X36556471Y77075456D03*
X37656471Y77075456D03*
X37656471Y75675456D03*
G04 #@! TD*
D23*
G04 #@! TO.C,REF\u002A\u002A*
X246652238Y22014486D03*
X245682238Y22014486D03*
G04 #@! TD*
D22*
G04 #@! TO.C,REF\u002A\u002A*
X32356470Y33175456D03*
X32356470Y35375456D03*
X34056470Y35375456D03*
X34056470Y33175456D03*
G04 #@! TD*
D27*
G04 #@! TO.C,REF\u002A\u002A*
X247104738Y80464486D03*
X245229738Y80464486D03*
G04 #@! TD*
D12*
G04 #@! TO.C,REF\u002A\u002A*
X203352430Y16720372D03*
X203352430Y18020372D03*
X205352430Y17370372D03*
G04 #@! TD*
D13*
G04 #@! TO.C,REF\u002A\u002A*
X247567238Y14414486D03*
X244767238Y14414486D03*
G04 #@! TD*
D15*
G04 #@! TO.C,REF\u002A\u002A*
X202792430Y104670372D03*
X202792430Y106570372D03*
X205412430Y105620372D03*
G04 #@! TD*
D29*
G04 #@! TO.C,REF\u002A\u002A*
X246512238Y23814486D03*
X245822238Y23814486D03*
G04 #@! TD*
D21*
G04 #@! TO.C,REF\u002A\u002A*
X36556471Y96725456D03*
X36556471Y98125456D03*
X37656471Y98125456D03*
X37656471Y96725456D03*
G04 #@! TD*
D25*
G04 #@! TO.C,REF\u002A\u002A*
X188452430Y37870372D03*
X188452430Y40170372D03*
X188452430Y42470372D03*
D26*
X194752430Y40170372D03*
G04 #@! TD*
D20*
G04 #@! TO.C,REF\u002A\u002A*
X247567238Y52964486D03*
X244767238Y52964486D03*
G04 #@! TD*
D16*
G04 #@! TO.C,REF\u002A\u002A*
X216552430Y81170372D03*
X216552430Y80520372D03*
X216552430Y79870372D03*
X214652430Y79870372D03*
X214652430Y80520372D03*
X214652430Y81170372D03*
G04 #@! TD*
D20*
G04 #@! TO.C,REF\u002A\u002A*
X247567238Y31914486D03*
X244767238Y31914486D03*
G04 #@! TD*
D19*
G04 #@! TO.C,REF\u002A\u002A*
X215942430Y14720372D03*
X215942430Y14220372D03*
X215942430Y13720372D03*
X215262430Y13720372D03*
X215262430Y14220372D03*
X215262430Y14720372D03*
G04 #@! TD*
D18*
G04 #@! TO.C,*
X216702430Y106570372D03*
X216702430Y105620372D03*
X216702430Y104670372D03*
X214502430Y104670372D03*
X214502430Y105620372D03*
X214502430Y106570372D03*
G04 #@! TD*
D24*
G04 #@! TO.C,REF\u002A\u002A*
X246442238Y67414486D03*
X245892238Y67414486D03*
G04 #@! TD*
D30*
G04 #@! TO.C,REF\u002A\u002A*
X204027430Y76970372D03*
X204027430Y77770372D03*
D31*
X205177430Y77370372D03*
G04 #@! TD*
D22*
G04 #@! TO.C,REF\u002A\u002A*
X32356470Y12125456D03*
X32356470Y14325456D03*
X34056470Y14325456D03*
X34056470Y12125456D03*
G04 #@! TD*
D30*
G04 #@! TO.C,REF\u002A\u002A*
X204027430Y13820372D03*
X204027430Y14620372D03*
D31*
X205177430Y14220372D03*
G04 #@! TD*
D22*
G04 #@! TO.C,REF\u002A\u002A*
X32356470Y75275456D03*
X32356470Y77475456D03*
X34056470Y77475456D03*
X34056470Y75275456D03*
G04 #@! TD*
D29*
G04 #@! TO.C,REF\u002A\u002A*
X246512238Y86964486D03*
X245822238Y86964486D03*
G04 #@! TD*
D14*
G04 #@! TO.C,REF\u002A\u002A*
X227268806Y21520372D03*
X225868806Y21520372D03*
G04 #@! TD*
D21*
G04 #@! TO.C,REF\u002A\u002A*
X36556471Y54625456D03*
X36556471Y56025456D03*
X37656471Y56025456D03*
X37656471Y54625456D03*
G04 #@! TD*
D12*
G04 #@! TO.C,REF\u002A\u002A*
X203352430Y37770372D03*
X203352430Y39070372D03*
X205352430Y38420372D03*
G04 #@! TD*
D16*
G04 #@! TO.C,REF\u002A\u002A*
X216552430Y102220372D03*
X216552430Y101570372D03*
X216552430Y100920372D03*
X214652430Y100920372D03*
X214652430Y101570372D03*
X214652430Y102220372D03*
G04 #@! TD*
D18*
G04 #@! TO.C,*
X216702430Y64470372D03*
X216702430Y63520372D03*
X216702430Y62570372D03*
X214502430Y62570372D03*
X214502430Y63520372D03*
X214502430Y64470372D03*
G04 #@! TD*
G04 #@! TO.C,*
X216702430Y22370372D03*
X216702430Y21420372D03*
X216702430Y20470372D03*
X214502430Y20470372D03*
X214502430Y21420372D03*
X214502430Y22370372D03*
G04 #@! TD*
D28*
G04 #@! TO.C,REF\u002A\u002A*
X228318806Y16220372D03*
X225018806Y16220372D03*
G04 #@! TD*
D30*
G04 #@! TO.C,REF\u002A\u002A*
X204027430Y55920372D03*
X204027430Y56720372D03*
D31*
X205177430Y56320372D03*
G04 #@! TD*
D16*
G04 #@! TO.C,REF\u002A\u002A*
X216552430Y39070372D03*
X216552430Y38420372D03*
X216552430Y37770372D03*
X214652430Y37770372D03*
X214652430Y38420372D03*
X214652430Y39070372D03*
G04 #@! TD*
D13*
G04 #@! TO.C,REF\u002A\u002A*
X247567238Y56514486D03*
X244767238Y56514486D03*
G04 #@! TD*
D28*
G04 #@! TO.C,REF\u002A\u002A*
X228318806Y37270372D03*
X225018806Y37270372D03*
G04 #@! TD*
D12*
G04 #@! TO.C,REF\u002A\u002A*
X203352430Y58820372D03*
X203352430Y60120372D03*
X205352430Y59470372D03*
G04 #@! TD*
D17*
G04 #@! TO.C,REF\u002A\u002A*
X227618806Y40170372D03*
X225518806Y40170372D03*
G04 #@! TD*
D13*
G04 #@! TO.C,REF\u002A\u002A*
X247567238Y35464486D03*
X244767238Y35464486D03*
G04 #@! TD*
D15*
G04 #@! TO.C,REF\u002A\u002A*
X202792430Y41520372D03*
X202792430Y43420372D03*
X205412430Y42470372D03*
G04 #@! TD*
D22*
G04 #@! TO.C,REF\u002A\u002A*
X32356470Y54225456D03*
X32356470Y56425456D03*
X34056470Y56425456D03*
X34056470Y54225456D03*
G04 #@! TD*
D19*
G04 #@! TO.C,REF\u002A\u002A*
X215942430Y56820372D03*
X215942430Y56320372D03*
X215942430Y55820372D03*
X215262430Y55820372D03*
X215262430Y56320372D03*
X215262430Y56820372D03*
G04 #@! TD*
D24*
G04 #@! TO.C,REF\u002A\u002A*
X246442238Y88464486D03*
X245892238Y88464486D03*
G04 #@! TD*
D28*
G04 #@! TO.C,REF\u002A\u002A*
X228318806Y100420372D03*
X225018806Y100420372D03*
G04 #@! TD*
D21*
G04 #@! TO.C,REF\u002A\u002A*
X36556471Y12525456D03*
X36556471Y13925456D03*
X37656471Y13925456D03*
X37656471Y12525456D03*
G04 #@! TD*
D16*
G04 #@! TO.C,REF\u002A\u002A*
X216552430Y60120372D03*
X216552430Y59470372D03*
X216552430Y58820372D03*
X214652430Y58820372D03*
X214652430Y59470372D03*
X214652430Y60120372D03*
G04 #@! TD*
D19*
G04 #@! TO.C,REF\u002A\u002A*
X215942430Y98920372D03*
X215942430Y98420372D03*
X215942430Y97920372D03*
X215262430Y97920372D03*
X215262430Y98420372D03*
X215262430Y98920372D03*
G04 #@! TD*
D15*
G04 #@! TO.C,REF\u002A\u002A*
X202792430Y20470372D03*
X202792430Y22370372D03*
X205412430Y21420372D03*
G04 #@! TD*
D30*
G04 #@! TO.C,REF\u002A\u002A*
X204027430Y98020372D03*
X204027430Y98820372D03*
D31*
X205177430Y98420372D03*
G04 #@! TD*
D23*
G04 #@! TO.C,REF\u002A\u002A*
X246652238Y64114486D03*
X245682238Y64114486D03*
G04 #@! TD*
D24*
G04 #@! TO.C,REF\u002A\u002A*
X246442238Y25314486D03*
X245892238Y25314486D03*
G04 #@! TD*
D17*
G04 #@! TO.C,REF\u002A\u002A*
X227618806Y82270372D03*
X225518806Y82270372D03*
G04 #@! TD*
D29*
G04 #@! TO.C,REF\u002A\u002A*
X246512238Y108014486D03*
X245822238Y108014486D03*
G04 #@! TD*
D24*
G04 #@! TO.C,REF\u002A\u002A*
X246442238Y109514486D03*
X245892238Y109514486D03*
G04 #@! TD*
D19*
G04 #@! TO.C,REF\u002A\u002A*
X215942430Y77870372D03*
X215942430Y77370372D03*
X215942430Y76870372D03*
X215262430Y76870372D03*
X215262430Y77370372D03*
X215262430Y77870372D03*
G04 #@! TD*
D25*
G04 #@! TO.C,REF\u002A\u002A*
X188452430Y16820372D03*
X188452430Y19120372D03*
X188452430Y21420372D03*
D26*
X194752430Y19120372D03*
G04 #@! TD*
D25*
G04 #@! TO.C,REF\u002A\u002A*
X188452430Y101020372D03*
X188452430Y103320372D03*
X188452430Y105620372D03*
D26*
X194752430Y103320372D03*
G04 #@! TD*
D11*
G04 #@! TO.C,REF\u002A\u002A*
X246954738Y19914486D03*
X245379738Y19914486D03*
G04 #@! TD*
D27*
G04 #@! TO.C,REF\u002A\u002A*
X247104738Y101514486D03*
X245229738Y101514486D03*
G04 #@! TD*
D23*
G04 #@! TO.C,REF\u002A\u002A*
X246652238Y85164486D03*
X245682238Y85164486D03*
G04 #@! TD*
D14*
G04 #@! TO.C,REF\u002A\u002A*
X227268806Y84670372D03*
X225868806Y84670372D03*
G04 #@! TD*
D25*
G04 #@! TO.C,REF\u002A\u002A*
X188452430Y58920372D03*
X188452430Y61220372D03*
X188452430Y63520372D03*
D26*
X194752430Y61220372D03*
G04 #@! TD*
D27*
G04 #@! TO.C,REF\u002A\u002A*
X247104738Y59414486D03*
X245229738Y59414486D03*
G04 #@! TD*
D17*
G04 #@! TO.C,REF\u002A\u002A*
X227618806Y61220372D03*
X225518806Y61220372D03*
G04 #@! TD*
D30*
G04 #@! TO.C,REF\u002A\u002A*
X204027430Y34870372D03*
X204027430Y35670372D03*
D31*
X205177430Y35270372D03*
G04 #@! TD*
M02*
