M48
; DRILL file {KiCad 8.0.2} date 2024-06-02T18:46:01+0200
; FORMAT={-:-/ absolute / metric / decimal}
; #@! TF.CreationDate,2024-06-02T18:46:01+02:00
; #@! TF.GenerationSoftware,Kicad,Pcbnew,8.0.2
; #@! TF.FileFunction,MixedPlating,1,2
FMAT,2
METRIC
; #@! TA.AperFunction,NonPlated,NPTH,ComponentDrill
T1C0.500
; #@! TA.AperFunction,NonPlated,NPTH,ComponentDrill
T2C2.000
%
G90
G05
T1
X0.0Y112.25
X0.0Y9.0
X0.8Y112.25
X0.8Y9.0
X1.6Y112.25
X1.6Y9.0
X2.4Y112.25
X2.4Y9.0
X3.2Y112.25
X3.2Y9.0
X4.0Y112.25
X4.0Y9.0
X4.8Y112.25
X4.8Y9.0
X5.6Y112.25
X5.6Y9.0
X6.4Y112.25
X6.4Y9.0
X7.2Y112.25
X7.2Y9.0
X8.0Y112.25
X8.0Y9.0
X9.0Y121.25
X9.0Y120.45
X9.0Y119.65
X9.0Y118.85
X9.0Y118.05
X9.0Y117.25
X9.0Y116.45
X9.0Y115.65
X9.0Y114.85
X9.0Y114.05
X9.0Y113.25
X9.0Y8.0
X9.0Y7.2
X9.0Y6.4
X9.0Y5.6
X9.0Y4.8
X9.0Y4.0
X9.0Y3.2
X9.0Y2.4
X9.0Y1.6
X9.0Y0.8
X9.0Y0.0
X9.0Y104.225
X9.0Y83.175
X9.0Y62.125
X9.0Y41.075
X9.0Y20.025
X9.0Y103.225
X9.0Y82.175
X9.0Y61.125
X9.0Y40.075
X9.0Y19.025
X9.0Y102.225
X9.0Y81.175
X9.0Y60.125
X9.0Y39.075
X9.0Y18.025
X9.0Y101.225
X9.0Y80.175
X9.0Y59.125
X9.0Y38.075
X9.0Y17.025
X130.874Y112.245
X130.874Y93.205
X130.874Y91.195
X130.874Y72.155
X130.874Y70.145
X130.874Y51.105
X130.874Y49.095
X130.874Y30.055
X130.874Y28.045
X130.874Y9.005
X131.874Y112.245
X131.874Y93.205
X131.874Y91.195
X131.874Y72.155
X131.874Y70.145
X131.874Y51.105
X131.874Y49.095
X131.874Y30.055
X131.874Y28.045
X131.874Y9.005
X132.874Y93.205
X132.874Y72.155
X132.874Y51.105
X132.874Y30.055
X132.874Y9.005
X132.874Y112.245
X132.874Y91.195
X132.874Y70.145
X132.874Y49.095
X132.874Y28.045
X133.874Y112.245
X133.874Y93.205
X133.874Y91.195
X133.874Y72.155
X133.874Y70.145
X133.874Y51.105
X133.874Y49.095
X133.874Y30.055
X133.874Y28.045
X133.874Y9.005
X255.748Y121.25
X255.748Y120.45
X255.748Y119.65
X255.748Y118.85
X255.748Y118.05
X255.748Y117.25
X255.748Y116.45
X255.748Y115.65
X255.748Y114.85
X255.748Y114.05
X255.748Y113.25
X255.748Y104.225
X255.748Y103.225
X255.748Y102.225
X255.748Y101.225
X255.748Y83.175
X255.748Y82.175
X255.748Y81.175
X255.748Y80.175
X255.748Y62.125
X255.748Y61.125
X255.748Y60.125
X255.748Y59.125
X255.748Y41.075
X255.748Y40.075
X255.748Y39.075
X255.748Y38.075
X255.748Y20.025
X255.748Y19.025
X255.748Y18.025
X255.748Y17.025
X255.748Y8.0
X255.748Y7.2
X255.748Y6.4
X255.748Y5.6
X255.748Y4.8
X255.748Y4.0
X255.748Y3.2
X255.748Y2.4
X255.748Y1.6
X255.748Y0.8
X255.748Y0.0
X256.748Y112.25
X256.748Y9.0
X257.548Y112.25
X257.548Y9.0
X258.348Y112.25
X258.348Y9.0
X259.148Y112.25
X259.148Y9.0
X259.948Y112.25
X259.948Y9.0
X260.748Y112.25
X260.748Y9.0
X261.548Y112.25
X261.548Y9.0
X262.348Y112.25
X262.348Y9.0
X263.148Y112.25
X263.148Y9.0
X263.948Y112.25
X263.948Y9.0
X264.748Y112.25
X264.748Y9.0
T2
X2.5Y118.75
X2.5Y2.5
X262.248Y118.75
M30
