G04 #@! TF.GenerationSoftware,KiCad,Pcbnew,8.0.2*
G04 #@! TF.CreationDate,2024-06-02T18:46:01+02:00*
G04 #@! TF.ProjectId,KeyboardUnitRuler-panel,4b657962-6f61-4726-9455-6e697452756c,rev?*
G04 #@! TF.SameCoordinates,Original*
G04 #@! TF.FileFunction,Profile,NP*
%FSLAX46Y46*%
G04 Gerber Fmt 4.6, Leading zero omitted, Abs format (unit mm)*
G04 Created by KiCad (PCBNEW 8.0.2) date 2024-06-02 18:46:01*
%MOMM*%
%LPD*%
G01*
G04 APERTURE LIST*
G04 #@! TA.AperFunction,Profile*
%ADD10C,0.100000*%
G04 #@! TD*
G04 APERTURE END LIST*
D10*
X9097907Y73541565D02*
X9132859Y73442864D01*
X9063844Y26541832D02*
X9040939Y26443124D01*
X255543135Y69030789D02*
X255496219Y69120604D01*
X254442136Y91075505D02*
X254346252Y91108279D01*
X617316Y76121D02*
X709715Y43060D01*
X254971737Y72568449D02*
X255050270Y72632484D01*
X9585801Y93795390D02*
X9661752Y93723314D01*
X254248831Y49036155D02*
X254150123Y49059060D01*
X255125459Y9550415D02*
X255197111Y9622067D01*
X8000000Y83175000D02*
X8000000Y101225000D01*
X254718129Y111998694D02*
X254628314Y112045610D01*
X253747526Y9000000D02*
X253848824Y9002567D01*
X10186534Y72332511D02*
X10283270Y72292441D01*
X264303096Y168531D02*
X264381919Y226990D01*
X9218005Y52201620D02*
X9267967Y52109602D01*
X130873763Y113250000D02*
X130873763Y112245205D01*
X255125459Y27499586D02*
X255050270Y27567517D01*
X255125459Y30600415D02*
X255197111Y30672067D01*
X11000000Y70140526D02*
X10898701Y70137960D01*
X254346252Y51191722D02*
X254442136Y51224496D01*
X253747526Y30050000D02*
X253848824Y30052567D01*
X9091720Y68739253D02*
X9063844Y68641832D01*
X255050270Y72632484D02*
X255125459Y72700415D01*
X253848824Y70147434D02*
X253747526Y70150000D01*
X9000000Y89190526D02*
X9000008Y83175000D01*
X255444814Y73092072D02*
X255496219Y73179397D01*
X9513725Y51771342D02*
X9585801Y51695390D01*
X255444814Y94142072D02*
X255496219Y94229397D01*
X9063844Y89691832D02*
X9040939Y89593124D01*
X255744959Y68251299D02*
X255737264Y68352337D01*
X253848824Y51102567D02*
X253949862Y51110262D01*
X10597402Y70099587D02*
X10498694Y70076682D01*
X130873763Y92201000D02*
X130873763Y92199000D01*
X254628314Y30254391D02*
X254718129Y30301307D01*
X10186534Y30232511D02*
X10283270Y30192441D01*
X253949862Y72160262D02*
X254050381Y72173064D01*
X255329077Y93975789D02*
X255389052Y94057464D01*
X133873763Y29049000D02*
X133873763Y29051000D01*
X133873763Y71151000D02*
X133873763Y72154738D01*
X254805454Y9302712D02*
X254890062Y9358474D01*
X9124494Y89885138D02*
X9091720Y89789253D01*
X255050270Y27567517D02*
X254971737Y27631552D01*
X9091720Y89789253D02*
X9063844Y89691832D01*
X9172928Y73346127D02*
X9218005Y73251620D01*
X9857462Y90832055D02*
X9775786Y90772079D01*
X254442136Y70025505D02*
X254346252Y70058279D01*
X255197111Y69527934D02*
X255125459Y69599586D01*
X9381983Y72984032D02*
X9445724Y72900962D01*
X9023062Y26343382D02*
X9010260Y26242863D01*
X254050381Y49076937D02*
X253949862Y49089739D01*
X9585801Y51695390D02*
X9661752Y51623314D01*
X9482482Y48393273D02*
X9418447Y48314740D01*
X9445724Y30800962D02*
X9513725Y30721342D01*
X255585441Y73361289D02*
X255623030Y73455390D01*
X9068168Y10491960D02*
X9097907Y10391565D01*
X254346252Y72241722D02*
X254442136Y72274496D01*
X9010260Y110442863D02*
X9002566Y110341825D01*
X11000000Y72159595D02*
X130873763Y72154857D01*
X255265042Y9697256D02*
X255329077Y9775789D01*
X255747526Y53100000D02*
X255747526Y59125000D01*
X254346252Y49008279D02*
X254248831Y49036155D01*
X9002566Y68241825D02*
X9000000Y68140526D01*
X255724462Y110552856D02*
X255706585Y110652598D01*
X9023062Y68443382D02*
X9010260Y68342863D01*
X254050381Y112226937D02*
X253949862Y112239739D01*
X9162083Y47879239D02*
X9124494Y47785138D01*
X10597402Y91149587D02*
X10498694Y91126682D01*
X255655804Y73551274D02*
X255683680Y73648695D01*
X9622065Y111690113D02*
X9550413Y111618461D01*
X255683680Y52598695D02*
X255706585Y52697403D01*
X9445724Y93950962D02*
X9513725Y93871342D01*
X10186534Y9182511D02*
X10283270Y9142441D01*
X254346252Y70058279D02*
X254248831Y70086155D01*
X255125459Y69599586D02*
X255050270Y69667517D01*
X11000000Y51109595D02*
X130873763Y51104857D01*
X253747526Y91200000D02*
X133873763Y91195322D01*
X9002761Y31954923D02*
X9010976Y31850539D01*
X9097907Y10391565D02*
X9132859Y10292864D01*
X255496219Y111220604D02*
X255444814Y111307929D01*
X10597402Y112199587D02*
X10498694Y112176682D01*
X254248831Y51163846D02*
X254346252Y51191722D01*
X10790944Y93220553D02*
X10895328Y93212337D01*
X255585441Y10211289D02*
X255623030Y10305390D01*
X9418447Y48314740D02*
X9358471Y48233064D01*
X9322676Y94120324D02*
X9381983Y94034032D01*
X9218005Y10101620D02*
X9267967Y10009602D01*
X255329077Y111474212D02*
X255265042Y111552745D01*
X10790944Y30070553D02*
X10895328Y30062337D01*
X253949862Y30060262D02*
X254050381Y30073064D01*
X10029395Y48839221D02*
X9942071Y48787816D01*
X254971737Y111831552D02*
X254890062Y111891527D01*
X255744959Y31948702D02*
X255747526Y32050000D01*
X9358471Y48233064D02*
X9302710Y48148455D01*
X9550413Y27418461D02*
X9482482Y27343273D01*
X255543135Y31169212D02*
X255585441Y31261289D01*
X254718129Y72401307D02*
X254805454Y72452712D01*
X10895328Y30062337D02*
X11000000Y30059595D01*
X254050381Y72173064D02*
X254150123Y72190941D01*
X253747526Y70150000D02*
X133873763Y70145322D01*
X9251305Y90161131D02*
X9204389Y90071316D01*
X255744959Y47201299D02*
X255737264Y47302337D01*
X8000000Y80175000D02*
X9000011Y80175000D01*
X255623030Y31355390D02*
X255655804Y31451274D01*
X255585441Y26838712D02*
X255543135Y26930789D01*
X9097907Y31441565D02*
X9132859Y31342864D01*
X10797663Y112230266D02*
X10697144Y112217464D01*
X254628314Y51304391D02*
X254718129Y51351307D01*
X9040939Y68543124D02*
X9023062Y68443382D01*
X254442136Y30174496D02*
X254536237Y30212085D01*
X9741372Y30505312D02*
X9824441Y30441569D01*
X9302710Y69198455D02*
X9251305Y69111131D01*
X9024643Y52796728D02*
X9043725Y52693774D01*
X255747526Y41075000D02*
X255747526Y47100000D01*
X9023062Y47393382D02*
X9010260Y47292863D01*
X10211287Y112078443D02*
X10119210Y112036137D01*
X10401273Y112148806D02*
X10305388Y112116032D01*
X9010260Y26242863D02*
X9002566Y26141825D01*
X254442136Y51224496D02*
X254536237Y51262085D01*
X9000000Y110240526D02*
X9000008Y104225000D01*
X255747526Y68150000D02*
X255744959Y68251299D01*
X9024643Y31746728D02*
X9043725Y31643774D01*
X255744959Y52998702D02*
X255747526Y53100000D01*
X255543135Y10119212D02*
X255585441Y10211289D01*
X264747526Y120250000D02*
X264742710Y120348018D01*
X255655804Y52501274D02*
X255683680Y52598695D01*
X9358471Y69283064D02*
X9302710Y69198455D01*
X254805454Y111947289D02*
X254718129Y111998694D01*
X256747526Y41075000D02*
X255747526Y41075000D01*
X9302710Y90248455D02*
X9251305Y90161131D01*
X255747526Y47100000D02*
X255744959Y47201299D01*
X9204389Y111121316D02*
X9162083Y111029239D01*
X254628314Y9204391D02*
X254718129Y9251307D01*
X9024643Y73846728D02*
X9043725Y73743774D01*
X254248831Y91136155D02*
X254150123Y91159060D01*
X10092027Y9227590D02*
X10186534Y9182511D01*
X10687133Y30084221D02*
X10790944Y30070553D01*
X255747526Y17025000D02*
X256747526Y17025000D01*
X9741372Y9455312D02*
X9824441Y9391569D01*
X10498694Y91126682D02*
X10401273Y91098806D01*
X444429Y168531D02*
X528603Y118079D01*
X9068168Y94691960D02*
X9097907Y94591565D01*
X255389052Y51957464D02*
X255444814Y52042072D01*
X264130209Y121173880D02*
X264037810Y121206941D01*
X264671405Y617317D02*
X264704466Y709716D01*
X255747526Y80175000D02*
X256747526Y80175000D01*
X9040939Y110643124D02*
X9023062Y110543382D01*
X9697253Y69658044D02*
X9622065Y69590113D01*
X9824441Y93591569D02*
X9910732Y93532262D01*
X255724462Y47402856D02*
X255706585Y47502598D01*
X254150123Y28009060D02*
X254050381Y28026937D01*
X9697253Y111758044D02*
X9622065Y111690113D01*
X264578995Y120805571D02*
X264520536Y120884394D01*
X9091720Y47689253D02*
X9063844Y47591832D01*
X255389052Y90342537D02*
X255329077Y90424212D01*
X255444814Y30992072D02*
X255496219Y31079397D01*
X255496219Y27020604D02*
X255444814Y27107929D01*
X255706585Y94797403D02*
X255724462Y94897145D01*
X9043725Y94793774D02*
X9068168Y94691960D01*
X9204389Y90071316D02*
X9162083Y89979239D01*
X255543135Y47980789D02*
X255496219Y48070604D01*
X133873763Y8000000D02*
X133873763Y9004738D01*
X10584180Y93253304D02*
X10687133Y93234221D01*
X130873763Y50099000D02*
X130873763Y49095205D01*
X254150123Y49059060D02*
X254050381Y49076937D01*
X9942071Y48787816D02*
X9857462Y48732055D01*
X255706585Y68552598D02*
X255683680Y68651306D01*
X254628314Y112045610D02*
X254536237Y112087916D01*
X9204389Y47971316D02*
X9162083Y47879239D01*
X292893Y120957107D02*
X226989Y120884394D01*
X10211287Y27878443D02*
X10119210Y27836137D01*
X9091720Y110839253D02*
X9063844Y110741832D01*
X255389052Y9857464D02*
X255444814Y9942072D01*
X10283270Y51242441D02*
X10381971Y51207488D01*
X10898701Y70137960D02*
X10797663Y70130266D01*
X9445724Y51850962D02*
X9513725Y51771342D01*
X255125459Y90649586D02*
X255050270Y90717517D01*
X8000000Y104225000D02*
X8000000Y113250000D01*
X254150123Y91159060D02*
X254050381Y91176937D01*
X264704466Y120540285D02*
X264671405Y120632684D01*
X9023062Y110543382D02*
X9010260Y110442863D01*
X254248831Y30113846D02*
X254346252Y30141722D01*
X255496219Y10029397D02*
X255543135Y10119212D01*
X10482366Y30127748D02*
X10584180Y30103304D01*
X10283270Y93342441D02*
X10381971Y93307488D01*
X255197111Y48477934D02*
X255125459Y48549586D01*
X255724462Y26352856D02*
X255706585Y26452598D01*
X11000000Y28040526D02*
X10898701Y28037960D01*
X9824441Y72541569D02*
X9910732Y72482262D01*
X10584180Y72203304D02*
X10687133Y72184221D01*
X255744959Y95098702D02*
X255747526Y95200000D01*
X255655804Y47698727D02*
X255623030Y47794611D01*
X9000008Y20025000D02*
X8000000Y20025000D01*
X9000008Y62125000D02*
X8000000Y62125000D01*
X9068168Y31541960D02*
X9097907Y31441565D01*
X10597402Y27999587D02*
X10498694Y27976682D01*
X255444814Y90257929D02*
X255389052Y90342537D01*
X255724462Y31747145D02*
X255737264Y31847664D01*
X9585801Y9595390D02*
X9661752Y9523314D01*
X43059Y709716D02*
X76120Y617317D01*
X253848824Y91197434D02*
X253747526Y91200000D01*
X263942616Y121230786D02*
X263845543Y121245185D01*
X254805454Y30352712D02*
X254890062Y30408474D01*
X255585441Y111038712D02*
X255543135Y111130789D01*
X9775786Y69722079D02*
X9697253Y69658044D01*
X254971737Y69731552D02*
X254890062Y69791527D01*
X253949862Y93210262D02*
X254050381Y93223064D01*
X10305388Y48966032D02*
X10211287Y48928443D01*
X8000000Y62125000D02*
X8000000Y80175000D01*
X264742710Y120348018D02*
X264728311Y120445091D01*
X254890062Y90841527D02*
X254805454Y90897289D01*
X255747526Y104225000D02*
X255747526Y110250000D01*
X255329077Y30825789D02*
X255389052Y30907464D01*
X255744959Y10898702D02*
X255747526Y11000000D01*
X9024643Y10696728D02*
X9043725Y10593774D01*
X9302710Y111298455D02*
X9251305Y111211131D01*
X10401273Y91098806D02*
X10305388Y91066032D01*
X255197111Y9622067D02*
X255265042Y9697256D01*
X253949862Y51110262D02*
X254050381Y51123064D01*
X8000000Y59125000D02*
X9000011Y59125000D01*
X256747526Y38075000D02*
X256747526Y20025000D01*
X9204389Y69021316D02*
X9162083Y68929239D01*
X255050270Y9482484D02*
X255125459Y9550415D01*
X255747526Y59125000D02*
X256747526Y59125000D01*
X255389052Y73007464D02*
X255444814Y73092072D01*
X255444814Y48157929D02*
X255389052Y48242537D01*
X255389052Y69292537D02*
X255329077Y69374212D01*
X9132859Y94492864D02*
X9172928Y94396127D01*
X9063844Y110741832D02*
X9040939Y110643124D01*
X9043725Y52693774D02*
X9068168Y52591960D01*
X9010260Y89392863D02*
X9002566Y89291825D01*
X255265042Y111552745D02*
X255197111Y111627934D01*
X9267967Y73159602D02*
X9322676Y73070324D01*
X130873763Y70145205D02*
X11000000Y70140526D01*
X255683680Y47601306D02*
X255655804Y47698727D01*
X255747526Y26050000D02*
X255744959Y26151299D01*
X8000000Y38075000D02*
X9000011Y38075000D01*
X255585441Y47888712D02*
X255543135Y47980789D01*
X9000011Y17025000D02*
X9000020Y11009595D01*
X133873763Y92199000D02*
X133873763Y92201000D01*
X255655804Y31451274D02*
X255683680Y31548695D01*
X253848824Y49097434D02*
X253747526Y49100000D01*
X9043725Y10593774D02*
X9068168Y10491960D01*
X255050270Y69667517D02*
X254971737Y69731552D01*
X10029395Y69889221D02*
X9942071Y69837816D01*
X254150123Y112209060D02*
X254050381Y112226937D01*
X264578995Y444430D02*
X264629447Y528604D01*
X10898701Y112237960D02*
X10797663Y112230266D01*
X9068168Y52591960D02*
X9097907Y52491565D01*
X8000000Y20025000D02*
X8000000Y38075000D01*
X255585441Y94411289D02*
X255623030Y94505390D01*
X256747526Y8000000D02*
X133873763Y8000000D01*
X9418447Y111464740D02*
X9358471Y111383064D01*
X254050381Y30073064D02*
X254150123Y30090941D01*
X10498694Y112176682D02*
X10401273Y112148806D01*
X255197111Y30672067D02*
X255265042Y30747256D01*
X9513725Y72821342D02*
X9585801Y72745390D01*
X263747526Y0D02*
X263845543Y4816D01*
X264037810Y121206941D02*
X263942616Y121230786D01*
X255744959Y74048702D02*
X255747526Y74150000D01*
X255683680Y10498695D02*
X255706585Y10597403D01*
X255329077Y9775789D02*
X255389052Y9857464D01*
X254150123Y72190941D02*
X254248831Y72213846D01*
X4815Y120348018D02*
X0Y120250000D01*
X9322676Y52020324D02*
X9381983Y51934032D01*
X253949862Y70139739D02*
X253848824Y70147434D01*
X365606Y226990D02*
X444429Y168531D01*
X133873763Y112245322D02*
X133873763Y113250000D01*
X10000009Y72427552D02*
X10092027Y72377590D01*
X253747526Y72150000D02*
X253848824Y72152567D01*
X254536237Y30212085D02*
X254628314Y30254391D01*
X9741372Y72605312D02*
X9824441Y72541569D01*
X254150123Y30090941D02*
X254248831Y30113846D01*
X9585801Y72745390D02*
X9661752Y72673314D01*
X254890062Y111891527D02*
X254805454Y111947289D01*
X9010976Y95000539D02*
X9024643Y94896728D01*
X255724462Y89502856D02*
X255706585Y89602598D01*
X254890062Y69791527D02*
X254805454Y69847289D01*
X255737264Y52897664D02*
X255744959Y52998702D01*
X255744959Y26151299D02*
X255737264Y26252337D01*
X253848824Y28047434D02*
X253747526Y28050000D01*
X255543135Y26930789D02*
X255496219Y27020604D01*
X9910732Y30382262D02*
X10000009Y30327552D01*
X9513725Y93871342D02*
X9585801Y93795390D01*
X255585441Y52311289D02*
X255623030Y52405390D01*
X255197111Y93822067D02*
X255265042Y93897256D01*
X263845543Y121245185D02*
X263747526Y121250000D01*
X255683680Y26551306D02*
X255655804Y26648727D01*
X254718129Y27798694D02*
X254628314Y27845610D01*
X254050381Y9023064D02*
X254150123Y9040941D01*
X9267967Y94209602D02*
X9322676Y94120324D01*
X255543135Y52219212D02*
X255585441Y52311289D01*
X9857462Y111882055D02*
X9775786Y111822079D01*
X9322676Y30970324D02*
X9381983Y30884032D01*
X255496219Y69120604D02*
X255444814Y69207929D01*
X10584180Y9053304D02*
X10687133Y9034221D01*
X264381919Y226990D02*
X264454632Y292894D01*
X9322676Y73070324D02*
X9381983Y72984032D01*
X10119210Y69936137D02*
X10029395Y69889221D01*
X9172928Y10196127D02*
X9218005Y10101620D01*
X9942071Y111937816D02*
X9857462Y111882055D01*
X9857462Y69782055D02*
X9775786Y69722079D01*
X254718129Y93451307D02*
X254805454Y93502712D01*
X255706585Y26452598D02*
X255683680Y26551306D01*
X10895328Y9012337D02*
X11000000Y9009595D01*
X9381983Y30884032D02*
X9445724Y30800962D01*
X255265042Y90502745D02*
X255197111Y90577934D01*
X9124494Y68835138D02*
X9091720Y68739253D01*
X226989Y365607D02*
X292893Y292894D01*
X255623030Y68844611D02*
X255585441Y68938712D01*
X10687133Y51134221D02*
X10790944Y51120553D01*
X255737264Y94997664D02*
X255744959Y95098702D01*
X254971737Y27631552D02*
X254890062Y27691527D01*
X9622065Y48540113D02*
X9550413Y48468461D01*
X9775786Y111822079D02*
X9697253Y111758044D01*
X9661752Y9523314D02*
X9741372Y9455312D01*
X254718129Y51351307D02*
X254805454Y51402712D01*
X10790944Y9020553D02*
X10895328Y9012337D01*
X9857462Y48732055D02*
X9775786Y48672079D01*
X254248831Y93263846D02*
X254346252Y93291722D01*
X9302710Y48148455D02*
X9251305Y48061131D01*
X254718129Y48848694D02*
X254628314Y48895610D01*
X168530Y444430D02*
X226989Y365607D01*
X9322676Y9920324D02*
X9381983Y9834032D01*
X8000000Y113250000D02*
X130873763Y113250000D01*
X9697253Y48608044D02*
X9622065Y48540113D01*
X9775786Y48672079D02*
X9697253Y48608044D01*
X130873763Y8000000D02*
X8000000Y8000000D01*
X264218922Y121131922D02*
X264130209Y121173880D01*
X254536237Y9162085D02*
X254628314Y9204391D01*
X528603Y121131922D02*
X444429Y121081470D01*
X168530Y120805571D02*
X118078Y120721397D01*
X255623030Y10305390D02*
X255655804Y10401274D01*
X0Y120250000D02*
X0Y1000000D01*
X10482366Y93277748D02*
X10584180Y93253304D01*
X10482366Y9077748D02*
X10584180Y9053304D01*
X255265042Y93897256D02*
X255329077Y93975789D01*
X254536237Y112087916D02*
X254442136Y112125505D01*
X255585441Y89988712D02*
X255543135Y90080789D01*
X901982Y121245185D02*
X804909Y121230786D01*
X9204389Y26921316D02*
X9162083Y26829239D01*
X9000008Y83175000D02*
X8000000Y83175000D01*
X255623030Y89894611D02*
X255585441Y89988712D01*
X10498694Y70076682D02*
X10401273Y70048806D01*
X10119210Y90986137D02*
X10029395Y90939221D01*
X255496219Y90170604D02*
X255444814Y90257929D01*
X256747526Y62125000D02*
X255747526Y62125000D01*
X255496219Y48070604D02*
X255444814Y48157929D01*
X10029395Y27789221D02*
X9942071Y27737816D01*
X226989Y120884394D02*
X168530Y120805571D01*
X9824441Y51491569D02*
X9910732Y51432262D01*
X10000009Y51377552D02*
X10092027Y51327590D01*
X10401273Y48998806D02*
X10305388Y48966032D01*
X10797663Y49080266D02*
X10697144Y49067464D01*
X10797663Y28030266D02*
X10697144Y28017464D01*
X255496219Y31079397D02*
X255543135Y31169212D01*
X10305388Y27916032D02*
X10211287Y27878443D01*
X255265042Y30747256D02*
X255329077Y30825789D01*
X10211287Y69978443D02*
X10119210Y69936137D01*
X11000000Y9009595D02*
X130873763Y9004857D01*
X255706585Y89602598D02*
X255683680Y89701306D01*
X255747526Y74150000D02*
X255747526Y80175000D01*
X9010976Y10800539D02*
X9024643Y10696728D01*
X10000009Y9277552D02*
X10092027Y9227590D01*
X9162083Y89979239D02*
X9124494Y89885138D01*
X9741372Y93655312D02*
X9824441Y93591569D01*
X254971737Y93618449D02*
X255050270Y93682484D01*
X9218005Y73251620D02*
X9267967Y73159602D01*
X1000000Y0D02*
X263747526Y0D01*
X9132859Y31342864D02*
X9172928Y31246127D01*
X9741372Y51555312D02*
X9824441Y51491569D01*
X10283270Y9142441D02*
X10381971Y9107488D01*
X9132859Y10292864D02*
X9172928Y10196127D01*
X10697144Y70117464D02*
X10597402Y70099587D01*
X9622065Y90640113D02*
X9550413Y90568461D01*
X10186534Y51282511D02*
X10283270Y51242441D01*
X255747526Y62125000D02*
X255747526Y68150000D01*
X9302710Y27098455D02*
X9251305Y27011131D01*
X9622065Y27490113D02*
X9550413Y27418461D01*
X9010260Y47292863D02*
X9002566Y47191825D01*
X10697144Y91167464D02*
X10597402Y91149587D01*
X9942071Y27737816D02*
X9857462Y27682055D01*
X9697253Y27558044D02*
X9622065Y27490113D01*
X9132859Y52392864D02*
X9172928Y52296127D01*
X9002566Y110341825D02*
X9000000Y110240526D01*
X10687133Y9034221D02*
X10790944Y9020553D01*
X255744959Y89301299D02*
X255737264Y89402337D01*
X9002566Y89291825D02*
X9000000Y89190526D01*
X255706585Y110652598D02*
X255683680Y110751306D01*
X256747526Y113250000D02*
X256747526Y104225000D01*
X9824441Y9391569D02*
X9910732Y9332262D01*
X133873763Y93204738D02*
X253747526Y93200000D01*
X255724462Y10697145D02*
X255737264Y10797664D01*
X130873763Y28045205D02*
X11000000Y28040526D01*
X9024643Y94896728D02*
X9043725Y94793774D01*
X263942616Y19215D02*
X264037810Y43060D01*
X365606Y121023011D02*
X292893Y120957107D01*
X9910732Y93532262D02*
X10000009Y93477552D01*
X9002566Y26141825D02*
X9000000Y26040526D01*
X10381971Y30157488D02*
X10482366Y30127748D01*
X9824441Y30441569D02*
X9910732Y30382262D01*
X130873763Y91195205D02*
X11000000Y91190526D01*
X255747526Y89200000D02*
X255744959Y89301299D01*
X253848824Y30052567D02*
X253949862Y30060262D01*
X255329077Y90424212D02*
X255265042Y90502745D01*
X255050270Y51582484D02*
X255125459Y51650415D01*
X10305388Y70016032D02*
X10211287Y69978443D01*
X9002761Y53004923D02*
X9010976Y52900539D01*
X255389052Y27192537D02*
X255329077Y27274212D01*
X133873763Y50099000D02*
X133873763Y50101000D01*
X254050381Y28026937D02*
X253949862Y28039739D01*
X130873763Y50101000D02*
X130873763Y50099000D01*
X133873763Y50101000D02*
X133873763Y51104738D01*
X254805454Y51402712D02*
X254890062Y51458474D01*
X254628314Y90995610D02*
X254536237Y91037916D01*
X9000020Y95209595D02*
X9002761Y95104923D01*
X10305388Y91066032D02*
X10211287Y91028443D01*
X254536237Y51262085D02*
X254628314Y51304391D01*
X255683680Y89701306D02*
X255655804Y89798727D01*
X264037810Y43060D02*
X264130209Y76121D01*
X9162083Y111029239D02*
X9124494Y110935138D01*
X255050270Y30532484D02*
X255125459Y30600415D01*
X264671405Y120632684D02*
X264629447Y120721397D01*
X9002566Y47191825D02*
X9000000Y47090526D01*
X9040939Y47493124D02*
X9023062Y47393382D01*
X9585801Y30645390D02*
X9661752Y30573314D01*
X255724462Y68452856D02*
X255706585Y68552598D01*
X254890062Y9358474D02*
X254971737Y9418449D01*
X10000009Y30327552D02*
X10092027Y30277590D01*
X10092027Y72377590D02*
X10186534Y72332511D01*
X255724462Y94897145D02*
X255737264Y94997664D01*
X254890062Y51458474D02*
X254971737Y51518449D01*
X255543135Y73269212D02*
X255585441Y73361289D01*
X10092027Y93427590D02*
X10186534Y93382511D01*
X264728311Y804910D02*
X264742710Y901983D01*
X10211287Y48928443D02*
X10119210Y48886137D01*
X254628314Y93404391D02*
X254718129Y93451307D01*
X9697253Y90708044D02*
X9622065Y90640113D01*
X255197111Y51722067D02*
X255265042Y51797256D01*
X255706585Y47502598D02*
X255683680Y47601306D01*
X253747526Y49100000D02*
X133873763Y49095322D01*
X264629447Y120721397D02*
X264578995Y120805571D01*
X253848824Y9002567D02*
X253949862Y9010262D01*
X9622065Y69590113D02*
X9550413Y69518461D01*
X9550413Y69518461D02*
X9482482Y69443273D01*
X10283270Y72292441D02*
X10381971Y72257488D01*
X254536237Y91037916D02*
X254442136Y91075505D01*
X9445724Y72900962D02*
X9513725Y72821342D01*
X254248831Y70086155D02*
X254150123Y70109060D01*
X255265042Y72847256D02*
X255329077Y72925789D01*
X255444814Y111307929D02*
X255389052Y111392537D01*
X617316Y121173880D02*
X528603Y121131922D01*
X9000020Y53109595D02*
X9002761Y53004923D01*
X264629447Y528604D02*
X264671405Y617317D01*
X254628314Y27845610D02*
X254536237Y27887916D01*
X9251305Y48061131D02*
X9204389Y47971316D01*
X11000000Y30059595D02*
X130873763Y30054857D01*
X9482482Y90493273D02*
X9418447Y90414740D01*
X264381919Y121023011D02*
X264303096Y121081470D01*
X255197111Y27427934D02*
X255125459Y27499586D01*
X10687133Y72184221D02*
X10790944Y72170553D01*
X9381983Y9834032D02*
X9445724Y9750962D01*
X255747526Y11000000D02*
X255747526Y17025000D01*
X254442136Y9124496D02*
X254536237Y9162085D01*
X10790944Y51120553D02*
X10895328Y51112337D01*
X255655804Y68748727D02*
X255623030Y68844611D01*
X10895328Y72162337D02*
X11000000Y72159595D01*
X255329077Y72925789D02*
X255389052Y73007464D01*
X254890062Y72508474D02*
X254971737Y72568449D01*
X9661752Y93723314D02*
X9741372Y93655312D01*
X9513725Y30721342D02*
X9585801Y30645390D01*
X9775786Y27622079D02*
X9697253Y27558044D01*
X9172928Y94396127D02*
X9218005Y94301620D01*
X255543135Y94319212D02*
X255585441Y94411289D01*
X9010976Y52900539D02*
X9024643Y52796728D01*
X254150123Y51140941D02*
X254248831Y51163846D01*
X255737264Y68352337D02*
X255724462Y68452856D01*
X254150123Y9040941D02*
X254248831Y9063846D01*
X133873763Y9004738D02*
X253747526Y9000000D01*
X1000000Y121250000D02*
X901982Y121245185D01*
X130873763Y72154857D02*
X130873763Y71151000D01*
X255496219Y73179397D02*
X255543135Y73269212D01*
X9010976Y31850539D02*
X9024643Y31746728D01*
X254890062Y48741527D02*
X254805454Y48797289D01*
X254050381Y93223064D02*
X254150123Y93240941D01*
X254805454Y48797289D02*
X254718129Y48848694D01*
X255543135Y90080789D02*
X255496219Y90170604D01*
X9482482Y111543273D02*
X9418447Y111464740D01*
X9513725Y9671342D02*
X9585801Y9595390D01*
X253949862Y91189739D02*
X253848824Y91197434D01*
X255737264Y89402337D02*
X255724462Y89502856D01*
X255265042Y69452745D02*
X255197111Y69527934D01*
X255265042Y27352745D02*
X255197111Y27427934D01*
X254150123Y70109060D02*
X254050381Y70126937D01*
X254248831Y27986155D02*
X254150123Y28009060D01*
X253848824Y93202567D02*
X253949862Y93210262D01*
X133873763Y72154738D02*
X253747526Y72150000D01*
X255655804Y89798727D02*
X255623030Y89894611D01*
X10895328Y51112337D02*
X11000000Y51109595D01*
X709715Y121206941D02*
X617316Y121173880D01*
X255683680Y94698695D02*
X255706585Y94797403D01*
X255329077Y27274212D02*
X255265042Y27352745D01*
X10895328Y93212337D02*
X11000000Y93209595D01*
X10482366Y72227748D02*
X10584180Y72203304D01*
X9000000Y68140526D02*
X9000008Y62125000D01*
X9445724Y9750962D02*
X9513725Y9671342D01*
X133873763Y51104738D02*
X253747526Y51100000D01*
X9218005Y31151620D02*
X9267967Y31059602D01*
X254971737Y30468449D02*
X255050270Y30532484D01*
X264303096Y121081470D02*
X264218922Y121131922D01*
X130873763Y93204857D02*
X130873763Y92201000D01*
X10584180Y30103304D02*
X10687133Y30084221D01*
X19214Y120445091D02*
X4815Y120348018D01*
X130873763Y49095205D02*
X11000000Y49090526D01*
X804909Y19215D02*
X901982Y4816D01*
X9097907Y94591565D02*
X9132859Y94492864D01*
X254346252Y91108279D02*
X254248831Y91136155D01*
X9661752Y51623314D02*
X9741372Y51555312D01*
X11000000Y91190526D02*
X10898701Y91187960D01*
X118078Y120721397D02*
X76120Y120632684D01*
X133873763Y91195322D02*
X133873763Y92199000D01*
X264728311Y120445091D02*
X264704466Y120540285D01*
X255737264Y73947664D02*
X255744959Y74048702D01*
X264454632Y120957107D02*
X264381919Y121023011D01*
X254248831Y112186155D02*
X254150123Y112209060D01*
X255496219Y94229397D02*
X255543135Y94319212D01*
X9251305Y27011131D02*
X9204389Y26921316D01*
X0Y1000000D02*
X4815Y901983D01*
X130873763Y29049000D02*
X130873763Y28045205D01*
X9000020Y74159595D02*
X9002761Y74054923D01*
X133873763Y70145322D02*
X133873763Y71149000D01*
X255125459Y93750415D02*
X255197111Y93822067D01*
X9097907Y52491565D02*
X9132859Y52392864D01*
X264130209Y76121D02*
X264218922Y118079D01*
X9482482Y27343273D02*
X9418447Y27264740D01*
X255543135Y111130789D02*
X255496219Y111220604D01*
X255747526Y83175000D02*
X255747526Y89200000D01*
X255444814Y27107929D02*
X255389052Y27192537D01*
X264747526Y1000000D02*
X264747526Y120250000D01*
X9267967Y31059602D02*
X9322676Y30970324D01*
X9124494Y110935138D02*
X9091720Y110839253D01*
X9218005Y94301620D02*
X9267967Y94209602D01*
X10790944Y72170553D02*
X10895328Y72162337D01*
X9418447Y90414740D02*
X9358471Y90333064D01*
X8000000Y17025000D02*
X9000011Y17025000D01*
X255125459Y51650415D02*
X255197111Y51722067D01*
X255655804Y94601274D02*
X255683680Y94698695D01*
X9162083Y26829239D02*
X9124494Y26735138D01*
X9942071Y69837816D02*
X9857462Y69782055D01*
X255623030Y94505390D02*
X255655804Y94601274D01*
X130873763Y9004857D02*
X130873763Y8000000D01*
X9010976Y73950539D02*
X9024643Y73846728D01*
X10381971Y72257488D02*
X10482366Y72227748D01*
X10482366Y51177748D02*
X10584180Y51153304D01*
X256747526Y59125000D02*
X256747526Y41075000D01*
X254718129Y69898694D02*
X254628314Y69945610D01*
X254442136Y112125505D02*
X254346252Y112158279D01*
X254890062Y30408474D02*
X254971737Y30468449D01*
X253747526Y112250000D02*
X133873763Y112245322D01*
X9358471Y27183064D02*
X9302710Y27098455D01*
X264520536Y365607D02*
X264578995Y444430D01*
X10000009Y93477552D02*
X10092027Y93427590D01*
X255706585Y31647403D02*
X255724462Y31747145D01*
X9000020Y32059595D02*
X9002761Y31954923D01*
X253747526Y93200000D02*
X253848824Y93202567D01*
X9000008Y41075000D02*
X8000000Y41075000D01*
X256747526Y80175000D02*
X256747526Y62125000D01*
X255050270Y90717517D02*
X254971737Y90781552D01*
X263747526Y121250000D02*
X1000000Y121250000D01*
X254346252Y30141722D02*
X254442136Y30174496D01*
X254890062Y93558474D02*
X254971737Y93618449D01*
X253848824Y112247434D02*
X253747526Y112250000D01*
X264704466Y709716D02*
X264728311Y804910D01*
X255655804Y110848727D02*
X255623030Y110944611D01*
X9172928Y31246127D02*
X9218005Y31151620D01*
X254536237Y93362085D02*
X254628314Y93404391D01*
X528603Y118079D02*
X617316Y76121D01*
X9002761Y10904923D02*
X9010976Y10800539D01*
X254805454Y69847289D02*
X254718129Y69898694D01*
X255747526Y95200000D02*
X255747526Y101225000D01*
X255444814Y52042072D02*
X255496219Y52129397D01*
X254971737Y9418449D02*
X255050270Y9482484D01*
X292893Y292894D02*
X365606Y226990D01*
X264520536Y120884394D02*
X264454632Y120957107D01*
X256747526Y104225000D02*
X255747526Y104225000D01*
X10119210Y48886137D02*
X10029395Y48839221D01*
X255197111Y90577934D02*
X255125459Y90649586D01*
X10797663Y91180266D02*
X10697144Y91167464D01*
X10186534Y93382511D02*
X10283270Y93342441D01*
X10029395Y111989221D02*
X9942071Y111937816D01*
X9068168Y73641960D02*
X9097907Y73541565D01*
X130873763Y29051000D02*
X130873763Y29049000D01*
X255585441Y68938712D02*
X255543135Y69030789D01*
X10697144Y28017464D02*
X10597402Y27999587D01*
X133873763Y29051000D02*
X133873763Y30054738D01*
X10401273Y70048806D02*
X10305388Y70016032D01*
X254536237Y48937916D02*
X254442136Y48975505D01*
X9910732Y51432262D02*
X10000009Y51377552D01*
X263845543Y4816D02*
X263942616Y19215D01*
X254890062Y27691527D02*
X254805454Y27747289D01*
X9267967Y10009602D02*
X9322676Y9920324D01*
X9124494Y26735138D02*
X9091720Y26639253D01*
X255737264Y31847664D02*
X255744959Y31948702D01*
X10283270Y30192441D02*
X10381971Y30157488D01*
X9482482Y69443273D02*
X9418447Y69364740D01*
X254050381Y70126937D02*
X253949862Y70139739D01*
X9381983Y94034032D02*
X9445724Y93950962D01*
X9550413Y90568461D02*
X9482482Y90493273D01*
X254442136Y27925505D02*
X254346252Y27958279D01*
X9172928Y52296127D02*
X9218005Y52201620D01*
X10898701Y91187960D02*
X10797663Y91180266D01*
X9857462Y27682055D02*
X9775786Y27622079D01*
X9002761Y95104923D02*
X9010976Y95000539D01*
X9550413Y48468461D02*
X9482482Y48393273D01*
X9000020Y11009595D02*
X9002761Y10904923D01*
X9267967Y52109602D02*
X9322676Y52020324D01*
X9000011Y59125000D02*
X9000020Y53109595D01*
X19214Y804910D02*
X43059Y709716D01*
X254442136Y48975505D02*
X254346252Y49008279D01*
X130873763Y51104857D02*
X130873763Y50101000D01*
X133873763Y30054738D02*
X253747526Y30050000D01*
X118078Y528604D02*
X168530Y444430D01*
X9124494Y47785138D02*
X9091720Y47689253D01*
X9251305Y69111131D02*
X9204389Y69021316D01*
X9091720Y26639253D02*
X9063844Y26541832D01*
X9000011Y80175000D02*
X9000020Y74159595D01*
X9132859Y73442864D02*
X9172928Y73346127D01*
X255683680Y31548695D02*
X255706585Y31647403D01*
X76120Y120632684D02*
X43059Y120540285D01*
X255623030Y47794611D02*
X255585441Y47888712D01*
X9418447Y27264740D02*
X9358471Y27183064D01*
X255747526Y32050000D02*
X255747526Y38075000D01*
X11000000Y49090526D02*
X10898701Y49087960D01*
X254971737Y51518449D02*
X255050270Y51582484D01*
X254150123Y93240941D02*
X254248831Y93263846D01*
X255623030Y73455390D02*
X255655804Y73551274D01*
X255655804Y10401274D02*
X255683680Y10498695D01*
X9040939Y89593124D02*
X9023062Y89493382D01*
X255329077Y51875789D02*
X255389052Y51957464D01*
X133873763Y49095322D02*
X133873763Y50099000D01*
X255747526Y38075000D02*
X256747526Y38075000D01*
X9358471Y90333064D02*
X9302710Y90248455D01*
X264742710Y901983D02*
X264747526Y1000000D01*
X253949862Y9010262D02*
X254050381Y9023064D01*
X254628314Y72354391D02*
X254718129Y72401307D01*
X9550413Y111618461D02*
X9482482Y111543273D01*
X255125459Y72700415D02*
X255197111Y72772067D01*
X255389052Y48242537D02*
X255329077Y48324212D01*
X133873763Y92201000D02*
X133873763Y93204738D01*
X255050270Y111767517D02*
X254971737Y111831552D01*
X255389052Y30907464D02*
X255444814Y30992072D01*
X255683680Y110751306D02*
X255655804Y110848727D01*
X255706585Y10597403D02*
X255724462Y10697145D01*
X254536237Y69987916D02*
X254442136Y70025505D01*
X254248831Y72213846D02*
X254346252Y72241722D01*
X255265042Y48402745D02*
X255197111Y48477934D01*
X9251305Y111211131D02*
X9204389Y111121316D01*
X130873763Y112245205D02*
X11000000Y112240526D01*
X9661752Y30573314D02*
X9741372Y30505312D01*
X255724462Y52797145D02*
X255737264Y52897664D01*
X255050270Y93682484D02*
X255125459Y93750415D01*
X255623030Y52405390D02*
X255655804Y52501274D01*
X255265042Y51797256D02*
X255329077Y51875789D01*
X709715Y43060D02*
X804909Y19215D01*
X9010260Y68342863D02*
X9002566Y68241825D01*
X254628314Y69945610D02*
X254536237Y69987916D01*
X804909Y121230786D02*
X709715Y121206941D01*
X254536237Y27887916D02*
X254442136Y27925505D01*
X255683680Y68651306D02*
X255655804Y68748727D01*
X9063844Y47591832D02*
X9040939Y47493124D01*
X254971737Y48681552D02*
X254890062Y48741527D01*
X253949862Y112239739D02*
X253848824Y112247434D01*
X254050381Y91176937D02*
X253949862Y91189739D01*
X254346252Y112158279D02*
X254248831Y112186155D01*
X9910732Y72482262D02*
X10000009Y72427552D01*
X254805454Y90897289D02*
X254718129Y90948694D01*
X255655804Y26648727D02*
X255623030Y26744611D01*
X254718129Y30301307D02*
X254805454Y30352712D01*
X254442136Y72274496D02*
X254536237Y72312085D01*
X255197111Y111627934D02*
X255125459Y111699586D01*
X9910732Y9332262D02*
X10000009Y9277552D01*
X10119210Y27836137D02*
X10029395Y27789221D01*
X255747526Y101225000D02*
X256747526Y101225000D01*
X254805454Y93502712D02*
X254890062Y93558474D01*
X10211287Y91028443D02*
X10119210Y90986137D01*
X253747526Y28050000D02*
X133873763Y28045322D01*
X254346252Y93291722D02*
X254442136Y93324496D01*
X133873763Y113250000D02*
X256747526Y113250000D01*
X9000000Y47090526D02*
X9000008Y41075000D01*
X255389052Y111392537D02*
X255329077Y111474212D01*
X9775786Y90772079D02*
X9697253Y90708044D01*
X901982Y4816D02*
X1000000Y0D01*
X10381971Y93307488D02*
X10482366Y93277748D01*
X255737264Y10797664D02*
X255744959Y10898702D01*
X10597402Y49049587D02*
X10498694Y49026682D01*
X255389052Y94057464D02*
X255444814Y94142072D01*
X254050381Y51123064D02*
X254150123Y51140941D01*
X4815Y901983D02*
X19214Y804910D01*
X255050270Y48617517D02*
X254971737Y48681552D01*
X255623030Y26744611D02*
X255585441Y26838712D01*
X254805454Y27747289D02*
X254718129Y27798694D01*
X10381971Y9107488D02*
X10482366Y9077748D01*
X10092027Y30277590D02*
X10186534Y30232511D01*
X10119210Y112036137D02*
X10029395Y111989221D01*
X254248831Y9063846D02*
X254346252Y9091722D01*
X9043725Y31643774D02*
X9068168Y31541960D01*
X130873763Y30054857D02*
X130873763Y29051000D01*
X8000000Y8000000D02*
X8000000Y17025000D01*
X255747526Y20025000D02*
X255747526Y26050000D01*
X444429Y121081470D02*
X365606Y121023011D01*
X255747526Y110250000D02*
X255744959Y110351299D01*
X9162083Y68929239D02*
X9124494Y68835138D01*
X254536237Y72312085D02*
X254628314Y72354391D01*
X10898701Y49087960D02*
X10797663Y49080266D01*
X10584180Y51153304D02*
X10687133Y51134221D01*
X11000000Y112240526D02*
X10898701Y112237960D01*
X10687133Y93234221D02*
X10790944Y93220553D01*
X255496219Y52129397D02*
X255543135Y52219212D01*
X133873763Y71149000D02*
X133873763Y71151000D01*
X9063844Y68641832D02*
X9040939Y68543124D01*
X9381983Y51934032D02*
X9445724Y51850962D01*
X264454632Y292894D02*
X264520536Y365607D01*
X10305388Y112116032D02*
X10211287Y112078443D01*
X10797663Y70130266D02*
X10697144Y70117464D01*
X9000000Y26040526D02*
X9000008Y20025000D01*
X256747526Y83175000D02*
X255747526Y83175000D01*
X255444814Y69207929D02*
X255389052Y69292537D01*
X130873763Y92199000D02*
X130873763Y91195205D01*
X254346252Y9091722D02*
X254442136Y9124496D01*
X254442136Y93324496D02*
X254536237Y93362085D01*
X10092027Y51327590D02*
X10186534Y51282511D01*
X10401273Y27948806D02*
X10305388Y27916032D01*
X254346252Y27958279D02*
X254248831Y27986155D01*
X130873763Y71149000D02*
X130873763Y70145205D01*
X256747526Y20025000D02*
X255747526Y20025000D01*
X254628314Y48895610D02*
X254536237Y48937916D01*
X255706585Y73747403D02*
X255724462Y73847145D01*
X255125459Y48549586D02*
X255050270Y48617517D01*
X43059Y120540285D02*
X19214Y120445091D01*
X11000000Y93209595D02*
X130873763Y93204857D01*
X10498694Y49026682D02*
X10401273Y48998806D01*
X253949862Y49089739D02*
X253848824Y49097434D01*
X256747526Y17025000D02*
X256747526Y8000000D01*
X255724462Y73847145D02*
X255737264Y73947664D01*
X253949862Y28039739D02*
X253848824Y28047434D01*
X10029395Y90939221D02*
X9942071Y90887816D01*
X255623030Y110944611D02*
X255585441Y111038712D01*
X9661752Y72673314D02*
X9741372Y72605312D01*
X255329077Y69374212D02*
X255265042Y69452745D01*
X9023062Y89493382D02*
X9010260Y89392863D01*
X254805454Y72452712D02*
X254890062Y72508474D01*
X253848824Y72152567D02*
X253949862Y72160262D01*
X10697144Y112217464D02*
X10597402Y112199587D01*
X255197111Y72772067D02*
X255265042Y72847256D01*
X255683680Y73648695D02*
X255706585Y73747403D01*
X255329077Y48324212D02*
X255265042Y48402745D01*
X253747526Y51100000D02*
X253848824Y51102567D01*
X9000011Y38075000D02*
X9000020Y32059595D01*
X10898701Y28037960D02*
X10797663Y28030266D01*
X10498694Y27976682D02*
X10401273Y27948806D01*
X10697144Y49067464D02*
X10597402Y49049587D01*
X9418447Y69364740D02*
X9358471Y69283064D01*
X254971737Y90781552D02*
X254890062Y90841527D01*
X9002761Y74054923D02*
X9010976Y73950539D01*
X9043725Y73743774D02*
X9068168Y73641960D01*
X264218922Y118079D02*
X264303096Y168531D01*
X9942071Y90887816D02*
X9857462Y90832055D01*
X8000000Y101225000D02*
X9000011Y101225000D01*
X9040939Y26443124D02*
X9023062Y26343382D01*
X255706585Y52697403D02*
X255724462Y52797145D01*
X130873763Y71151000D02*
X130873763Y71149000D01*
X9358471Y111383064D02*
X9302710Y111298455D01*
X10381971Y51207488D02*
X10482366Y51177748D01*
X76120Y617317D02*
X118078Y528604D01*
X9000011Y101225000D02*
X9000020Y95209595D01*
X255125459Y111699586D02*
X255050270Y111767517D01*
X255744959Y110351299D02*
X255737264Y110452337D01*
X256747526Y101225000D02*
X256747526Y83175000D01*
X255444814Y9942072D02*
X255496219Y10029397D01*
X255585441Y31261289D02*
X255623030Y31355390D01*
X255737264Y47302337D02*
X255724462Y47402856D01*
X133873763Y28045322D02*
X133873763Y29049000D01*
X255737264Y110452337D02*
X255724462Y110552856D01*
X255737264Y26252337D02*
X255724462Y26352856D01*
X8000000Y41075000D02*
X8000000Y59125000D01*
X254718129Y90948694D02*
X254628314Y90995610D01*
X9000008Y104225000D02*
X8000000Y104225000D01*
X254718129Y9251307D02*
X254805454Y9302712D01*
M02*
