G04 #@! TF.GenerationSoftware,KiCad,Pcbnew,8.0.2*
G04 #@! TF.CreationDate,2024-06-02T18:46:01+02:00*
G04 #@! TF.ProjectId,KeyboardUnitRuler-panel,4b657962-6f61-4726-9455-6e697452756c,rev?*
G04 #@! TF.SameCoordinates,Original*
G04 #@! TF.FileFunction,Other,Comment*
%FSLAX46Y46*%
G04 Gerber Fmt 4.6, Leading zero omitted, Abs format (unit mm)*
G04 Created by KiCad (PCBNEW 8.0.2) date 2024-06-02 18:46:01*
%MOMM*%
%LPD*%
G01*
G04 APERTURE LIST*
%ADD10C,0.150000*%
G04 APERTURE END LIST*
D10*
X244833904Y105089667D02*
X244500571Y105565858D01*
X244262476Y105089667D02*
X244262476Y106089667D01*
X244262476Y106089667D02*
X244643428Y106089667D01*
X244643428Y106089667D02*
X244738666Y106042048D01*
X244738666Y106042048D02*
X244786285Y105994429D01*
X244786285Y105994429D02*
X244833904Y105899191D01*
X244833904Y105899191D02*
X244833904Y105756334D01*
X244833904Y105756334D02*
X244786285Y105661096D01*
X244786285Y105661096D02*
X244738666Y105613477D01*
X244738666Y105613477D02*
X244643428Y105565858D01*
X244643428Y105565858D02*
X244262476Y105565858D01*
X245262476Y105613477D02*
X245595809Y105613477D01*
X245738666Y105089667D02*
X245262476Y105089667D01*
X245262476Y105089667D02*
X245262476Y106089667D01*
X245262476Y106089667D02*
X245738666Y106089667D01*
X246500571Y105613477D02*
X246167238Y105613477D01*
X246167238Y105089667D02*
X246167238Y106089667D01*
X246167238Y106089667D02*
X246643428Y106089667D01*
X247167238Y106089667D02*
X247167238Y105851572D01*
X246929143Y105946810D02*
X247167238Y105851572D01*
X247167238Y105851572D02*
X247405333Y105946810D01*
X247024381Y105661096D02*
X247167238Y105851572D01*
X247167238Y105851572D02*
X247310095Y105661096D01*
X247929143Y106089667D02*
X247929143Y105851572D01*
X247691048Y105946810D02*
X247929143Y105851572D01*
X247929143Y105851572D02*
X248167238Y105946810D01*
X247786286Y105661096D02*
X247929143Y105851572D01*
X247929143Y105851572D02*
X248072000Y105661096D01*
X244833904Y78929667D02*
X244500571Y79405858D01*
X244262476Y78929667D02*
X244262476Y79929667D01*
X244262476Y79929667D02*
X244643428Y79929667D01*
X244643428Y79929667D02*
X244738666Y79882048D01*
X244738666Y79882048D02*
X244786285Y79834429D01*
X244786285Y79834429D02*
X244833904Y79739191D01*
X244833904Y79739191D02*
X244833904Y79596334D01*
X244833904Y79596334D02*
X244786285Y79501096D01*
X244786285Y79501096D02*
X244738666Y79453477D01*
X244738666Y79453477D02*
X244643428Y79405858D01*
X244643428Y79405858D02*
X244262476Y79405858D01*
X245262476Y79453477D02*
X245595809Y79453477D01*
X245738666Y78929667D02*
X245262476Y78929667D01*
X245262476Y78929667D02*
X245262476Y79929667D01*
X245262476Y79929667D02*
X245738666Y79929667D01*
X246500571Y79453477D02*
X246167238Y79453477D01*
X246167238Y78929667D02*
X246167238Y79929667D01*
X246167238Y79929667D02*
X246643428Y79929667D01*
X247167238Y79929667D02*
X247167238Y79691572D01*
X246929143Y79786810D02*
X247167238Y79691572D01*
X247167238Y79691572D02*
X247405333Y79786810D01*
X247024381Y79501096D02*
X247167238Y79691572D01*
X247167238Y79691572D02*
X247310095Y79501096D01*
X247929143Y79929667D02*
X247929143Y79691572D01*
X247691048Y79786810D02*
X247929143Y79691572D01*
X247929143Y79691572D02*
X248167238Y79786810D01*
X247786286Y79501096D02*
X247929143Y79691572D01*
X247929143Y79691572D02*
X248072000Y79501096D01*
X244833904Y41939667D02*
X244500571Y42415858D01*
X244262476Y41939667D02*
X244262476Y42939667D01*
X244262476Y42939667D02*
X244643428Y42939667D01*
X244643428Y42939667D02*
X244738666Y42892048D01*
X244738666Y42892048D02*
X244786285Y42844429D01*
X244786285Y42844429D02*
X244833904Y42749191D01*
X244833904Y42749191D02*
X244833904Y42606334D01*
X244833904Y42606334D02*
X244786285Y42511096D01*
X244786285Y42511096D02*
X244738666Y42463477D01*
X244738666Y42463477D02*
X244643428Y42415858D01*
X244643428Y42415858D02*
X244262476Y42415858D01*
X245262476Y42463477D02*
X245595809Y42463477D01*
X245738666Y41939667D02*
X245262476Y41939667D01*
X245262476Y41939667D02*
X245262476Y42939667D01*
X245262476Y42939667D02*
X245738666Y42939667D01*
X246500571Y42463477D02*
X246167238Y42463477D01*
X246167238Y41939667D02*
X246167238Y42939667D01*
X246167238Y42939667D02*
X246643428Y42939667D01*
X247167238Y42939667D02*
X247167238Y42701572D01*
X246929143Y42796810D02*
X247167238Y42701572D01*
X247167238Y42701572D02*
X247405333Y42796810D01*
X247024381Y42511096D02*
X247167238Y42701572D01*
X247167238Y42701572D02*
X247310095Y42511096D01*
X247929143Y42939667D02*
X247929143Y42701572D01*
X247691048Y42796810D02*
X247929143Y42701572D01*
X247929143Y42701572D02*
X248167238Y42796810D01*
X247786286Y42511096D02*
X247929143Y42701572D01*
X247929143Y42701572D02*
X248072000Y42511096D01*
X244833904Y96889667D02*
X244500571Y97365858D01*
X244262476Y96889667D02*
X244262476Y97889667D01*
X244262476Y97889667D02*
X244643428Y97889667D01*
X244643428Y97889667D02*
X244738666Y97842048D01*
X244738666Y97842048D02*
X244786285Y97794429D01*
X244786285Y97794429D02*
X244833904Y97699191D01*
X244833904Y97699191D02*
X244833904Y97556334D01*
X244833904Y97556334D02*
X244786285Y97461096D01*
X244786285Y97461096D02*
X244738666Y97413477D01*
X244738666Y97413477D02*
X244643428Y97365858D01*
X244643428Y97365858D02*
X244262476Y97365858D01*
X245262476Y97413477D02*
X245595809Y97413477D01*
X245738666Y96889667D02*
X245262476Y96889667D01*
X245262476Y96889667D02*
X245262476Y97889667D01*
X245262476Y97889667D02*
X245738666Y97889667D01*
X246500571Y97413477D02*
X246167238Y97413477D01*
X246167238Y96889667D02*
X246167238Y97889667D01*
X246167238Y97889667D02*
X246643428Y97889667D01*
X247167238Y97889667D02*
X247167238Y97651572D01*
X246929143Y97746810D02*
X247167238Y97651572D01*
X247167238Y97651572D02*
X247405333Y97746810D01*
X247024381Y97461096D02*
X247167238Y97651572D01*
X247167238Y97651572D02*
X247310095Y97461096D01*
X247929143Y97889667D02*
X247929143Y97651572D01*
X247691048Y97746810D02*
X247929143Y97651572D01*
X247929143Y97651572D02*
X248167238Y97746810D01*
X247786286Y97461096D02*
X247929143Y97651572D01*
X247929143Y97651572D02*
X248072000Y97461096D01*
X244833904Y99979667D02*
X244500571Y100455858D01*
X244262476Y99979667D02*
X244262476Y100979667D01*
X244262476Y100979667D02*
X244643428Y100979667D01*
X244643428Y100979667D02*
X244738666Y100932048D01*
X244738666Y100932048D02*
X244786285Y100884429D01*
X244786285Y100884429D02*
X244833904Y100789191D01*
X244833904Y100789191D02*
X244833904Y100646334D01*
X244833904Y100646334D02*
X244786285Y100551096D01*
X244786285Y100551096D02*
X244738666Y100503477D01*
X244738666Y100503477D02*
X244643428Y100455858D01*
X244643428Y100455858D02*
X244262476Y100455858D01*
X245262476Y100503477D02*
X245595809Y100503477D01*
X245738666Y99979667D02*
X245262476Y99979667D01*
X245262476Y99979667D02*
X245262476Y100979667D01*
X245262476Y100979667D02*
X245738666Y100979667D01*
X246500571Y100503477D02*
X246167238Y100503477D01*
X246167238Y99979667D02*
X246167238Y100979667D01*
X246167238Y100979667D02*
X246643428Y100979667D01*
X247167238Y100979667D02*
X247167238Y100741572D01*
X246929143Y100836810D02*
X247167238Y100741572D01*
X247167238Y100741572D02*
X247405333Y100836810D01*
X247024381Y100551096D02*
X247167238Y100741572D01*
X247167238Y100741572D02*
X247310095Y100551096D01*
X247929143Y100979667D02*
X247929143Y100741572D01*
X247691048Y100836810D02*
X247929143Y100741572D01*
X247929143Y100741572D02*
X248167238Y100836810D01*
X247786286Y100551096D02*
X247929143Y100741572D01*
X247929143Y100741572D02*
X248072000Y100551096D01*
X244833904Y84039667D02*
X244500571Y84515858D01*
X244262476Y84039667D02*
X244262476Y85039667D01*
X244262476Y85039667D02*
X244643428Y85039667D01*
X244643428Y85039667D02*
X244738666Y84992048D01*
X244738666Y84992048D02*
X244786285Y84944429D01*
X244786285Y84944429D02*
X244833904Y84849191D01*
X244833904Y84849191D02*
X244833904Y84706334D01*
X244833904Y84706334D02*
X244786285Y84611096D01*
X244786285Y84611096D02*
X244738666Y84563477D01*
X244738666Y84563477D02*
X244643428Y84515858D01*
X244643428Y84515858D02*
X244262476Y84515858D01*
X245262476Y84563477D02*
X245595809Y84563477D01*
X245738666Y84039667D02*
X245262476Y84039667D01*
X245262476Y84039667D02*
X245262476Y85039667D01*
X245262476Y85039667D02*
X245738666Y85039667D01*
X246500571Y84563477D02*
X246167238Y84563477D01*
X246167238Y84039667D02*
X246167238Y85039667D01*
X246167238Y85039667D02*
X246643428Y85039667D01*
X247167238Y85039667D02*
X247167238Y84801572D01*
X246929143Y84896810D02*
X247167238Y84801572D01*
X247167238Y84801572D02*
X247405333Y84896810D01*
X247024381Y84611096D02*
X247167238Y84801572D01*
X247167238Y84801572D02*
X247310095Y84611096D01*
X247929143Y85039667D02*
X247929143Y84801572D01*
X247691048Y84896810D02*
X247929143Y84801572D01*
X247929143Y84801572D02*
X248167238Y84896810D01*
X247786286Y84611096D02*
X247929143Y84801572D01*
X247929143Y84801572D02*
X248072000Y84611096D01*
X244833904Y106929667D02*
X244500571Y107405858D01*
X244262476Y106929667D02*
X244262476Y107929667D01*
X244262476Y107929667D02*
X244643428Y107929667D01*
X244643428Y107929667D02*
X244738666Y107882048D01*
X244738666Y107882048D02*
X244786285Y107834429D01*
X244786285Y107834429D02*
X244833904Y107739191D01*
X244833904Y107739191D02*
X244833904Y107596334D01*
X244833904Y107596334D02*
X244786285Y107501096D01*
X244786285Y107501096D02*
X244738666Y107453477D01*
X244738666Y107453477D02*
X244643428Y107405858D01*
X244643428Y107405858D02*
X244262476Y107405858D01*
X245262476Y107453477D02*
X245595809Y107453477D01*
X245738666Y106929667D02*
X245262476Y106929667D01*
X245262476Y106929667D02*
X245262476Y107929667D01*
X245262476Y107929667D02*
X245738666Y107929667D01*
X246500571Y107453477D02*
X246167238Y107453477D01*
X246167238Y106929667D02*
X246167238Y107929667D01*
X246167238Y107929667D02*
X246643428Y107929667D01*
X247167238Y107929667D02*
X247167238Y107691572D01*
X246929143Y107786810D02*
X247167238Y107691572D01*
X247167238Y107691572D02*
X247405333Y107786810D01*
X247024381Y107501096D02*
X247167238Y107691572D01*
X247167238Y107691572D02*
X247310095Y107501096D01*
X247929143Y107929667D02*
X247929143Y107691572D01*
X247691048Y107786810D02*
X247929143Y107691572D01*
X247929143Y107691572D02*
X248167238Y107786810D01*
X247786286Y107501096D02*
X247929143Y107691572D01*
X247929143Y107691572D02*
X248072000Y107501096D01*
X244833904Y47909667D02*
X244500571Y48385858D01*
X244262476Y47909667D02*
X244262476Y48909667D01*
X244262476Y48909667D02*
X244643428Y48909667D01*
X244643428Y48909667D02*
X244738666Y48862048D01*
X244738666Y48862048D02*
X244786285Y48814429D01*
X244786285Y48814429D02*
X244833904Y48719191D01*
X244833904Y48719191D02*
X244833904Y48576334D01*
X244833904Y48576334D02*
X244786285Y48481096D01*
X244786285Y48481096D02*
X244738666Y48433477D01*
X244738666Y48433477D02*
X244643428Y48385858D01*
X244643428Y48385858D02*
X244262476Y48385858D01*
X245262476Y48433477D02*
X245595809Y48433477D01*
X245738666Y47909667D02*
X245262476Y47909667D01*
X245262476Y47909667D02*
X245262476Y48909667D01*
X245262476Y48909667D02*
X245738666Y48909667D01*
X246500571Y48433477D02*
X246167238Y48433477D01*
X246167238Y47909667D02*
X246167238Y48909667D01*
X246167238Y48909667D02*
X246643428Y48909667D01*
X247167238Y48909667D02*
X247167238Y48671572D01*
X246929143Y48766810D02*
X247167238Y48671572D01*
X247167238Y48671572D02*
X247405333Y48766810D01*
X247024381Y48481096D02*
X247167238Y48671572D01*
X247167238Y48671572D02*
X247310095Y48481096D01*
X247929143Y48909667D02*
X247929143Y48671572D01*
X247691048Y48766810D02*
X247929143Y48671572D01*
X247929143Y48671572D02*
X248167238Y48766810D01*
X247786286Y48481096D02*
X247929143Y48671572D01*
X247929143Y48671572D02*
X248072000Y48481096D01*
X244833904Y43779667D02*
X244500571Y44255858D01*
X244262476Y43779667D02*
X244262476Y44779667D01*
X244262476Y44779667D02*
X244643428Y44779667D01*
X244643428Y44779667D02*
X244738666Y44732048D01*
X244738666Y44732048D02*
X244786285Y44684429D01*
X244786285Y44684429D02*
X244833904Y44589191D01*
X244833904Y44589191D02*
X244833904Y44446334D01*
X244833904Y44446334D02*
X244786285Y44351096D01*
X244786285Y44351096D02*
X244738666Y44303477D01*
X244738666Y44303477D02*
X244643428Y44255858D01*
X244643428Y44255858D02*
X244262476Y44255858D01*
X245262476Y44303477D02*
X245595809Y44303477D01*
X245738666Y43779667D02*
X245262476Y43779667D01*
X245262476Y43779667D02*
X245262476Y44779667D01*
X245262476Y44779667D02*
X245738666Y44779667D01*
X246500571Y44303477D02*
X246167238Y44303477D01*
X246167238Y43779667D02*
X246167238Y44779667D01*
X246167238Y44779667D02*
X246643428Y44779667D01*
X247167238Y44779667D02*
X247167238Y44541572D01*
X246929143Y44636810D02*
X247167238Y44541572D01*
X247167238Y44541572D02*
X247405333Y44636810D01*
X247024381Y44351096D02*
X247167238Y44541572D01*
X247167238Y44541572D02*
X247310095Y44351096D01*
X247929143Y44779667D02*
X247929143Y44541572D01*
X247691048Y44636810D02*
X247929143Y44541572D01*
X247929143Y44541572D02*
X248167238Y44636810D01*
X247786286Y44351096D02*
X247929143Y44541572D01*
X247929143Y44541572D02*
X248072000Y44351096D01*
X244833904Y39559667D02*
X244500571Y40035858D01*
X244262476Y39559667D02*
X244262476Y40559667D01*
X244262476Y40559667D02*
X244643428Y40559667D01*
X244643428Y40559667D02*
X244738666Y40512048D01*
X244738666Y40512048D02*
X244786285Y40464429D01*
X244786285Y40464429D02*
X244833904Y40369191D01*
X244833904Y40369191D02*
X244833904Y40226334D01*
X244833904Y40226334D02*
X244786285Y40131096D01*
X244786285Y40131096D02*
X244738666Y40083477D01*
X244738666Y40083477D02*
X244643428Y40035858D01*
X244643428Y40035858D02*
X244262476Y40035858D01*
X245262476Y40083477D02*
X245595809Y40083477D01*
X245738666Y39559667D02*
X245262476Y39559667D01*
X245262476Y39559667D02*
X245262476Y40559667D01*
X245262476Y40559667D02*
X245738666Y40559667D01*
X246500571Y40083477D02*
X246167238Y40083477D01*
X246167238Y39559667D02*
X246167238Y40559667D01*
X246167238Y40559667D02*
X246643428Y40559667D01*
X247167238Y40559667D02*
X247167238Y40321572D01*
X246929143Y40416810D02*
X247167238Y40321572D01*
X247167238Y40321572D02*
X247405333Y40416810D01*
X247024381Y40131096D02*
X247167238Y40321572D01*
X247167238Y40321572D02*
X247310095Y40131096D01*
X247929143Y40559667D02*
X247929143Y40321572D01*
X247691048Y40416810D02*
X247929143Y40321572D01*
X247929143Y40321572D02*
X248167238Y40416810D01*
X247786286Y40131096D02*
X247929143Y40321572D01*
X247929143Y40321572D02*
X248072000Y40131096D01*
X244833904Y66509667D02*
X244500571Y66985858D01*
X244262476Y66509667D02*
X244262476Y67509667D01*
X244262476Y67509667D02*
X244643428Y67509667D01*
X244643428Y67509667D02*
X244738666Y67462048D01*
X244738666Y67462048D02*
X244786285Y67414429D01*
X244786285Y67414429D02*
X244833904Y67319191D01*
X244833904Y67319191D02*
X244833904Y67176334D01*
X244833904Y67176334D02*
X244786285Y67081096D01*
X244786285Y67081096D02*
X244738666Y67033477D01*
X244738666Y67033477D02*
X244643428Y66985858D01*
X244643428Y66985858D02*
X244262476Y66985858D01*
X245262476Y67033477D02*
X245595809Y67033477D01*
X245738666Y66509667D02*
X245262476Y66509667D01*
X245262476Y66509667D02*
X245262476Y67509667D01*
X245262476Y67509667D02*
X245738666Y67509667D01*
X246500571Y67033477D02*
X246167238Y67033477D01*
X246167238Y66509667D02*
X246167238Y67509667D01*
X246167238Y67509667D02*
X246643428Y67509667D01*
X247167238Y67509667D02*
X247167238Y67271572D01*
X246929143Y67366810D02*
X247167238Y67271572D01*
X247167238Y67271572D02*
X247405333Y67366810D01*
X247024381Y67081096D02*
X247167238Y67271572D01*
X247167238Y67271572D02*
X247310095Y67081096D01*
X247929143Y67509667D02*
X247929143Y67271572D01*
X247691048Y67366810D02*
X247929143Y67271572D01*
X247929143Y67271572D02*
X248167238Y67366810D01*
X247786286Y67081096D02*
X247929143Y67271572D01*
X247929143Y67271572D02*
X248072000Y67081096D01*
X244833904Y12689667D02*
X244500571Y13165858D01*
X244262476Y12689667D02*
X244262476Y13689667D01*
X244262476Y13689667D02*
X244643428Y13689667D01*
X244643428Y13689667D02*
X244738666Y13642048D01*
X244738666Y13642048D02*
X244786285Y13594429D01*
X244786285Y13594429D02*
X244833904Y13499191D01*
X244833904Y13499191D02*
X244833904Y13356334D01*
X244833904Y13356334D02*
X244786285Y13261096D01*
X244786285Y13261096D02*
X244738666Y13213477D01*
X244738666Y13213477D02*
X244643428Y13165858D01*
X244643428Y13165858D02*
X244262476Y13165858D01*
X245262476Y13213477D02*
X245595809Y13213477D01*
X245738666Y12689667D02*
X245262476Y12689667D01*
X245262476Y12689667D02*
X245262476Y13689667D01*
X245262476Y13689667D02*
X245738666Y13689667D01*
X246500571Y13213477D02*
X246167238Y13213477D01*
X246167238Y12689667D02*
X246167238Y13689667D01*
X246167238Y13689667D02*
X246643428Y13689667D01*
X247167238Y13689667D02*
X247167238Y13451572D01*
X246929143Y13546810D02*
X247167238Y13451572D01*
X247167238Y13451572D02*
X247405333Y13546810D01*
X247024381Y13261096D02*
X247167238Y13451572D01*
X247167238Y13451572D02*
X247310095Y13261096D01*
X247929143Y13689667D02*
X247929143Y13451572D01*
X247691048Y13546810D02*
X247929143Y13451572D01*
X247929143Y13451572D02*
X248167238Y13546810D01*
X247786286Y13261096D02*
X247929143Y13451572D01*
X247929143Y13451572D02*
X248072000Y13261096D01*
X244833904Y45459667D02*
X244500571Y45935858D01*
X244262476Y45459667D02*
X244262476Y46459667D01*
X244262476Y46459667D02*
X244643428Y46459667D01*
X244643428Y46459667D02*
X244738666Y46412048D01*
X244738666Y46412048D02*
X244786285Y46364429D01*
X244786285Y46364429D02*
X244833904Y46269191D01*
X244833904Y46269191D02*
X244833904Y46126334D01*
X244833904Y46126334D02*
X244786285Y46031096D01*
X244786285Y46031096D02*
X244738666Y45983477D01*
X244738666Y45983477D02*
X244643428Y45935858D01*
X244643428Y45935858D02*
X244262476Y45935858D01*
X245262476Y45983477D02*
X245595809Y45983477D01*
X245738666Y45459667D02*
X245262476Y45459667D01*
X245262476Y45459667D02*
X245262476Y46459667D01*
X245262476Y46459667D02*
X245738666Y46459667D01*
X246500571Y45983477D02*
X246167238Y45983477D01*
X246167238Y45459667D02*
X246167238Y46459667D01*
X246167238Y46459667D02*
X246643428Y46459667D01*
X247167238Y46459667D02*
X247167238Y46221572D01*
X246929143Y46316810D02*
X247167238Y46221572D01*
X247167238Y46221572D02*
X247405333Y46316810D01*
X247024381Y46031096D02*
X247167238Y46221572D01*
X247167238Y46221572D02*
X247310095Y46031096D01*
X247929143Y46459667D02*
X247929143Y46221572D01*
X247691048Y46316810D02*
X247929143Y46221572D01*
X247929143Y46221572D02*
X248167238Y46316810D01*
X247786286Y46031096D02*
X247929143Y46221572D01*
X247929143Y46221572D02*
X248072000Y46031096D01*
X244833904Y75839667D02*
X244500571Y76315858D01*
X244262476Y75839667D02*
X244262476Y76839667D01*
X244262476Y76839667D02*
X244643428Y76839667D01*
X244643428Y76839667D02*
X244738666Y76792048D01*
X244738666Y76792048D02*
X244786285Y76744429D01*
X244786285Y76744429D02*
X244833904Y76649191D01*
X244833904Y76649191D02*
X244833904Y76506334D01*
X244833904Y76506334D02*
X244786285Y76411096D01*
X244786285Y76411096D02*
X244738666Y76363477D01*
X244738666Y76363477D02*
X244643428Y76315858D01*
X244643428Y76315858D02*
X244262476Y76315858D01*
X245262476Y76363477D02*
X245595809Y76363477D01*
X245738666Y75839667D02*
X245262476Y75839667D01*
X245262476Y75839667D02*
X245262476Y76839667D01*
X245262476Y76839667D02*
X245738666Y76839667D01*
X246500571Y76363477D02*
X246167238Y76363477D01*
X246167238Y75839667D02*
X246167238Y76839667D01*
X246167238Y76839667D02*
X246643428Y76839667D01*
X247167238Y76839667D02*
X247167238Y76601572D01*
X246929143Y76696810D02*
X247167238Y76601572D01*
X247167238Y76601572D02*
X247405333Y76696810D01*
X247024381Y76411096D02*
X247167238Y76601572D01*
X247167238Y76601572D02*
X247310095Y76411096D01*
X247929143Y76839667D02*
X247929143Y76601572D01*
X247691048Y76696810D02*
X247929143Y76601572D01*
X247929143Y76601572D02*
X248167238Y76696810D01*
X247786286Y76411096D02*
X247929143Y76601572D01*
X247929143Y76601572D02*
X248072000Y76411096D01*
X244833904Y18509667D02*
X244500571Y18985858D01*
X244262476Y18509667D02*
X244262476Y19509667D01*
X244262476Y19509667D02*
X244643428Y19509667D01*
X244643428Y19509667D02*
X244738666Y19462048D01*
X244738666Y19462048D02*
X244786285Y19414429D01*
X244786285Y19414429D02*
X244833904Y19319191D01*
X244833904Y19319191D02*
X244833904Y19176334D01*
X244833904Y19176334D02*
X244786285Y19081096D01*
X244786285Y19081096D02*
X244738666Y19033477D01*
X244738666Y19033477D02*
X244643428Y18985858D01*
X244643428Y18985858D02*
X244262476Y18985858D01*
X245262476Y19033477D02*
X245595809Y19033477D01*
X245738666Y18509667D02*
X245262476Y18509667D01*
X245262476Y18509667D02*
X245262476Y19509667D01*
X245262476Y19509667D02*
X245738666Y19509667D01*
X246500571Y19033477D02*
X246167238Y19033477D01*
X246167238Y18509667D02*
X246167238Y19509667D01*
X246167238Y19509667D02*
X246643428Y19509667D01*
X247167238Y19509667D02*
X247167238Y19271572D01*
X246929143Y19366810D02*
X247167238Y19271572D01*
X247167238Y19271572D02*
X247405333Y19366810D01*
X247024381Y19081096D02*
X247167238Y19271572D01*
X247167238Y19271572D02*
X247310095Y19081096D01*
X247929143Y19509667D02*
X247929143Y19271572D01*
X247691048Y19366810D02*
X247929143Y19271572D01*
X247929143Y19271572D02*
X248167238Y19366810D01*
X247786286Y19081096D02*
X247929143Y19271572D01*
X247929143Y19271572D02*
X248072000Y19081096D01*
X244833904Y62989667D02*
X244500571Y63465858D01*
X244262476Y62989667D02*
X244262476Y63989667D01*
X244262476Y63989667D02*
X244643428Y63989667D01*
X244643428Y63989667D02*
X244738666Y63942048D01*
X244738666Y63942048D02*
X244786285Y63894429D01*
X244786285Y63894429D02*
X244833904Y63799191D01*
X244833904Y63799191D02*
X244833904Y63656334D01*
X244833904Y63656334D02*
X244786285Y63561096D01*
X244786285Y63561096D02*
X244738666Y63513477D01*
X244738666Y63513477D02*
X244643428Y63465858D01*
X244643428Y63465858D02*
X244262476Y63465858D01*
X245262476Y63513477D02*
X245595809Y63513477D01*
X245738666Y62989667D02*
X245262476Y62989667D01*
X245262476Y62989667D02*
X245262476Y63989667D01*
X245262476Y63989667D02*
X245738666Y63989667D01*
X246500571Y63513477D02*
X246167238Y63513477D01*
X246167238Y62989667D02*
X246167238Y63989667D01*
X246167238Y63989667D02*
X246643428Y63989667D01*
X247167238Y63989667D02*
X247167238Y63751572D01*
X246929143Y63846810D02*
X247167238Y63751572D01*
X247167238Y63751572D02*
X247405333Y63846810D01*
X247024381Y63561096D02*
X247167238Y63751572D01*
X247167238Y63751572D02*
X247310095Y63561096D01*
X247929143Y63989667D02*
X247929143Y63751572D01*
X247691048Y63846810D02*
X247929143Y63751572D01*
X247929143Y63751572D02*
X248167238Y63846810D01*
X247786286Y63561096D02*
X247929143Y63751572D01*
X247929143Y63751572D02*
X248072000Y63561096D01*
X244833904Y22729667D02*
X244500571Y23205858D01*
X244262476Y22729667D02*
X244262476Y23729667D01*
X244262476Y23729667D02*
X244643428Y23729667D01*
X244643428Y23729667D02*
X244738666Y23682048D01*
X244738666Y23682048D02*
X244786285Y23634429D01*
X244786285Y23634429D02*
X244833904Y23539191D01*
X244833904Y23539191D02*
X244833904Y23396334D01*
X244833904Y23396334D02*
X244786285Y23301096D01*
X244786285Y23301096D02*
X244738666Y23253477D01*
X244738666Y23253477D02*
X244643428Y23205858D01*
X244643428Y23205858D02*
X244262476Y23205858D01*
X245262476Y23253477D02*
X245595809Y23253477D01*
X245738666Y22729667D02*
X245262476Y22729667D01*
X245262476Y22729667D02*
X245262476Y23729667D01*
X245262476Y23729667D02*
X245738666Y23729667D01*
X246500571Y23253477D02*
X246167238Y23253477D01*
X246167238Y22729667D02*
X246167238Y23729667D01*
X246167238Y23729667D02*
X246643428Y23729667D01*
X247167238Y23729667D02*
X247167238Y23491572D01*
X246929143Y23586810D02*
X247167238Y23491572D01*
X247167238Y23491572D02*
X247405333Y23586810D01*
X247024381Y23301096D02*
X247167238Y23491572D01*
X247167238Y23491572D02*
X247310095Y23301096D01*
X247929143Y23729667D02*
X247929143Y23491572D01*
X247691048Y23586810D02*
X247929143Y23491572D01*
X247929143Y23491572D02*
X248167238Y23586810D01*
X247786286Y23301096D02*
X247929143Y23491572D01*
X247929143Y23491572D02*
X248072000Y23301096D01*
X244833904Y81659667D02*
X244500571Y82135858D01*
X244262476Y81659667D02*
X244262476Y82659667D01*
X244262476Y82659667D02*
X244643428Y82659667D01*
X244643428Y82659667D02*
X244738666Y82612048D01*
X244738666Y82612048D02*
X244786285Y82564429D01*
X244786285Y82564429D02*
X244833904Y82469191D01*
X244833904Y82469191D02*
X244833904Y82326334D01*
X244833904Y82326334D02*
X244786285Y82231096D01*
X244786285Y82231096D02*
X244738666Y82183477D01*
X244738666Y82183477D02*
X244643428Y82135858D01*
X244643428Y82135858D02*
X244262476Y82135858D01*
X245262476Y82183477D02*
X245595809Y82183477D01*
X245738666Y81659667D02*
X245262476Y81659667D01*
X245262476Y81659667D02*
X245262476Y82659667D01*
X245262476Y82659667D02*
X245738666Y82659667D01*
X246500571Y82183477D02*
X246167238Y82183477D01*
X246167238Y81659667D02*
X246167238Y82659667D01*
X246167238Y82659667D02*
X246643428Y82659667D01*
X247167238Y82659667D02*
X247167238Y82421572D01*
X246929143Y82516810D02*
X247167238Y82421572D01*
X247167238Y82421572D02*
X247405333Y82516810D01*
X247024381Y82231096D02*
X247167238Y82421572D01*
X247167238Y82421572D02*
X247310095Y82231096D01*
X247929143Y82659667D02*
X247929143Y82421572D01*
X247691048Y82516810D02*
X247929143Y82421572D01*
X247929143Y82421572D02*
X248167238Y82516810D01*
X247786286Y82231096D02*
X247929143Y82421572D01*
X247929143Y82421572D02*
X248072000Y82231096D01*
X244833904Y15779667D02*
X244500571Y16255858D01*
X244262476Y15779667D02*
X244262476Y16779667D01*
X244262476Y16779667D02*
X244643428Y16779667D01*
X244643428Y16779667D02*
X244738666Y16732048D01*
X244738666Y16732048D02*
X244786285Y16684429D01*
X244786285Y16684429D02*
X244833904Y16589191D01*
X244833904Y16589191D02*
X244833904Y16446334D01*
X244833904Y16446334D02*
X244786285Y16351096D01*
X244786285Y16351096D02*
X244738666Y16303477D01*
X244738666Y16303477D02*
X244643428Y16255858D01*
X244643428Y16255858D02*
X244262476Y16255858D01*
X245262476Y16303477D02*
X245595809Y16303477D01*
X245738666Y15779667D02*
X245262476Y15779667D01*
X245262476Y15779667D02*
X245262476Y16779667D01*
X245262476Y16779667D02*
X245738666Y16779667D01*
X246500571Y16303477D02*
X246167238Y16303477D01*
X246167238Y15779667D02*
X246167238Y16779667D01*
X246167238Y16779667D02*
X246643428Y16779667D01*
X247167238Y16779667D02*
X247167238Y16541572D01*
X246929143Y16636810D02*
X247167238Y16541572D01*
X247167238Y16541572D02*
X247405333Y16636810D01*
X247024381Y16351096D02*
X247167238Y16541572D01*
X247167238Y16541572D02*
X247310095Y16351096D01*
X247929143Y16779667D02*
X247929143Y16541572D01*
X247691048Y16636810D02*
X247929143Y16541572D01*
X247929143Y16541572D02*
X248167238Y16636810D01*
X247786286Y16351096D02*
X247929143Y16541572D01*
X247929143Y16541572D02*
X248072000Y16351096D01*
X244833904Y24409667D02*
X244500571Y24885858D01*
X244262476Y24409667D02*
X244262476Y25409667D01*
X244262476Y25409667D02*
X244643428Y25409667D01*
X244643428Y25409667D02*
X244738666Y25362048D01*
X244738666Y25362048D02*
X244786285Y25314429D01*
X244786285Y25314429D02*
X244833904Y25219191D01*
X244833904Y25219191D02*
X244833904Y25076334D01*
X244833904Y25076334D02*
X244786285Y24981096D01*
X244786285Y24981096D02*
X244738666Y24933477D01*
X244738666Y24933477D02*
X244643428Y24885858D01*
X244643428Y24885858D02*
X244262476Y24885858D01*
X245262476Y24933477D02*
X245595809Y24933477D01*
X245738666Y24409667D02*
X245262476Y24409667D01*
X245262476Y24409667D02*
X245262476Y25409667D01*
X245262476Y25409667D02*
X245738666Y25409667D01*
X246500571Y24933477D02*
X246167238Y24933477D01*
X246167238Y24409667D02*
X246167238Y25409667D01*
X246167238Y25409667D02*
X246643428Y25409667D01*
X247167238Y25409667D02*
X247167238Y25171572D01*
X246929143Y25266810D02*
X247167238Y25171572D01*
X247167238Y25171572D02*
X247405333Y25266810D01*
X247024381Y24981096D02*
X247167238Y25171572D01*
X247167238Y25171572D02*
X247310095Y24981096D01*
X247929143Y25409667D02*
X247929143Y25171572D01*
X247691048Y25266810D02*
X247929143Y25171572D01*
X247929143Y25171572D02*
X248167238Y25266810D01*
X247786286Y24981096D02*
X247929143Y25171572D01*
X247929143Y25171572D02*
X248072000Y24981096D01*
X244833904Y54789667D02*
X244500571Y55265858D01*
X244262476Y54789667D02*
X244262476Y55789667D01*
X244262476Y55789667D02*
X244643428Y55789667D01*
X244643428Y55789667D02*
X244738666Y55742048D01*
X244738666Y55742048D02*
X244786285Y55694429D01*
X244786285Y55694429D02*
X244833904Y55599191D01*
X244833904Y55599191D02*
X244833904Y55456334D01*
X244833904Y55456334D02*
X244786285Y55361096D01*
X244786285Y55361096D02*
X244738666Y55313477D01*
X244738666Y55313477D02*
X244643428Y55265858D01*
X244643428Y55265858D02*
X244262476Y55265858D01*
X245262476Y55313477D02*
X245595809Y55313477D01*
X245738666Y54789667D02*
X245262476Y54789667D01*
X245262476Y54789667D02*
X245262476Y55789667D01*
X245262476Y55789667D02*
X245738666Y55789667D01*
X246500571Y55313477D02*
X246167238Y55313477D01*
X246167238Y54789667D02*
X246167238Y55789667D01*
X246167238Y55789667D02*
X246643428Y55789667D01*
X247167238Y55789667D02*
X247167238Y55551572D01*
X246929143Y55646810D02*
X247167238Y55551572D01*
X247167238Y55551572D02*
X247405333Y55646810D01*
X247024381Y55361096D02*
X247167238Y55551572D01*
X247167238Y55551572D02*
X247310095Y55361096D01*
X247929143Y55789667D02*
X247929143Y55551572D01*
X247691048Y55646810D02*
X247929143Y55551572D01*
X247929143Y55551572D02*
X248167238Y55646810D01*
X247786286Y55361096D02*
X247929143Y55551572D01*
X247929143Y55551572D02*
X248072000Y55361096D01*
X244833904Y33739667D02*
X244500571Y34215858D01*
X244262476Y33739667D02*
X244262476Y34739667D01*
X244262476Y34739667D02*
X244643428Y34739667D01*
X244643428Y34739667D02*
X244738666Y34692048D01*
X244738666Y34692048D02*
X244786285Y34644429D01*
X244786285Y34644429D02*
X244833904Y34549191D01*
X244833904Y34549191D02*
X244833904Y34406334D01*
X244833904Y34406334D02*
X244786285Y34311096D01*
X244786285Y34311096D02*
X244738666Y34263477D01*
X244738666Y34263477D02*
X244643428Y34215858D01*
X244643428Y34215858D02*
X244262476Y34215858D01*
X245262476Y34263477D02*
X245595809Y34263477D01*
X245738666Y33739667D02*
X245262476Y33739667D01*
X245262476Y33739667D02*
X245262476Y34739667D01*
X245262476Y34739667D02*
X245738666Y34739667D01*
X246500571Y34263477D02*
X246167238Y34263477D01*
X246167238Y33739667D02*
X246167238Y34739667D01*
X246167238Y34739667D02*
X246643428Y34739667D01*
X247167238Y34739667D02*
X247167238Y34501572D01*
X246929143Y34596810D02*
X247167238Y34501572D01*
X247167238Y34501572D02*
X247405333Y34596810D01*
X247024381Y34311096D02*
X247167238Y34501572D01*
X247167238Y34501572D02*
X247310095Y34311096D01*
X247929143Y34739667D02*
X247929143Y34501572D01*
X247691048Y34596810D02*
X247929143Y34501572D01*
X247929143Y34501572D02*
X248167238Y34596810D01*
X247786286Y34311096D02*
X247929143Y34501572D01*
X247929143Y34501572D02*
X248072000Y34311096D01*
X244833904Y68959667D02*
X244500571Y69435858D01*
X244262476Y68959667D02*
X244262476Y69959667D01*
X244262476Y69959667D02*
X244643428Y69959667D01*
X244643428Y69959667D02*
X244738666Y69912048D01*
X244738666Y69912048D02*
X244786285Y69864429D01*
X244786285Y69864429D02*
X244833904Y69769191D01*
X244833904Y69769191D02*
X244833904Y69626334D01*
X244833904Y69626334D02*
X244786285Y69531096D01*
X244786285Y69531096D02*
X244738666Y69483477D01*
X244738666Y69483477D02*
X244643428Y69435858D01*
X244643428Y69435858D02*
X244262476Y69435858D01*
X245262476Y69483477D02*
X245595809Y69483477D01*
X245738666Y68959667D02*
X245262476Y68959667D01*
X245262476Y68959667D02*
X245262476Y69959667D01*
X245262476Y69959667D02*
X245738666Y69959667D01*
X246500571Y69483477D02*
X246167238Y69483477D01*
X246167238Y68959667D02*
X246167238Y69959667D01*
X246167238Y69959667D02*
X246643428Y69959667D01*
X247167238Y69959667D02*
X247167238Y69721572D01*
X246929143Y69816810D02*
X247167238Y69721572D01*
X247167238Y69721572D02*
X247405333Y69816810D01*
X247024381Y69531096D02*
X247167238Y69721572D01*
X247167238Y69721572D02*
X247310095Y69531096D01*
X247929143Y69959667D02*
X247929143Y69721572D01*
X247691048Y69816810D02*
X247929143Y69721572D01*
X247929143Y69721572D02*
X248167238Y69816810D01*
X247786286Y69531096D02*
X247929143Y69721572D01*
X247929143Y69721572D02*
X248072000Y69531096D01*
X244833904Y87559667D02*
X244500571Y88035858D01*
X244262476Y87559667D02*
X244262476Y88559667D01*
X244262476Y88559667D02*
X244643428Y88559667D01*
X244643428Y88559667D02*
X244738666Y88512048D01*
X244738666Y88512048D02*
X244786285Y88464429D01*
X244786285Y88464429D02*
X244833904Y88369191D01*
X244833904Y88369191D02*
X244833904Y88226334D01*
X244833904Y88226334D02*
X244786285Y88131096D01*
X244786285Y88131096D02*
X244738666Y88083477D01*
X244738666Y88083477D02*
X244643428Y88035858D01*
X244643428Y88035858D02*
X244262476Y88035858D01*
X245262476Y88083477D02*
X245595809Y88083477D01*
X245738666Y87559667D02*
X245262476Y87559667D01*
X245262476Y87559667D02*
X245262476Y88559667D01*
X245262476Y88559667D02*
X245738666Y88559667D01*
X246500571Y88083477D02*
X246167238Y88083477D01*
X246167238Y87559667D02*
X246167238Y88559667D01*
X246167238Y88559667D02*
X246643428Y88559667D01*
X247167238Y88559667D02*
X247167238Y88321572D01*
X246929143Y88416810D02*
X247167238Y88321572D01*
X247167238Y88321572D02*
X247405333Y88416810D01*
X247024381Y88131096D02*
X247167238Y88321572D01*
X247167238Y88321572D02*
X247310095Y88131096D01*
X247929143Y88559667D02*
X247929143Y88321572D01*
X247691048Y88416810D02*
X247929143Y88321572D01*
X247929143Y88321572D02*
X248167238Y88416810D01*
X247786286Y88131096D02*
X247929143Y88321572D01*
X247929143Y88321572D02*
X248072000Y88131096D01*
X244833904Y57879667D02*
X244500571Y58355858D01*
X244262476Y57879667D02*
X244262476Y58879667D01*
X244262476Y58879667D02*
X244643428Y58879667D01*
X244643428Y58879667D02*
X244738666Y58832048D01*
X244738666Y58832048D02*
X244786285Y58784429D01*
X244786285Y58784429D02*
X244833904Y58689191D01*
X244833904Y58689191D02*
X244833904Y58546334D01*
X244833904Y58546334D02*
X244786285Y58451096D01*
X244786285Y58451096D02*
X244738666Y58403477D01*
X244738666Y58403477D02*
X244643428Y58355858D01*
X244643428Y58355858D02*
X244262476Y58355858D01*
X245262476Y58403477D02*
X245595809Y58403477D01*
X245738666Y57879667D02*
X245262476Y57879667D01*
X245262476Y57879667D02*
X245262476Y58879667D01*
X245262476Y58879667D02*
X245738666Y58879667D01*
X246500571Y58403477D02*
X246167238Y58403477D01*
X246167238Y57879667D02*
X246167238Y58879667D01*
X246167238Y58879667D02*
X246643428Y58879667D01*
X247167238Y58879667D02*
X247167238Y58641572D01*
X246929143Y58736810D02*
X247167238Y58641572D01*
X247167238Y58641572D02*
X247405333Y58736810D01*
X247024381Y58451096D02*
X247167238Y58641572D01*
X247167238Y58641572D02*
X247310095Y58451096D01*
X247929143Y58879667D02*
X247929143Y58641572D01*
X247691048Y58736810D02*
X247929143Y58641572D01*
X247929143Y58641572D02*
X248167238Y58736810D01*
X247786286Y58451096D02*
X247929143Y58641572D01*
X247929143Y58641572D02*
X248072000Y58451096D01*
X244833904Y36829667D02*
X244500571Y37305858D01*
X244262476Y36829667D02*
X244262476Y37829667D01*
X244262476Y37829667D02*
X244643428Y37829667D01*
X244643428Y37829667D02*
X244738666Y37782048D01*
X244738666Y37782048D02*
X244786285Y37734429D01*
X244786285Y37734429D02*
X244833904Y37639191D01*
X244833904Y37639191D02*
X244833904Y37496334D01*
X244833904Y37496334D02*
X244786285Y37401096D01*
X244786285Y37401096D02*
X244738666Y37353477D01*
X244738666Y37353477D02*
X244643428Y37305858D01*
X244643428Y37305858D02*
X244262476Y37305858D01*
X245262476Y37353477D02*
X245595809Y37353477D01*
X245738666Y36829667D02*
X245262476Y36829667D01*
X245262476Y36829667D02*
X245262476Y37829667D01*
X245262476Y37829667D02*
X245738666Y37829667D01*
X246500571Y37353477D02*
X246167238Y37353477D01*
X246167238Y36829667D02*
X246167238Y37829667D01*
X246167238Y37829667D02*
X246643428Y37829667D01*
X247167238Y37829667D02*
X247167238Y37591572D01*
X246929143Y37686810D02*
X247167238Y37591572D01*
X247167238Y37591572D02*
X247405333Y37686810D01*
X247024381Y37401096D02*
X247167238Y37591572D01*
X247167238Y37591572D02*
X247310095Y37401096D01*
X247929143Y37829667D02*
X247929143Y37591572D01*
X247691048Y37686810D02*
X247929143Y37591572D01*
X247929143Y37591572D02*
X248167238Y37686810D01*
X247786286Y37401096D02*
X247929143Y37591572D01*
X247929143Y37591572D02*
X248072000Y37401096D01*
X244833904Y90009667D02*
X244500571Y90485858D01*
X244262476Y90009667D02*
X244262476Y91009667D01*
X244262476Y91009667D02*
X244643428Y91009667D01*
X244643428Y91009667D02*
X244738666Y90962048D01*
X244738666Y90962048D02*
X244786285Y90914429D01*
X244786285Y90914429D02*
X244833904Y90819191D01*
X244833904Y90819191D02*
X244833904Y90676334D01*
X244833904Y90676334D02*
X244786285Y90581096D01*
X244786285Y90581096D02*
X244738666Y90533477D01*
X244738666Y90533477D02*
X244643428Y90485858D01*
X244643428Y90485858D02*
X244262476Y90485858D01*
X245262476Y90533477D02*
X245595809Y90533477D01*
X245738666Y90009667D02*
X245262476Y90009667D01*
X245262476Y90009667D02*
X245262476Y91009667D01*
X245262476Y91009667D02*
X245738666Y91009667D01*
X246500571Y90533477D02*
X246167238Y90533477D01*
X246167238Y90009667D02*
X246167238Y91009667D01*
X246167238Y91009667D02*
X246643428Y91009667D01*
X247167238Y91009667D02*
X247167238Y90771572D01*
X246929143Y90866810D02*
X247167238Y90771572D01*
X247167238Y90771572D02*
X247405333Y90866810D01*
X247024381Y90581096D02*
X247167238Y90771572D01*
X247167238Y90771572D02*
X247310095Y90581096D01*
X247929143Y91009667D02*
X247929143Y90771572D01*
X247691048Y90866810D02*
X247929143Y90771572D01*
X247929143Y90771572D02*
X248167238Y90866810D01*
X247786286Y90581096D02*
X247929143Y90771572D01*
X247929143Y90771572D02*
X248072000Y90581096D01*
X244833904Y64829667D02*
X244500571Y65305858D01*
X244262476Y64829667D02*
X244262476Y65829667D01*
X244262476Y65829667D02*
X244643428Y65829667D01*
X244643428Y65829667D02*
X244738666Y65782048D01*
X244738666Y65782048D02*
X244786285Y65734429D01*
X244786285Y65734429D02*
X244833904Y65639191D01*
X244833904Y65639191D02*
X244833904Y65496334D01*
X244833904Y65496334D02*
X244786285Y65401096D01*
X244786285Y65401096D02*
X244738666Y65353477D01*
X244738666Y65353477D02*
X244643428Y65305858D01*
X244643428Y65305858D02*
X244262476Y65305858D01*
X245262476Y65353477D02*
X245595809Y65353477D01*
X245738666Y64829667D02*
X245262476Y64829667D01*
X245262476Y64829667D02*
X245262476Y65829667D01*
X245262476Y65829667D02*
X245738666Y65829667D01*
X246500571Y65353477D02*
X246167238Y65353477D01*
X246167238Y64829667D02*
X246167238Y65829667D01*
X246167238Y65829667D02*
X246643428Y65829667D01*
X247167238Y65829667D02*
X247167238Y65591572D01*
X246929143Y65686810D02*
X247167238Y65591572D01*
X247167238Y65591572D02*
X247405333Y65686810D01*
X247024381Y65401096D02*
X247167238Y65591572D01*
X247167238Y65591572D02*
X247310095Y65401096D01*
X247929143Y65829667D02*
X247929143Y65591572D01*
X247691048Y65686810D02*
X247929143Y65591572D01*
X247929143Y65591572D02*
X248167238Y65686810D01*
X247786286Y65401096D02*
X247929143Y65591572D01*
X247929143Y65591572D02*
X248072000Y65401096D01*
X244833904Y26859667D02*
X244500571Y27335858D01*
X244262476Y26859667D02*
X244262476Y27859667D01*
X244262476Y27859667D02*
X244643428Y27859667D01*
X244643428Y27859667D02*
X244738666Y27812048D01*
X244738666Y27812048D02*
X244786285Y27764429D01*
X244786285Y27764429D02*
X244833904Y27669191D01*
X244833904Y27669191D02*
X244833904Y27526334D01*
X244833904Y27526334D02*
X244786285Y27431096D01*
X244786285Y27431096D02*
X244738666Y27383477D01*
X244738666Y27383477D02*
X244643428Y27335858D01*
X244643428Y27335858D02*
X244262476Y27335858D01*
X245262476Y27383477D02*
X245595809Y27383477D01*
X245738666Y26859667D02*
X245262476Y26859667D01*
X245262476Y26859667D02*
X245262476Y27859667D01*
X245262476Y27859667D02*
X245738666Y27859667D01*
X246500571Y27383477D02*
X246167238Y27383477D01*
X246167238Y26859667D02*
X246167238Y27859667D01*
X246167238Y27859667D02*
X246643428Y27859667D01*
X247167238Y27859667D02*
X247167238Y27621572D01*
X246929143Y27716810D02*
X247167238Y27621572D01*
X247167238Y27621572D02*
X247405333Y27716810D01*
X247024381Y27431096D02*
X247167238Y27621572D01*
X247167238Y27621572D02*
X247310095Y27431096D01*
X247929143Y27859667D02*
X247929143Y27621572D01*
X247691048Y27716810D02*
X247929143Y27621572D01*
X247929143Y27621572D02*
X248167238Y27716810D01*
X247786286Y27431096D02*
X247929143Y27621572D01*
X247929143Y27621572D02*
X248072000Y27431096D01*
X244833904Y108609667D02*
X244500571Y109085858D01*
X244262476Y108609667D02*
X244262476Y109609667D01*
X244262476Y109609667D02*
X244643428Y109609667D01*
X244643428Y109609667D02*
X244738666Y109562048D01*
X244738666Y109562048D02*
X244786285Y109514429D01*
X244786285Y109514429D02*
X244833904Y109419191D01*
X244833904Y109419191D02*
X244833904Y109276334D01*
X244833904Y109276334D02*
X244786285Y109181096D01*
X244786285Y109181096D02*
X244738666Y109133477D01*
X244738666Y109133477D02*
X244643428Y109085858D01*
X244643428Y109085858D02*
X244262476Y109085858D01*
X245262476Y109133477D02*
X245595809Y109133477D01*
X245738666Y108609667D02*
X245262476Y108609667D01*
X245262476Y108609667D02*
X245262476Y109609667D01*
X245262476Y109609667D02*
X245738666Y109609667D01*
X246500571Y109133477D02*
X246167238Y109133477D01*
X246167238Y108609667D02*
X246167238Y109609667D01*
X246167238Y109609667D02*
X246643428Y109609667D01*
X247167238Y109609667D02*
X247167238Y109371572D01*
X246929143Y109466810D02*
X247167238Y109371572D01*
X247167238Y109371572D02*
X247405333Y109466810D01*
X247024381Y109181096D02*
X247167238Y109371572D01*
X247167238Y109371572D02*
X247310095Y109181096D01*
X247929143Y109609667D02*
X247929143Y109371572D01*
X247691048Y109466810D02*
X247929143Y109371572D01*
X247929143Y109371572D02*
X248167238Y109466810D01*
X247786286Y109181096D02*
X247929143Y109371572D01*
X247929143Y109371572D02*
X248072000Y109181096D01*
X244833904Y111059667D02*
X244500571Y111535858D01*
X244262476Y111059667D02*
X244262476Y112059667D01*
X244262476Y112059667D02*
X244643428Y112059667D01*
X244643428Y112059667D02*
X244738666Y112012048D01*
X244738666Y112012048D02*
X244786285Y111964429D01*
X244786285Y111964429D02*
X244833904Y111869191D01*
X244833904Y111869191D02*
X244833904Y111726334D01*
X244833904Y111726334D02*
X244786285Y111631096D01*
X244786285Y111631096D02*
X244738666Y111583477D01*
X244738666Y111583477D02*
X244643428Y111535858D01*
X244643428Y111535858D02*
X244262476Y111535858D01*
X245262476Y111583477D02*
X245595809Y111583477D01*
X245738666Y111059667D02*
X245262476Y111059667D01*
X245262476Y111059667D02*
X245262476Y112059667D01*
X245262476Y112059667D02*
X245738666Y112059667D01*
X246500571Y111583477D02*
X246167238Y111583477D01*
X246167238Y111059667D02*
X246167238Y112059667D01*
X246167238Y112059667D02*
X246643428Y112059667D01*
X247167238Y112059667D02*
X247167238Y111821572D01*
X246929143Y111916810D02*
X247167238Y111821572D01*
X247167238Y111821572D02*
X247405333Y111916810D01*
X247024381Y111631096D02*
X247167238Y111821572D01*
X247167238Y111821572D02*
X247310095Y111631096D01*
X247929143Y112059667D02*
X247929143Y111821572D01*
X247691048Y111916810D02*
X247929143Y111821572D01*
X247929143Y111821572D02*
X248167238Y111916810D01*
X247786286Y111631096D02*
X247929143Y111821572D01*
X247929143Y111821572D02*
X248072000Y111631096D01*
X244833904Y20889667D02*
X244500571Y21365858D01*
X244262476Y20889667D02*
X244262476Y21889667D01*
X244262476Y21889667D02*
X244643428Y21889667D01*
X244643428Y21889667D02*
X244738666Y21842048D01*
X244738666Y21842048D02*
X244786285Y21794429D01*
X244786285Y21794429D02*
X244833904Y21699191D01*
X244833904Y21699191D02*
X244833904Y21556334D01*
X244833904Y21556334D02*
X244786285Y21461096D01*
X244786285Y21461096D02*
X244738666Y21413477D01*
X244738666Y21413477D02*
X244643428Y21365858D01*
X244643428Y21365858D02*
X244262476Y21365858D01*
X245262476Y21413477D02*
X245595809Y21413477D01*
X245738666Y20889667D02*
X245262476Y20889667D01*
X245262476Y20889667D02*
X245262476Y21889667D01*
X245262476Y21889667D02*
X245738666Y21889667D01*
X246500571Y21413477D02*
X246167238Y21413477D01*
X246167238Y20889667D02*
X246167238Y21889667D01*
X246167238Y21889667D02*
X246643428Y21889667D01*
X247167238Y21889667D02*
X247167238Y21651572D01*
X246929143Y21746810D02*
X247167238Y21651572D01*
X247167238Y21651572D02*
X247405333Y21746810D01*
X247024381Y21461096D02*
X247167238Y21651572D01*
X247167238Y21651572D02*
X247310095Y21461096D01*
X247929143Y21889667D02*
X247929143Y21651572D01*
X247691048Y21746810D02*
X247929143Y21651572D01*
X247929143Y21651572D02*
X248167238Y21746810D01*
X247786286Y21461096D02*
X247929143Y21651572D01*
X247929143Y21651572D02*
X248072000Y21461096D01*
X244833904Y102709667D02*
X244500571Y103185858D01*
X244262476Y102709667D02*
X244262476Y103709667D01*
X244262476Y103709667D02*
X244643428Y103709667D01*
X244643428Y103709667D02*
X244738666Y103662048D01*
X244738666Y103662048D02*
X244786285Y103614429D01*
X244786285Y103614429D02*
X244833904Y103519191D01*
X244833904Y103519191D02*
X244833904Y103376334D01*
X244833904Y103376334D02*
X244786285Y103281096D01*
X244786285Y103281096D02*
X244738666Y103233477D01*
X244738666Y103233477D02*
X244643428Y103185858D01*
X244643428Y103185858D02*
X244262476Y103185858D01*
X245262476Y103233477D02*
X245595809Y103233477D01*
X245738666Y102709667D02*
X245262476Y102709667D01*
X245262476Y102709667D02*
X245262476Y103709667D01*
X245262476Y103709667D02*
X245738666Y103709667D01*
X246500571Y103233477D02*
X246167238Y103233477D01*
X246167238Y102709667D02*
X246167238Y103709667D01*
X246167238Y103709667D02*
X246643428Y103709667D01*
X247167238Y103709667D02*
X247167238Y103471572D01*
X246929143Y103566810D02*
X247167238Y103471572D01*
X247167238Y103471572D02*
X247405333Y103566810D01*
X247024381Y103281096D02*
X247167238Y103471572D01*
X247167238Y103471572D02*
X247310095Y103281096D01*
X247929143Y103709667D02*
X247929143Y103471572D01*
X247691048Y103566810D02*
X247929143Y103471572D01*
X247929143Y103471572D02*
X248167238Y103566810D01*
X247786286Y103281096D02*
X247929143Y103471572D01*
X247929143Y103471572D02*
X248072000Y103281096D01*
X244833904Y85879667D02*
X244500571Y86355858D01*
X244262476Y85879667D02*
X244262476Y86879667D01*
X244262476Y86879667D02*
X244643428Y86879667D01*
X244643428Y86879667D02*
X244738666Y86832048D01*
X244738666Y86832048D02*
X244786285Y86784429D01*
X244786285Y86784429D02*
X244833904Y86689191D01*
X244833904Y86689191D02*
X244833904Y86546334D01*
X244833904Y86546334D02*
X244786285Y86451096D01*
X244786285Y86451096D02*
X244738666Y86403477D01*
X244738666Y86403477D02*
X244643428Y86355858D01*
X244643428Y86355858D02*
X244262476Y86355858D01*
X245262476Y86403477D02*
X245595809Y86403477D01*
X245738666Y85879667D02*
X245262476Y85879667D01*
X245262476Y85879667D02*
X245262476Y86879667D01*
X245262476Y86879667D02*
X245738666Y86879667D01*
X246500571Y86403477D02*
X246167238Y86403477D01*
X246167238Y85879667D02*
X246167238Y86879667D01*
X246167238Y86879667D02*
X246643428Y86879667D01*
X247167238Y86879667D02*
X247167238Y86641572D01*
X246929143Y86736810D02*
X247167238Y86641572D01*
X247167238Y86641572D02*
X247405333Y86736810D01*
X247024381Y86451096D02*
X247167238Y86641572D01*
X247167238Y86641572D02*
X247310095Y86451096D01*
X247929143Y86879667D02*
X247929143Y86641572D01*
X247691048Y86736810D02*
X247929143Y86641572D01*
X247929143Y86641572D02*
X248167238Y86736810D01*
X247786286Y86451096D02*
X247929143Y86641572D01*
X247929143Y86641572D02*
X248072000Y86451096D01*
X244833904Y60609667D02*
X244500571Y61085858D01*
X244262476Y60609667D02*
X244262476Y61609667D01*
X244262476Y61609667D02*
X244643428Y61609667D01*
X244643428Y61609667D02*
X244738666Y61562048D01*
X244738666Y61562048D02*
X244786285Y61514429D01*
X244786285Y61514429D02*
X244833904Y61419191D01*
X244833904Y61419191D02*
X244833904Y61276334D01*
X244833904Y61276334D02*
X244786285Y61181096D01*
X244786285Y61181096D02*
X244738666Y61133477D01*
X244738666Y61133477D02*
X244643428Y61085858D01*
X244643428Y61085858D02*
X244262476Y61085858D01*
X245262476Y61133477D02*
X245595809Y61133477D01*
X245738666Y60609667D02*
X245262476Y60609667D01*
X245262476Y60609667D02*
X245262476Y61609667D01*
X245262476Y61609667D02*
X245738666Y61609667D01*
X246500571Y61133477D02*
X246167238Y61133477D01*
X246167238Y60609667D02*
X246167238Y61609667D01*
X246167238Y61609667D02*
X246643428Y61609667D01*
X247167238Y61609667D02*
X247167238Y61371572D01*
X246929143Y61466810D02*
X247167238Y61371572D01*
X247167238Y61371572D02*
X247405333Y61466810D01*
X247024381Y61181096D02*
X247167238Y61371572D01*
X247167238Y61371572D02*
X247310095Y61181096D01*
X247929143Y61609667D02*
X247929143Y61371572D01*
X247691048Y61466810D02*
X247929143Y61371572D01*
X247929143Y61371572D02*
X248167238Y61466810D01*
X247786286Y61181096D02*
X247929143Y61371572D01*
X247929143Y61371572D02*
X248072000Y61181096D01*
M02*
